<?xml version="1.0" standalone="no"?>
<!DOCTYPE svg PUBLIC "-//W3C//DTD SVG 1.1//EN" "http://www.w3.org/Graphics/SVG/1.1/DTD/svg11.dtd" >
<svg xmlns="http://www.w3.org/2000/svg" xmlns:xlink="http://www.w3.org/1999/xlink" version="1.1">
<metadata>
Created by Christoph Koeberlin (http://christoph.koe.berlin)
Copyright (c) 2017 Swiss Typefaces Sarl. All rights reserved.
</metadata>
<defs>
<font id="Font" horiz-adv-x="881" >
  <font-face 
    font-family="Font"
    font-weight="400"
    font-style="italic"
    font-stretch="normal"
    units-per-em="1000"
    panose-1="2 4 5 4 8 0 0 0 0 4"
    ascent="800"
    descent="-200"
    x-height="502"
    cap-height="758"
    bbox="-227 -260 1478 916"
    underline-thickness="47"
    underline-position="-130"
    slope="-17"
    unicode-range="U+0020-2022"
  />
<missing-glyph horiz-adv-x="640" 
d="M70 758h500v-758h-500v758zM320 396l217 343h-434zM89 30l221 349l-221 349v-698zM551 30v698l-220 -349zM537 19l-217 343l-217 -343h434z" />
    <glyph glyph-name="f_f.liga" unicode="ff" horiz-adv-x="664" 
d="M467 451h-227l-49 -222q-25 -112 -52.5 -191.5t-56.5 -133.5t-57.5 -86t-55 -48.5t-50 -21.5t-41.5 -5q-26 0 -41 13.5t-15 33.5t12.5 32.5t31.5 13.5q23 -14 46 -24t45 -10q14 0 25.5 8.5t22.5 31.5t23 65t27 109l95 435h-78l8 23q27 2 45 4t33 13t30.5 34.5t38.5 69.5
q22 46 49 77t54.5 50t54.5 27t50 8q35 0 48.5 -15.5t13.5 -35.5q0 -16 -9.5 -31t-26.5 -23q-26 13 -48.5 18.5t-42.5 5.5q-29 0 -52 -10.5t-39 -27.5t-24.5 -39t-8.5 -44t7.5 -37.5t33.5 -15.5h154q21 0 35.5 9.5t25.5 25t21 36.5t21 44q22 46 49 77t54.5 50t54.5 27t50 8
q35 0 48.5 -15.5t13.5 -35.5q0 -16 -9.5 -31t-26.5 -23q-26 13 -48.5 18.5t-42.5 5.5q-29 0 -52 -10.5t-39 -29t-24.5 -43.5t-8.5 -53q0 -11 1.5 -21.5t6 -19t12.5 -14t21 -5.5h145l-31 -51h-161l-38 -173q-25 -112 -52.5 -192t-56.5 -134t-57.5 -86t-55 -48.5t-50 -21
t-41.5 -4.5q-26 0 -41 13.5t-15 33.5t12.5 32.5t31.5 13.5q23 -14 46 -24t45 -10q14 0 25.5 8.5t22.5 31.5t23 65t27 109z" />
    <glyph glyph-name="f_i.liga" unicode="fi" horiz-adv-x="601" 
d="M534 722q0 25 19 44t44 19q26 0 45.5 -19t19.5 -44q0 -26 -19.5 -45.5t-45.5 -19.5q-25 0 -44 19.5t-19 45.5zM-122 -257q-26 0 -41 13.5t-15 33.5t12.5 32.5t31.5 13.5q23 -14 46 -24t45 -10q14 0 25.5 8.5t22.5 31.5t23 65t27 109l95 435h-78l8 23q27 2 45 7.5t33 20.5
t30.5 42t38.5 73q22 46 49 77t54.5 50t54.5 27t50 8q35 0 48.5 -15.5t13.5 -35.5q0 -16 -9.5 -31t-26.5 -23q-26 13 -48.5 18.5t-42.5 5.5q-29 0 -52 -10.5t-39 -29t-24.5 -43.5t-8.5 -53q0 -11 1.5 -21.5t6 -19t12.5 -14t21 -5.5h288l-158 -411q-15 -38 -13.5 -51.5
t16.5 -13.5q12 0 29 7.5t37 24t41 42.5t41 64l21 -9q-42 -80 -97 -123.5t-124 -43.5q-49 0 -57 25.5t10 73.5l140 364h-221l-49 -222q-25 -112 -52.5 -191.5t-56.5 -133.5t-57.5 -86t-55 -48.5t-50 -21.5t-41.5 -5z" />
    <glyph glyph-name="f_f_i.liga" unicode="ffi" horiz-adv-x="918" 
d="M852 722q0 25 19 44t44 19q26 0 45 -19t19 -44q0 -26 -19 -45.5t-45 -19.5q-25 0 -44 19.5t-19 45.5zM-122 -257q-26 0 -41 13.5t-15 33.5t12.5 32.5t31.5 13.5q23 -14 46 -24t45 -10q14 0 25.5 8.5t22.5 31.5t23 65t27 109l95 435h-78l8 23q27 2 45 4t33 13t30.5 34.5
t38.5 69.5q22 46 49 77t54.5 50t54.5 27t50 8q35 0 48.5 -15.5t13.5 -35.5q0 -16 -9.5 -31t-26.5 -23q-26 13 -48.5 18.5t-42.5 5.5q-29 0 -52 -10.5t-39 -27.5t-24.5 -39t-8.5 -44t7.5 -37.5t33.5 -15.5h154q21 0 35.5 9.5t25.5 25t21 36.5t21 44q22 46 49 77t54.5 50
t54.5 27t50 8q35 0 48.5 -15.5t13.5 -35.5q0 -16 -9.5 -31t-26.5 -23q-26 13 -48.5 18.5t-42.5 5.5q-29 0 -52 -10.5t-39 -29t-24.5 -43.5t-8.5 -53q0 -11 1.5 -21.5t6 -19t12.5 -14t21 -5.5h289l-159 -411q-15 -38 -13.5 -51.5t17.5 -13.5q12 0 29 7.5t37 24t41 42.5t41 64
l20 -9q-42 -80 -97 -123.5t-124 -43.5q-48 0 -56 25.5t10 73.5l140 364h-222l-38 -173q-25 -112 -52.5 -192t-56.5 -134t-57.5 -86t-55 -48.5t-50 -21t-41.5 -4.5q-26 0 -41 13.5t-15 33.5t12.5 32.5t31.5 13.5q23 -14 46 -24t45 -10q14 0 25.5 8.5t22.5 31.5t23 65t27 109
l84 386h-227l-49 -222q-25 -112 -52.5 -191.5t-56.5 -133.5t-57.5 -86t-55 -48.5t-50 -21.5t-41.5 -5z" />
    <glyph glyph-name="f_l.liga" unicode="fl" horiz-adv-x="617" 
d="M-122 -257q-26 0 -41 13.5t-15 33.5t12.5 32.5t31.5 13.5q23 -14 46 -24t45 -10q14 0 25.5 8.5t22.5 31.5t23 65t27 109l95 435h-78l8 23q27 2 45 7.5t33 20.5t30.5 42t38.5 73q22 46 49 77t54.5 50t54.5 27t50 8q28 0 41.5 -10t18.5 -24l182 40l-238 -694
q-14 -39 -13 -52t16 -13q12 0 29 7.5t37 24t41 42.5t41 64l21 -9q-42 -80 -97 -123.5t-124 -43.5q-24 0 -37.5 6.5t-18.5 19t-2 31t11 42.5l209 609l-55 27q-2 -15 -11 -28.5t-25 -20.5q-26 13 -48.5 18.5t-42.5 5.5q-29 0 -52 -10.5t-39 -29t-24.5 -43.5t-8.5 -53
q0 -11 1.5 -21.5t6 -19t12.5 -14t21 -5.5h145l-31 -51h-161l-49 -222q-25 -112 -52.5 -191.5t-56.5 -133.5t-57.5 -86t-55 -48.5t-50 -21.5t-41.5 -5z" />
    <glyph glyph-name="f_f_l.liga" unicode="ffl" horiz-adv-x="934" 
d="M-122 -257q-26 0 -41 13.5t-15 33.5t12.5 32.5t31.5 13.5q23 -14 46 -24t45 -10q14 0 25.5 8.5t22.5 31.5t23 65t27 109l95 435h-78l8 23q27 2 45 4t33 13t30.5 34.5t38.5 69.5q22 46 49 77t54.5 50t54.5 27t50 8q35 0 48.5 -15.5t13.5 -35.5q0 -16 -9.5 -31t-26.5 -23
q-26 13 -48.5 18.5t-42.5 5.5q-29 0 -52 -10.5t-39 -27.5t-24.5 -39t-8.5 -44t7.5 -37.5t33.5 -15.5h154q21 0 35.5 9.5t25.5 25t21 36.5t21 44q22 46 49 77t54.5 50t54.5 27t50 8q28 0 41.5 -10t18.5 -24l182 40l-238 -694q-14 -39 -13 -52t16 -13q12 0 29 7.5t37 24
t41 42.5t41 64l21 -9q-42 -80 -97 -123.5t-124 -43.5q-24 0 -37.5 6.5t-18.5 19t-2 31t11 42.5l209 609l-55 27q-2 -15 -11 -28.5t-25 -20.5q-26 13 -48.5 18.5t-42.5 5.5q-29 0 -52 -10.5t-39 -29t-24.5 -43.5t-8.5 -53q0 -11 1.5 -21.5t6 -19t12.5 -14t21 -5.5h145
l-31 -51h-161l-38 -173q-25 -112 -52.5 -192t-56.5 -134t-57.5 -86t-55 -48.5t-50 -21t-41.5 -4.5q-26 0 -41 13.5t-15 33.5t12.5 32.5t31.5 13.5q23 -14 46 -24t45 -10q14 0 25.5 8.5t22.5 31.5t23 65t27 109l84 386h-227l-49 -222q-25 -112 -52.5 -191.5t-56.5 -133.5
t-57.5 -86t-55 -48.5t-50 -21.5t-41.5 -5z" />
    <glyph glyph-name=".notdef" horiz-adv-x="640" 
d="M70 758h500v-758h-500v758zM320 396l217 343h-434zM89 30l221 349l-221 349v-698zM551 30v698l-220 -349zM537 19l-217 343l-217 -343h434z" />
    <glyph glyph-name="glyph1" horiz-adv-x="0" 
 />
    <glyph glyph-name="glyph2" horiz-adv-x="240" 
 />
    <glyph glyph-name="space" unicode=" " horiz-adv-x="240" 
 />
    <glyph glyph-name="comma" unicode="," horiz-adv-x="266" 
d="M-72 -170q66 41 101.5 85t35.5 79q0 44 -55 57q6 35 28 51t48 16q28 0 47.5 -18t19.5 -51q0 -23 -12.5 -52t-38.5 -61t-66.5 -65.5t-96.5 -63.5z" />
    <glyph glyph-name="hyphen" unicode="-" horiz-adv-x="437" 
d="M84 288h294l-18 -53h-294z" />
    <glyph glyph-name="period" unicode="." horiz-adv-x="252" 
d="M75 -12q-27 0 -46 19.5t-19 47.5q0 27 19 46.5t46 19.5q29 0 48 -19.5t19 -46.5q0 -28 -19 -47.5t-48 -19.5z" />
    <glyph glyph-name="slash" unicode="/" horiz-adv-x="548" 
d="M606 794h71l-661 -846h-70z" />
    <glyph glyph-name="zero" unicode="0" horiz-adv-x="675" 
d="M277 -12q-54 0 -93.5 19.5t-65 53t-37.5 79t-12 97.5q0 58 15 120.5t42.5 122t65.5 113.5t83.5 94.5t97 64t106.5 23.5q54 0 93.5 -19.5t65 -53.5t38 -79t12.5 -97q0 -58 -15.5 -120.5t-43 -122.5t-65.5 -113.5t-83.5 -94t-97.5 -64t-106 -23.5zM284 18q46 0 86.5 28
t75.5 74.5t62.5 105.5t46.5 121t29.5 121.5t10.5 107.5q0 78 -30 123.5t-93 45.5q-46 0 -86.5 -28t-75.5 -74.5t-62.5 -105.5t-46.5 -121t-29.5 -122t-10.5 -107q0 -78 30 -123.5t93 -45.5z" />
    <glyph glyph-name="A" unicode="A" horiz-adv-x="816" 
d="M-133 24l44 3q23 2 43.5 9.5t38.5 24.5l792 721h18l-178 -719q-5 -21 3.5 -27.5t30.5 -8.5l44 -3l-7 -24h-282l7 24l46 3q23 2 37 8.5t19 27.5l55 216h-293l-238 -218q-17 -16 -18.5 -24t22.5 -10l60 -3l-8 -24h-244zM588 319l79 309l-338 -309h259z" />
    <glyph glyph-name="A" unicode="&#x104;" horiz-adv-x="816" 
d="M-133 24l44 3q23 2 43.5 9.5t38.5 24.5l792 721h18l-178 -719q-5 -21 3.5 -27.5t30.5 -8.5l44 -3l-7 -24h-282l7 24l46 3q23 2 37 8.5t19 27.5l55 216h-293l-238 -218q-17 -16 -18.5 -24t22.5 -10l60 -3l-8 -24h-244zM588 319l79 309l-338 -309h259z" />
    <glyph glyph-name="A" unicode="&#x102;" horiz-adv-x="816" 
d="M-133 24l44 3q23 2 43.5 9.5t38.5 24.5l792 721h18l-178 -719q-5 -21 3.5 -27.5t30.5 -8.5l44 -3l-7 -24h-282l7 24l46 3q23 2 37 8.5t19 27.5l55 216h-293l-238 -218q-17 -16 -18.5 -24t22.5 -10l60 -3l-8 -24h-244zM588 319l79 309l-338 -309h259z" />
    <glyph glyph-name="A" unicode="&#x100;" horiz-adv-x="816" 
d="M-133 24l44 3q23 2 43.5 9.5t38.5 24.5l792 721h18l-178 -719q-5 -21 3.5 -27.5t30.5 -8.5l44 -3l-7 -24h-282l7 24l46 3q23 2 37 8.5t19 27.5l55 216h-293l-238 -218q-17 -16 -18.5 -24t22.5 -10l60 -3l-8 -24h-244zM588 319l79 309l-338 -309h259z" />
    <glyph glyph-name="A" unicode="&#xc6;" horiz-adv-x="816" 
d="M-133 24l44 3q23 2 43.5 9.5t38.5 24.5l792 721h18l-178 -719q-5 -21 3.5 -27.5t30.5 -8.5l44 -3l-7 -24h-282l7 24l46 3q23 2 37 8.5t19 27.5l55 216h-293l-238 -218q-17 -16 -18.5 -24t22.5 -10l60 -3l-8 -24h-244zM588 319l79 309l-338 -309h259z" />
    <glyph glyph-name="A" unicode="&#xc5;" horiz-adv-x="816" 
d="M-133 24l44 3q23 2 43.5 9.5t38.5 24.5l792 721h18l-178 -719q-5 -21 3.5 -27.5t30.5 -8.5l44 -3l-7 -24h-282l7 24l46 3q23 2 37 8.5t19 27.5l55 216h-293l-238 -218q-17 -16 -18.5 -24t22.5 -10l60 -3l-8 -24h-244zM588 319l79 309l-338 -309h259z" />
    <glyph glyph-name="A" unicode="&#xc4;" horiz-adv-x="816" 
d="M-133 24l44 3q23 2 43.5 9.5t38.5 24.5l792 721h18l-178 -719q-5 -21 3.5 -27.5t30.5 -8.5l44 -3l-7 -24h-282l7 24l46 3q23 2 37 8.5t19 27.5l55 216h-293l-238 -218q-17 -16 -18.5 -24t22.5 -10l60 -3l-8 -24h-244zM588 319l79 309l-338 -309h259z" />
    <glyph glyph-name="A" unicode="&#xc3;" horiz-adv-x="816" 
d="M-133 24l44 3q23 2 43.5 9.5t38.5 24.5l792 721h18l-178 -719q-5 -21 3.5 -27.5t30.5 -8.5l44 -3l-7 -24h-282l7 24l46 3q23 2 37 8.5t19 27.5l55 216h-293l-238 -218q-17 -16 -18.5 -24t22.5 -10l60 -3l-8 -24h-244zM588 319l79 309l-338 -309h259z" />
    <glyph glyph-name="A" unicode="&#xc2;" horiz-adv-x="816" 
d="M-133 24l44 3q23 2 43.5 9.5t38.5 24.5l792 721h18l-178 -719q-5 -21 3.5 -27.5t30.5 -8.5l44 -3l-7 -24h-282l7 24l46 3q23 2 37 8.5t19 27.5l55 216h-293l-238 -218q-17 -16 -18.5 -24t22.5 -10l60 -3l-8 -24h-244zM588 319l79 309l-338 -309h259z" />
    <glyph glyph-name="A" unicode="&#xc1;" horiz-adv-x="816" 
d="M-133 24l44 3q23 2 43.5 9.5t38.5 24.5l792 721h18l-178 -719q-5 -21 3.5 -27.5t30.5 -8.5l44 -3l-7 -24h-282l7 24l46 3q23 2 37 8.5t19 27.5l55 216h-293l-238 -218q-17 -16 -18.5 -24t22.5 -10l60 -3l-8 -24h-244zM588 319l79 309l-338 -309h259z" />
    <glyph glyph-name="A" unicode="&#xc0;" horiz-adv-x="816" 
d="M-133 24l44 3q23 2 43.5 9.5t38.5 24.5l792 721h18l-178 -719q-5 -21 3.5 -27.5t30.5 -8.5l44 -3l-7 -24h-282l7 24l46 3q23 2 37 8.5t19 27.5l55 216h-293l-238 -218q-17 -16 -18.5 -24t22.5 -10l60 -3l-8 -24h-244zM588 319l79 309l-338 -309h259z" />
    <glyph glyph-name="B" unicode="B" horiz-adv-x="747" 
d="M-15 24l46 3q23 2 36 8.5t20 27.5l193 632q7 21 -3 27.5t-31 8.5l-44 3l8 24h279q63 0 112 -7t83.5 -23t52 -41.5t17.5 -62.5q-1 -39 -20 -76t-54.5 -66t-86 -49.5t-114.5 -26.5v-1q45 -2 85 -11.5t70 -28t47.5 -46.5t17.5 -65q0 -46 -25 -91.5t-74.5 -81.5t-124.5 -58.5
t-175 -22.5h-322zM415 416q59 0 102.5 20.5t72 51.5t42.5 67.5t14 69.5q0 56 -40.5 79t-115.5 23h-99l-94 -311h118zM295 31q80 0 135.5 21.5t90 55.5t50 75.5t15.5 81.5q0 65 -47.5 92.5t-130.5 27.5h-121l-109 -354h117z" />
    <glyph glyph-name="C" unicode="C" horiz-adv-x="793" 
d="M384 -12q-60 0 -115.5 17.5t-97.5 54.5t-67 94t-25 136q0 64 19 125.5t53 115t81 98.5t103 77.5t120 50.5t131 18q33 0 66.5 -4t64.5 -10.5t57 -16t44 -20.5l3 -211h-18l-64 149q-8 19 -14.5 31.5t-14 20t-16 12t-21.5 8.5q-17 5 -40 7t-43 2q-91 0 -163.5 -38.5
t-123.5 -105t-78 -155.5t-27 -191q0 -115 49 -174t142 -59q25 0 46.5 1.5t41.5 6.5t44 26l217 197h18l-138 -221q-18 -8 -44.5 -15.5t-57.5 -13.5t-65 -9.5t-67 -3.5z" />
    <glyph glyph-name="C" unicode="&#x10c;" horiz-adv-x="793" 
d="M384 -12q-60 0 -115.5 17.5t-97.5 54.5t-67 94t-25 136q0 64 19 125.5t53 115t81 98.5t103 77.5t120 50.5t131 18q33 0 66.5 -4t64.5 -10.5t57 -16t44 -20.5l3 -211h-18l-64 149q-8 19 -14.5 31.5t-14 20t-16 12t-21.5 8.5q-17 5 -40 7t-43 2q-91 0 -163.5 -38.5
t-123.5 -105t-78 -155.5t-27 -191q0 -115 49 -174t142 -59q25 0 46.5 1.5t41.5 6.5t44 26l217 197h18l-138 -221q-18 -8 -44.5 -15.5t-57.5 -13.5t-65 -9.5t-67 -3.5z" />
    <glyph glyph-name="C" unicode="&#x10a;" horiz-adv-x="793" 
d="M384 -12q-60 0 -115.5 17.5t-97.5 54.5t-67 94t-25 136q0 64 19 125.5t53 115t81 98.5t103 77.5t120 50.5t131 18q33 0 66.5 -4t64.5 -10.5t57 -16t44 -20.5l3 -211h-18l-64 149q-8 19 -14.5 31.5t-14 20t-16 12t-21.5 8.5q-17 5 -40 7t-43 2q-91 0 -163.5 -38.5
t-123.5 -105t-78 -155.5t-27 -191q0 -115 49 -174t142 -59q25 0 46.5 1.5t41.5 6.5t44 26l217 197h18l-138 -221q-18 -8 -44.5 -15.5t-57.5 -13.5t-65 -9.5t-67 -3.5z" />
    <glyph glyph-name="C" unicode="&#x108;" horiz-adv-x="793" 
d="M384 -12q-60 0 -115.5 17.5t-97.5 54.5t-67 94t-25 136q0 64 19 125.5t53 115t81 98.5t103 77.5t120 50.5t131 18q33 0 66.5 -4t64.5 -10.5t57 -16t44 -20.5l3 -211h-18l-64 149q-8 19 -14.5 31.5t-14 20t-16 12t-21.5 8.5q-17 5 -40 7t-43 2q-91 0 -163.5 -38.5
t-123.5 -105t-78 -155.5t-27 -191q0 -115 49 -174t142 -59q25 0 46.5 1.5t41.5 6.5t44 26l217 197h18l-138 -221q-18 -8 -44.5 -15.5t-57.5 -13.5t-65 -9.5t-67 -3.5z" />
    <glyph glyph-name="C" unicode="&#x106;" horiz-adv-x="793" 
d="M384 -12q-60 0 -115.5 17.5t-97.5 54.5t-67 94t-25 136q0 64 19 125.5t53 115t81 98.5t103 77.5t120 50.5t131 18q33 0 66.5 -4t64.5 -10.5t57 -16t44 -20.5l3 -211h-18l-64 149q-8 19 -14.5 31.5t-14 20t-16 12t-21.5 8.5q-17 5 -40 7t-43 2q-91 0 -163.5 -38.5
t-123.5 -105t-78 -155.5t-27 -191q0 -115 49 -174t142 -59q25 0 46.5 1.5t41.5 6.5t44 26l217 197h18l-138 -221q-18 -8 -44.5 -15.5t-57.5 -13.5t-65 -9.5t-67 -3.5z" />
    <glyph glyph-name="C" unicode="&#xc7;" horiz-adv-x="793" 
d="M384 -12q-60 0 -115.5 17.5t-97.5 54.5t-67 94t-25 136q0 64 19 125.5t53 115t81 98.5t103 77.5t120 50.5t131 18q33 0 66.5 -4t64.5 -10.5t57 -16t44 -20.5l3 -211h-18l-64 149q-8 19 -14.5 31.5t-14 20t-16 12t-21.5 8.5q-17 5 -40 7t-43 2q-91 0 -163.5 -38.5
t-123.5 -105t-78 -155.5t-27 -191q0 -115 49 -174t142 -59q25 0 46.5 1.5t41.5 6.5t44 26l217 197h18l-138 -221q-18 -8 -44.5 -15.5t-57.5 -13.5t-65 -9.5t-67 -3.5z" />
    <glyph glyph-name="D" unicode="D" horiz-adv-x="855" 
d="M-15 24l46 3q23 2 36 8.5t20 27.5l193 632q7 21 -3 27.5t-31 8.5l-44 3l8 24h252q92 0 165.5 -17t125.5 -51t79.5 -85.5t27.5 -120.5q0 -100 -44.5 -188t-123 -154t-187 -104t-236.5 -38h-291zM275 31q105 0 192 37.5t149.5 101.5t96.5 149t34 181q0 115 -73.5 171
t-207.5 56h-75l-213 -696h97z" />
    <glyph glyph-name="D" unicode="&#x110;" horiz-adv-x="855" 
d="M-15 24l46 3q23 2 36 8.5t20 27.5l193 632q7 21 -3 27.5t-31 8.5l-44 3l8 24h252q92 0 165.5 -17t125.5 -51t79.5 -85.5t27.5 -120.5q0 -100 -44.5 -188t-123 -154t-187 -104t-236.5 -38h-291zM275 31q105 0 192 37.5t149.5 101.5t96.5 149t34 181q0 115 -73.5 171
t-207.5 56h-75l-213 -696h97z" />
    <glyph glyph-name="D" unicode="&#x10e;" horiz-adv-x="855" 
d="M-15 24l46 3q23 2 36 8.5t20 27.5l193 632q7 21 -3 27.5t-31 8.5l-44 3l8 24h252q92 0 165.5 -17t125.5 -51t79.5 -85.5t27.5 -120.5q0 -100 -44.5 -188t-123 -154t-187 -104t-236.5 -38h-291zM275 31q105 0 192 37.5t149.5 101.5t96.5 149t34 181q0 115 -73.5 171
t-207.5 56h-75l-213 -696h97z" />
    <glyph glyph-name="D" unicode="&#xd0;" horiz-adv-x="855" 
d="M-15 24l46 3q23 2 36 8.5t20 27.5l193 632q7 21 -3 27.5t-31 8.5l-44 3l8 24h252q92 0 165.5 -17t125.5 -51t79.5 -85.5t27.5 -120.5q0 -100 -44.5 -188t-123 -154t-187 -104t-236.5 -38h-291zM275 31q105 0 192 37.5t149.5 101.5t96.5 149t34 181q0 115 -73.5 171
t-207.5 56h-75l-213 -696h97z" />
    <glyph glyph-name="E" unicode="E" horiz-adv-x="751" 
d="M-15 24l46 3q23 2 36.5 8.5t19.5 27.5l194 632q6 21 -3.5 27.5t-30.5 8.5l-44 3l7 24h557l-35 -222h-18l-46 174q-3 11 -7 13.5t-17 2.5h-253l-96 -313h150q13 0 17 2.5t9 10.5l76 118h18l-90 -297h-18l-5 117q0 8 -2.5 10.5t-15.5 2.5h-150l-105 -345h296q12 0 17 2.5
t15 11.5l195 178h18l-137 -224h-605z" />
    <glyph glyph-name="E" unicode="&#x11a;" horiz-adv-x="751" 
d="M-15 24l46 3q23 2 36.5 8.5t19.5 27.5l194 632q6 21 -3.5 27.5t-30.5 8.5l-44 3l7 24h557l-35 -222h-18l-46 174q-3 11 -7 13.5t-17 2.5h-253l-96 -313h150q13 0 17 2.5t9 10.5l76 118h18l-90 -297h-18l-5 117q0 8 -2.5 10.5t-15.5 2.5h-150l-105 -345h296q12 0 17 2.5
t15 11.5l195 178h18l-137 -224h-605z" />
    <glyph glyph-name="E" unicode="&#x118;" horiz-adv-x="751" 
d="M-15 24l46 3q23 2 36.5 8.5t19.5 27.5l194 632q6 21 -3.5 27.5t-30.5 8.5l-44 3l7 24h557l-35 -222h-18l-46 174q-3 11 -7 13.5t-17 2.5h-253l-96 -313h150q13 0 17 2.5t9 10.5l76 118h18l-90 -297h-18l-5 117q0 8 -2.5 10.5t-15.5 2.5h-150l-105 -345h296q12 0 17 2.5
t15 11.5l195 178h18l-137 -224h-605z" />
    <glyph glyph-name="E" unicode="&#x116;" horiz-adv-x="751" 
d="M-15 24l46 3q23 2 36.5 8.5t19.5 27.5l194 632q6 21 -3.5 27.5t-30.5 8.5l-44 3l7 24h557l-35 -222h-18l-46 174q-3 11 -7 13.5t-17 2.5h-253l-96 -313h150q13 0 17 2.5t9 10.5l76 118h18l-90 -297h-18l-5 117q0 8 -2.5 10.5t-15.5 2.5h-150l-105 -345h296q12 0 17 2.5
t15 11.5l195 178h18l-137 -224h-605z" />
    <glyph glyph-name="E" unicode="&#x114;" horiz-adv-x="751" 
d="M-15 24l46 3q23 2 36.5 8.5t19.5 27.5l194 632q6 21 -3.5 27.5t-30.5 8.5l-44 3l7 24h557l-35 -222h-18l-46 174q-3 11 -7 13.5t-17 2.5h-253l-96 -313h150q13 0 17 2.5t9 10.5l76 118h18l-90 -297h-18l-5 117q0 8 -2.5 10.5t-15.5 2.5h-150l-105 -345h296q12 0 17 2.5
t15 11.5l195 178h18l-137 -224h-605z" />
    <glyph glyph-name="E" unicode="&#x112;" horiz-adv-x="751" 
d="M-15 24l46 3q23 2 36.5 8.5t19.5 27.5l194 632q6 21 -3.5 27.5t-30.5 8.5l-44 3l7 24h557l-35 -222h-18l-46 174q-3 11 -7 13.5t-17 2.5h-253l-96 -313h150q13 0 17 2.5t9 10.5l76 118h18l-90 -297h-18l-5 117q0 8 -2.5 10.5t-15.5 2.5h-150l-105 -345h296q12 0 17 2.5
t15 11.5l195 178h18l-137 -224h-605z" />
    <glyph glyph-name="E" unicode="&#xcb;" horiz-adv-x="751" 
d="M-15 24l46 3q23 2 36.5 8.5t19.5 27.5l194 632q6 21 -3.5 27.5t-30.5 8.5l-44 3l7 24h557l-35 -222h-18l-46 174q-3 11 -7 13.5t-17 2.5h-253l-96 -313h150q13 0 17 2.5t9 10.5l76 118h18l-90 -297h-18l-5 117q0 8 -2.5 10.5t-15.5 2.5h-150l-105 -345h296q12 0 17 2.5
t15 11.5l195 178h18l-137 -224h-605z" />
    <glyph glyph-name="E" unicode="&#xca;" horiz-adv-x="751" 
d="M-15 24l46 3q23 2 36.5 8.5t19.5 27.5l194 632q6 21 -3.5 27.5t-30.5 8.5l-44 3l7 24h557l-35 -222h-18l-46 174q-3 11 -7 13.5t-17 2.5h-253l-96 -313h150q13 0 17 2.5t9 10.5l76 118h18l-90 -297h-18l-5 117q0 8 -2.5 10.5t-15.5 2.5h-150l-105 -345h296q12 0 17 2.5
t15 11.5l195 178h18l-137 -224h-605z" />
    <glyph glyph-name="E" unicode="&#xc9;" horiz-adv-x="751" 
d="M-15 24l46 3q23 2 36.5 8.5t19.5 27.5l194 632q6 21 -3.5 27.5t-30.5 8.5l-44 3l7 24h557l-35 -222h-18l-46 174q-3 11 -7 13.5t-17 2.5h-253l-96 -313h150q13 0 17 2.5t9 10.5l76 118h18l-90 -297h-18l-5 117q0 8 -2.5 10.5t-15.5 2.5h-150l-105 -345h296q12 0 17 2.5
t15 11.5l195 178h18l-137 -224h-605z" />
    <glyph glyph-name="E" unicode="&#xc8;" horiz-adv-x="751" 
d="M-15 24l46 3q23 2 36.5 8.5t19.5 27.5l194 632q6 21 -3.5 27.5t-30.5 8.5l-44 3l7 24h557l-35 -222h-18l-46 174q-3 11 -7 13.5t-17 2.5h-253l-96 -313h150q13 0 17 2.5t9 10.5l76 118h18l-90 -297h-18l-5 117q0 8 -2.5 10.5t-15.5 2.5h-150l-105 -345h296q12 0 17 2.5
t15 11.5l195 178h18l-137 -224h-605z" />
    <glyph glyph-name="F" unicode="F" horiz-adv-x="704" 
d="M-15 24l46 3q23 2 36.5 8.5t19.5 27.5l194 632q6 21 -3.5 27.5t-30.5 8.5l-44 3l7 24h590l-34 -222h-18l-47 174q-3 11 -7 13.5t-16 2.5h-287l-96 -313h158q12 0 16.5 2.5t9.5 10.5l75 118h18l-90 -297h-18l-4 117q0 8 -3 10.5t-15 2.5h-158l-96 -314q-6 -21 3.5 -27.5
t32.5 -7.5l85 -2l-8 -26h-323z" />
    <glyph glyph-name="G" unicode="G" horiz-adv-x="875" 
d="M407 -12q-63 0 -121.5 17.5t-104.5 54.5t-73.5 94t-27.5 136q0 97 41.5 184.5t112.5 154.5t164.5 106.5t198.5 39.5q33 0 65.5 -4t62.5 -10.5t55.5 -16t43.5 -20.5l3 -211h-18l-64 149q-8 19 -14.5 31.5t-14 20t-16 12t-21.5 8.5q-17 5 -37.5 7t-40.5 2
q-95 0 -169.5 -38.5t-126 -105t-79 -155.5t-27.5 -191q0 -57 15.5 -100.5t44 -73t68.5 -44t88 -14.5q45 0 93.5 10.5t90.5 29.5l83 224q8 21 -1.5 27.5t-31.5 7.5l-139 3l10 28h378l-10 -30l-91 -1l-77 -206l-21 -71q-42 -5 -78.5 -14t-70.5 -18t-69 -16t-74 -7z" />
    <glyph glyph-name="G" unicode="&#x122;" horiz-adv-x="875" 
d="M407 -12q-63 0 -121.5 17.5t-104.5 54.5t-73.5 94t-27.5 136q0 97 41.5 184.5t112.5 154.5t164.5 106.5t198.5 39.5q33 0 65.5 -4t62.5 -10.5t55.5 -16t43.5 -20.5l3 -211h-18l-64 149q-8 19 -14.5 31.5t-14 20t-16 12t-21.5 8.5q-17 5 -37.5 7t-40.5 2
q-95 0 -169.5 -38.5t-126 -105t-79 -155.5t-27.5 -191q0 -57 15.5 -100.5t44 -73t68.5 -44t88 -14.5q45 0 93.5 10.5t90.5 29.5l83 224q8 21 -1.5 27.5t-31.5 7.5l-139 3l10 28h378l-10 -30l-91 -1l-77 -206l-21 -71q-42 -5 -78.5 -14t-70.5 -18t-69 -16t-74 -7z" />
    <glyph glyph-name="G" unicode="&#x120;" horiz-adv-x="875" 
d="M407 -12q-63 0 -121.5 17.5t-104.5 54.5t-73.5 94t-27.5 136q0 97 41.5 184.5t112.5 154.5t164.5 106.5t198.5 39.5q33 0 65.5 -4t62.5 -10.5t55.5 -16t43.5 -20.5l3 -211h-18l-64 149q-8 19 -14.5 31.5t-14 20t-16 12t-21.5 8.5q-17 5 -37.5 7t-40.5 2
q-95 0 -169.5 -38.5t-126 -105t-79 -155.5t-27.5 -191q0 -57 15.5 -100.5t44 -73t68.5 -44t88 -14.5q45 0 93.5 10.5t90.5 29.5l83 224q8 21 -1.5 27.5t-31.5 7.5l-139 3l10 28h378l-10 -30l-91 -1l-77 -206l-21 -71q-42 -5 -78.5 -14t-70.5 -18t-69 -16t-74 -7z" />
    <glyph glyph-name="G" unicode="&#x11e;" horiz-adv-x="875" 
d="M407 -12q-63 0 -121.5 17.5t-104.5 54.5t-73.5 94t-27.5 136q0 97 41.5 184.5t112.5 154.5t164.5 106.5t198.5 39.5q33 0 65.5 -4t62.5 -10.5t55.5 -16t43.5 -20.5l3 -211h-18l-64 149q-8 19 -14.5 31.5t-14 20t-16 12t-21.5 8.5q-17 5 -37.5 7t-40.5 2
q-95 0 -169.5 -38.5t-126 -105t-79 -155.5t-27.5 -191q0 -57 15.5 -100.5t44 -73t68.5 -44t88 -14.5q45 0 93.5 10.5t90.5 29.5l83 224q8 21 -1.5 27.5t-31.5 7.5l-139 3l10 28h378l-10 -30l-91 -1l-77 -206l-21 -71q-42 -5 -78.5 -14t-70.5 -18t-69 -16t-74 -7z" />
    <glyph glyph-name="G" unicode="&#x11c;" horiz-adv-x="875" 
d="M407 -12q-63 0 -121.5 17.5t-104.5 54.5t-73.5 94t-27.5 136q0 97 41.5 184.5t112.5 154.5t164.5 106.5t198.5 39.5q33 0 65.5 -4t62.5 -10.5t55.5 -16t43.5 -20.5l3 -211h-18l-64 149q-8 19 -14.5 31.5t-14 20t-16 12t-21.5 8.5q-17 5 -37.5 7t-40.5 2
q-95 0 -169.5 -38.5t-126 -105t-79 -155.5t-27.5 -191q0 -57 15.5 -100.5t44 -73t68.5 -44t88 -14.5q45 0 93.5 10.5t90.5 29.5l83 224q8 21 -1.5 27.5t-31.5 7.5l-139 3l10 28h378l-10 -30l-91 -1l-77 -206l-21 -71q-42 -5 -78.5 -14t-70.5 -18t-69 -16t-74 -7z" />
    <glyph glyph-name="H" unicode="H" horiz-adv-x="898" 
d="M-15 24l46 3q23 2 36 8.5t20 27.5l193 632q7 21 -3 27.5t-31 8.5l-44 3l8 24h282l-8 -24l-46 -3q-23 -2 -36.5 -8.5t-19.5 -27.5l-84 -277h406l85 277q7 21 -3 27.5t-32 8.5l-43 3l7 24h282l-7 -24l-46 -3q-23 -2 -36.5 -8.5t-20.5 -27.5l-193 -632q-7 -21 3 -27.5
t31 -8.5l44 -3l-7 -24h-282l7 24l46 3q23 2 36 8.5t20 27.5l97 315h-407l-97 -315q-7 -21 3 -27.5t32 -8.5l44 -3l-7 -24h-282z" />
    <glyph glyph-name="H" unicode="&#x126;" horiz-adv-x="898" 
d="M-15 24l46 3q23 2 36 8.5t20 27.5l193 632q7 21 -3 27.5t-31 8.5l-44 3l8 24h282l-8 -24l-46 -3q-23 -2 -36.5 -8.5t-19.5 -27.5l-84 -277h406l85 277q7 21 -3 27.5t-32 8.5l-43 3l7 24h282l-7 -24l-46 -3q-23 -2 -36.5 -8.5t-20.5 -27.5l-193 -632q-7 -21 3 -27.5
t31 -8.5l44 -3l-7 -24h-282l7 24l46 3q23 2 36 8.5t20 27.5l97 315h-407l-97 -315q-7 -21 3 -27.5t32 -8.5l44 -3l-7 -24h-282z" />
    <glyph glyph-name="H" unicode="&#x124;" horiz-adv-x="898" 
d="M-15 24l46 3q23 2 36 8.5t20 27.5l193 632q7 21 -3 27.5t-31 8.5l-44 3l8 24h282l-8 -24l-46 -3q-23 -2 -36.5 -8.5t-19.5 -27.5l-84 -277h406l85 277q7 21 -3 27.5t-32 8.5l-43 3l7 24h282l-7 -24l-46 -3q-23 -2 -36.5 -8.5t-20.5 -27.5l-193 -632q-7 -21 3 -27.5
t31 -8.5l44 -3l-7 -24h-282l7 24l46 3q23 2 36 8.5t20 27.5l97 315h-407l-97 -315q-7 -21 3 -27.5t32 -8.5l44 -3l-7 -24h-282z" />
    <glyph glyph-name="I" unicode="I" horiz-adv-x="389" 
d="M-15 24l46 3q23 2 36 8.5t20 27.5l193 632q7 21 -3 27.5t-31 8.5l-44 3l8 24h282l-8 -24l-46 -3q-23 -2 -36 -8.5t-20 -27.5l-194 -632q-7 -21 3 -27.5t32 -8.5l44 -3l-7 -24h-282z" />
    <glyph glyph-name="I" unicode="&#x1eca;" horiz-adv-x="389" 
d="M-15 24l46 3q23 2 36 8.5t20 27.5l193 632q7 21 -3 27.5t-31 8.5l-44 3l8 24h282l-8 -24l-46 -3q-23 -2 -36 -8.5t-20 -27.5l-194 -632q-7 -21 3 -27.5t32 -8.5l44 -3l-7 -24h-282z" />
    <glyph glyph-name="I" unicode="&#x130;" horiz-adv-x="389" 
d="M-15 24l46 3q23 2 36 8.5t20 27.5l193 632q7 21 -3 27.5t-31 8.5l-44 3l8 24h282l-8 -24l-46 -3q-23 -2 -36 -8.5t-20 -27.5l-194 -632q-7 -21 3 -27.5t32 -8.5l44 -3l-7 -24h-282z" />
    <glyph glyph-name="I" unicode="&#x12e;" horiz-adv-x="389" 
d="M-15 24l46 3q23 2 36 8.5t20 27.5l193 632q7 21 -3 27.5t-31 8.5l-44 3l8 24h282l-8 -24l-46 -3q-23 -2 -36 -8.5t-20 -27.5l-194 -632q-7 -21 3 -27.5t32 -8.5l44 -3l-7 -24h-282z" />
    <glyph glyph-name="I" unicode="&#x12c;" horiz-adv-x="389" 
d="M-15 24l46 3q23 2 36 8.5t20 27.5l193 632q7 21 -3 27.5t-31 8.5l-44 3l8 24h282l-8 -24l-46 -3q-23 -2 -36 -8.5t-20 -27.5l-194 -632q-7 -21 3 -27.5t32 -8.5l44 -3l-7 -24h-282z" />
    <glyph glyph-name="I" unicode="&#x12a;" horiz-adv-x="389" 
d="M-15 24l46 3q23 2 36 8.5t20 27.5l193 632q7 21 -3 27.5t-31 8.5l-44 3l8 24h282l-8 -24l-46 -3q-23 -2 -36 -8.5t-20 -27.5l-194 -632q-7 -21 3 -27.5t32 -8.5l44 -3l-7 -24h-282z" />
    <glyph glyph-name="I" unicode="&#x128;" horiz-adv-x="389" 
d="M-15 24l46 3q23 2 36 8.5t20 27.5l193 632q7 21 -3 27.5t-31 8.5l-44 3l8 24h282l-8 -24l-46 -3q-23 -2 -36 -8.5t-20 -27.5l-194 -632q-7 -21 3 -27.5t32 -8.5l44 -3l-7 -24h-282z" />
    <glyph glyph-name="I" unicode="&#xcf;" horiz-adv-x="389" 
d="M-15 24l46 3q23 2 36 8.5t20 27.5l193 632q7 21 -3 27.5t-31 8.5l-44 3l8 24h282l-8 -24l-46 -3q-23 -2 -36 -8.5t-20 -27.5l-194 -632q-7 -21 3 -27.5t32 -8.5l44 -3l-7 -24h-282z" />
    <glyph glyph-name="I" unicode="&#xce;" horiz-adv-x="389" 
d="M-15 24l46 3q23 2 36 8.5t20 27.5l193 632q7 21 -3 27.5t-31 8.5l-44 3l8 24h282l-8 -24l-46 -3q-23 -2 -36 -8.5t-20 -27.5l-194 -632q-7 -21 3 -27.5t32 -8.5l44 -3l-7 -24h-282z" />
    <glyph glyph-name="I" unicode="&#xcd;" horiz-adv-x="389" 
d="M-15 24l46 3q23 2 36 8.5t20 27.5l193 632q7 21 -3 27.5t-31 8.5l-44 3l8 24h282l-8 -24l-46 -3q-23 -2 -36 -8.5t-20 -27.5l-194 -632q-7 -21 3 -27.5t32 -8.5l44 -3l-7 -24h-282z" />
    <glyph glyph-name="I" unicode="&#xcc;" horiz-adv-x="389" 
d="M-15 24l46 3q23 2 36 8.5t20 27.5l193 632q7 21 -3 27.5t-31 8.5l-44 3l8 24h282l-8 -24l-46 -3q-23 -2 -36 -8.5t-20 -27.5l-194 -632q-7 -21 3 -27.5t32 -8.5l44 -3l-7 -24h-282z" />
    <glyph glyph-name="J" unicode="J" horiz-adv-x="388" 
d="M-103 -91q59 37 96 62t61 49.5t39 53.5t29 74l168 549q6 20 -3 25.5t-31 6.5l-50 2l9 27h289l-8 -27l-51 -2q-23 -1 -35 -6.5t-18 -25.5l-161 -522q-12 -41 -24.5 -69t-30.5 -50.5t-44.5 -43t-66.5 -45.5q-13 -8 -32 -18.5t-40.5 -22t-43 -22t-39.5 -19.5z" />
    <glyph glyph-name="J" unicode="&#x134;" horiz-adv-x="388" 
d="M-103 -91q59 37 96 62t61 49.5t39 53.5t29 74l168 549q6 20 -3 25.5t-31 6.5l-50 2l9 27h289l-8 -27l-51 -2q-23 -1 -35 -6.5t-18 -25.5l-161 -522q-12 -41 -24.5 -69t-30.5 -50.5t-44.5 -43t-66.5 -45.5q-13 -8 -32 -18.5t-40.5 -22t-43 -22t-39.5 -19.5z" />
    <glyph glyph-name="K" unicode="K" horiz-adv-x="828" 
d="M-15 24l46 3q23 2 36 8.5t20 27.5l193 632q7 21 -3 27.5t-31 8.5l-44 3l8 24h282l-8 -24l-46 -3q-23 -2 -36 -8.5t-20 -27.5l-96 -314l490 326q13 9 9 15.5t-28 8.5l-63 3l8 24h270l-7 -24l-53 -3q-30 -2 -48 -8.5t-39 -20.5l-437 -290l369 -412h-127l-346 376l-96 -313
q-7 -21 3 -27.5t32 -8.5l44 -3l-7 -24h-282z" />
    <glyph glyph-name="K" unicode="&#x136;" horiz-adv-x="828" 
d="M-15 24l46 3q23 2 36 8.5t20 27.5l193 632q7 21 -3 27.5t-31 8.5l-44 3l8 24h282l-8 -24l-46 -3q-23 -2 -36 -8.5t-20 -27.5l-96 -314l490 326q13 9 9 15.5t-28 8.5l-63 3l8 24h270l-7 -24l-53 -3q-30 -2 -48 -8.5t-39 -20.5l-437 -290l369 -412h-127l-346 376l-96 -313
q-7 -21 3 -27.5t32 -8.5l44 -3l-7 -24h-282z" />
    <glyph glyph-name="L" unicode="L" horiz-adv-x="701" 
d="M-15 24l46 3q23 2 36.5 8.5t19.5 27.5l194 632q6 21 -3.5 27.5t-30.5 8.5l-44 3l7 24h282l-7 -24l-46 -3q-23 -2 -37 -8.5t-20 -27.5l-203 -663h257q12 0 17 2.5t15 11.5l195 178h18l-137 -224h-566z" />
    <glyph glyph-name="L" unicode="&#x141;" horiz-adv-x="701" 
d="M-15 24l46 3q23 2 36.5 8.5t19.5 27.5l194 632q6 21 -3.5 27.5t-30.5 8.5l-44 3l7 24h282l-7 -24l-46 -3q-23 -2 -37 -8.5t-20 -27.5l-203 -663h257q12 0 17 2.5t15 11.5l195 178h18l-137 -224h-566z" />
    <glyph glyph-name="L" unicode="&#x13f;" horiz-adv-x="701" 
d="M-15 24l46 3q23 2 36.5 8.5t19.5 27.5l194 632q6 21 -3.5 27.5t-30.5 8.5l-44 3l7 24h282l-7 -24l-46 -3q-23 -2 -37 -8.5t-20 -27.5l-203 -663h257q12 0 17 2.5t15 11.5l195 178h18l-137 -224h-566z" />
    <glyph glyph-name="L" unicode="&#x13d;" horiz-adv-x="701" 
d="M-15 24l46 3q23 2 36.5 8.5t19.5 27.5l194 632q6 21 -3.5 27.5t-30.5 8.5l-44 3l7 24h282l-7 -24l-46 -3q-23 -2 -37 -8.5t-20 -27.5l-203 -663h257q12 0 17 2.5t15 11.5l195 178h18l-137 -224h-566z" />
    <glyph glyph-name="L" unicode="&#x13b;" horiz-adv-x="701" 
d="M-15 24l46 3q23 2 36.5 8.5t19.5 27.5l194 632q6 21 -3.5 27.5t-30.5 8.5l-44 3l7 24h282l-7 -24l-46 -3q-23 -2 -37 -8.5t-20 -27.5l-203 -663h257q12 0 17 2.5t15 11.5l195 178h18l-137 -224h-566z" />
    <glyph glyph-name="L" unicode="&#x139;" horiz-adv-x="701" 
d="M-15 24l46 3q23 2 36.5 8.5t19.5 27.5l194 632q6 21 -3.5 27.5t-30.5 8.5l-44 3l7 24h282l-7 -24l-46 -3q-23 -2 -37 -8.5t-20 -27.5l-203 -663h257q12 0 17 2.5t15 11.5l195 178h18l-137 -224h-566z" />
    <glyph glyph-name="M" unicode="M" horiz-adv-x="1032" 
d="M-15 24l46 3q23 2 36 8.5t20 27.5l193 632q7 21 -3 27.5t-31 8.5l-44 3l8 24h209l103 -488l399 488h213l-8 -24l-46 -3q-23 -2 -36 -8.5t-20 -27.5l-194 -632q-7 -21 3 -27.5t32 -8.5l44 -3l-7 -24h-282l7 24l46 3q23 2 36 8.5t20 27.5l199 653l-477 -588h-6l-120 587
l-199 -652q-7 -21 3 -27.5t31 -8.5l44 -3l-7 -24h-219z" />
    <glyph glyph-name="N" unicode="N" horiz-adv-x="885" 
d="M315 682l-189 -619q-7 -21 3 -27.5t31 -8.5l44 -3l-7 -24h-219l7 24l46 3q23 2 36 8.5t20 27.5l194 632q7 21 -3 27.5t-31 8.5l-44 3l7 24h183l292 -590l163 527q7 21 -3 27.5t-31 8.5l-44 3l8 24h219l-8 -24l-46 -3q-23 -2 -36 -8.5t-20 -27.5l-218 -714h-3z" />
    <glyph glyph-name="N" unicode="&#x14a;" horiz-adv-x="885" 
d="M315 682l-189 -619q-7 -21 3 -27.5t31 -8.5l44 -3l-7 -24h-219l7 24l46 3q23 2 36 8.5t20 27.5l194 632q7 21 -3 27.5t-31 8.5l-44 3l7 24h183l292 -590l163 527q7 21 -3 27.5t-31 8.5l-44 3l8 24h219l-8 -24l-46 -3q-23 -2 -36 -8.5t-20 -27.5l-218 -714h-3z" />
    <glyph glyph-name="N" unicode="&#x147;" horiz-adv-x="885" 
d="M315 682l-189 -619q-7 -21 3 -27.5t31 -8.5l44 -3l-7 -24h-219l7 24l46 3q23 2 36 8.5t20 27.5l194 632q7 21 -3 27.5t-31 8.5l-44 3l7 24h183l292 -590l163 527q7 21 -3 27.5t-31 8.5l-44 3l8 24h219l-8 -24l-46 -3q-23 -2 -36 -8.5t-20 -27.5l-218 -714h-3z" />
    <glyph glyph-name="N" unicode="&#x145;" horiz-adv-x="885" 
d="M315 682l-189 -619q-7 -21 3 -27.5t31 -8.5l44 -3l-7 -24h-219l7 24l46 3q23 2 36 8.5t20 27.5l194 632q7 21 -3 27.5t-31 8.5l-44 3l7 24h183l292 -590l163 527q7 21 -3 27.5t-31 8.5l-44 3l8 24h219l-8 -24l-46 -3q-23 -2 -36 -8.5t-20 -27.5l-218 -714h-3z" />
    <glyph glyph-name="N" unicode="&#x143;" horiz-adv-x="885" 
d="M315 682l-189 -619q-7 -21 3 -27.5t31 -8.5l44 -3l-7 -24h-219l7 24l46 3q23 2 36 8.5t20 27.5l194 632q7 21 -3 27.5t-31 8.5l-44 3l7 24h183l292 -590l163 527q7 21 -3 27.5t-31 8.5l-44 3l8 24h219l-8 -24l-46 -3q-23 -2 -36 -8.5t-20 -27.5l-218 -714h-3z" />
    <glyph glyph-name="N" unicode="&#xd1;" horiz-adv-x="885" 
d="M315 682l-189 -619q-7 -21 3 -27.5t31 -8.5l44 -3l-7 -24h-219l7 24l46 3q23 2 36 8.5t20 27.5l194 632q7 21 -3 27.5t-31 8.5l-44 3l7 24h183l292 -590l163 527q7 21 -3 27.5t-31 8.5l-44 3l8 24h219l-8 -24l-46 -3q-23 -2 -36 -8.5t-20 -27.5l-218 -714h-3z" />
    <glyph glyph-name="O" unicode="O" 
d="M371 -12q-61 0 -115.5 19t-95 55t-64 89t-23.5 121q0 56 17.5 115.5t49.5 115t78 105t104 87t125.5 59t143.5 21.5q61 0 115.5 -19t95 -55t64 -89t23.5 -121q0 -56 -17.5 -115.5t-49.5 -115t-78 -105t-103.5 -87t-125.5 -59t-144 -21.5zM389 17q77 0 146.5 39t122 105
t83 152t30.5 180q0 57 -13 103.5t-38.5 79.5t-62 51t-84.5 18q-77 0 -146.5 -39t-122 -104.5t-83 -151.5t-30.5 -180q0 -57 13 -104t38.5 -80t62 -51t84.5 -18z" />
    <glyph glyph-name="O" unicode="&#x1ecc;" 
d="M371 -12q-61 0 -115.5 19t-95 55t-64 89t-23.5 121q0 56 17.5 115.5t49.5 115t78 105t104 87t125.5 59t143.5 21.5q61 0 115.5 -19t95 -55t64 -89t23.5 -121q0 -56 -17.5 -115.5t-49.5 -115t-78 -105t-103.5 -87t-125.5 -59t-144 -21.5zM389 17q77 0 146.5 39t122 105
t83 152t30.5 180q0 57 -13 103.5t-38.5 79.5t-62 51t-84.5 18q-77 0 -146.5 -39t-122 -104.5t-83 -151.5t-30.5 -180q0 -57 13 -104t38.5 -80t62 -51t84.5 -18z" />
    <glyph glyph-name="O" unicode="&#x152;" 
d="M371 -12q-61 0 -115.5 19t-95 55t-64 89t-23.5 121q0 56 17.5 115.5t49.5 115t78 105t104 87t125.5 59t143.5 21.5q61 0 115.5 -19t95 -55t64 -89t23.5 -121q0 -56 -17.5 -115.5t-49.5 -115t-78 -105t-103.5 -87t-125.5 -59t-144 -21.5zM389 17q77 0 146.5 39t122 105
t83 152t30.5 180q0 57 -13 103.5t-38.5 79.5t-62 51t-84.5 18q-77 0 -146.5 -39t-122 -104.5t-83 -151.5t-30.5 -180q0 -57 13 -104t38.5 -80t62 -51t84.5 -18z" />
    <glyph glyph-name="O" unicode="&#x150;" 
d="M371 -12q-61 0 -115.5 19t-95 55t-64 89t-23.5 121q0 56 17.5 115.5t49.5 115t78 105t104 87t125.5 59t143.5 21.5q61 0 115.5 -19t95 -55t64 -89t23.5 -121q0 -56 -17.5 -115.5t-49.5 -115t-78 -105t-103.5 -87t-125.5 -59t-144 -21.5zM389 17q77 0 146.5 39t122 105
t83 152t30.5 180q0 57 -13 103.5t-38.5 79.5t-62 51t-84.5 18q-77 0 -146.5 -39t-122 -104.5t-83 -151.5t-30.5 -180q0 -57 13 -104t38.5 -80t62 -51t84.5 -18z" />
    <glyph glyph-name="O" unicode="&#x14e;" 
d="M371 -12q-61 0 -115.5 19t-95 55t-64 89t-23.5 121q0 56 17.5 115.5t49.5 115t78 105t104 87t125.5 59t143.5 21.5q61 0 115.5 -19t95 -55t64 -89t23.5 -121q0 -56 -17.5 -115.5t-49.5 -115t-78 -105t-103.5 -87t-125.5 -59t-144 -21.5zM389 17q77 0 146.5 39t122 105
t83 152t30.5 180q0 57 -13 103.5t-38.5 79.5t-62 51t-84.5 18q-77 0 -146.5 -39t-122 -104.5t-83 -151.5t-30.5 -180q0 -57 13 -104t38.5 -80t62 -51t84.5 -18z" />
    <glyph glyph-name="O" unicode="&#x14c;" 
d="M371 -12q-61 0 -115.5 19t-95 55t-64 89t-23.5 121q0 56 17.5 115.5t49.5 115t78 105t104 87t125.5 59t143.5 21.5q61 0 115.5 -19t95 -55t64 -89t23.5 -121q0 -56 -17.5 -115.5t-49.5 -115t-78 -105t-103.5 -87t-125.5 -59t-144 -21.5zM389 17q77 0 146.5 39t122 105
t83 152t30.5 180q0 57 -13 103.5t-38.5 79.5t-62 51t-84.5 18q-77 0 -146.5 -39t-122 -104.5t-83 -151.5t-30.5 -180q0 -57 13 -104t38.5 -80t62 -51t84.5 -18z" />
    <glyph glyph-name="O" unicode="&#xd8;" 
d="M371 -12q-61 0 -115.5 19t-95 55t-64 89t-23.5 121q0 56 17.5 115.5t49.5 115t78 105t104 87t125.5 59t143.5 21.5q61 0 115.5 -19t95 -55t64 -89t23.5 -121q0 -56 -17.5 -115.5t-49.5 -115t-78 -105t-103.5 -87t-125.5 -59t-144 -21.5zM389 17q77 0 146.5 39t122 105
t83 152t30.5 180q0 57 -13 103.5t-38.5 79.5t-62 51t-84.5 18q-77 0 -146.5 -39t-122 -104.5t-83 -151.5t-30.5 -180q0 -57 13 -104t38.5 -80t62 -51t84.5 -18z" />
    <glyph glyph-name="O" unicode="&#xd6;" 
d="M371 -12q-61 0 -115.5 19t-95 55t-64 89t-23.5 121q0 56 17.5 115.5t49.5 115t78 105t104 87t125.5 59t143.5 21.5q61 0 115.5 -19t95 -55t64 -89t23.5 -121q0 -56 -17.5 -115.5t-49.5 -115t-78 -105t-103.5 -87t-125.5 -59t-144 -21.5zM389 17q77 0 146.5 39t122 105
t83 152t30.5 180q0 57 -13 103.5t-38.5 79.5t-62 51t-84.5 18q-77 0 -146.5 -39t-122 -104.5t-83 -151.5t-30.5 -180q0 -57 13 -104t38.5 -80t62 -51t84.5 -18z" />
    <glyph glyph-name="O" unicode="&#xd5;" 
d="M371 -12q-61 0 -115.5 19t-95 55t-64 89t-23.5 121q0 56 17.5 115.5t49.5 115t78 105t104 87t125.5 59t143.5 21.5q61 0 115.5 -19t95 -55t64 -89t23.5 -121q0 -56 -17.5 -115.5t-49.5 -115t-78 -105t-103.5 -87t-125.5 -59t-144 -21.5zM389 17q77 0 146.5 39t122 105
t83 152t30.5 180q0 57 -13 103.5t-38.5 79.5t-62 51t-84.5 18q-77 0 -146.5 -39t-122 -104.5t-83 -151.5t-30.5 -180q0 -57 13 -104t38.5 -80t62 -51t84.5 -18z" />
    <glyph glyph-name="O" unicode="&#xd4;" 
d="M371 -12q-61 0 -115.5 19t-95 55t-64 89t-23.5 121q0 56 17.5 115.5t49.5 115t78 105t104 87t125.5 59t143.5 21.5q61 0 115.5 -19t95 -55t64 -89t23.5 -121q0 -56 -17.5 -115.5t-49.5 -115t-78 -105t-103.5 -87t-125.5 -59t-144 -21.5zM389 17q77 0 146.5 39t122 105
t83 152t30.5 180q0 57 -13 103.5t-38.5 79.5t-62 51t-84.5 18q-77 0 -146.5 -39t-122 -104.5t-83 -151.5t-30.5 -180q0 -57 13 -104t38.5 -80t62 -51t84.5 -18z" />
    <glyph glyph-name="O" unicode="&#xd3;" 
d="M371 -12q-61 0 -115.5 19t-95 55t-64 89t-23.5 121q0 56 17.5 115.5t49.5 115t78 105t104 87t125.5 59t143.5 21.5q61 0 115.5 -19t95 -55t64 -89t23.5 -121q0 -56 -17.5 -115.5t-49.5 -115t-78 -105t-103.5 -87t-125.5 -59t-144 -21.5zM389 17q77 0 146.5 39t122 105
t83 152t30.5 180q0 57 -13 103.5t-38.5 79.5t-62 51t-84.5 18q-77 0 -146.5 -39t-122 -104.5t-83 -151.5t-30.5 -180q0 -57 13 -104t38.5 -80t62 -51t84.5 -18z" />
    <glyph glyph-name="O" unicode="&#xd2;" 
d="M371 -12q-61 0 -115.5 19t-95 55t-64 89t-23.5 121q0 56 17.5 115.5t49.5 115t78 105t104 87t125.5 59t143.5 21.5q61 0 115.5 -19t95 -55t64 -89t23.5 -121q0 -56 -17.5 -115.5t-49.5 -115t-78 -105t-103.5 -87t-125.5 -59t-144 -21.5zM389 17q77 0 146.5 39t122 105
t83 152t30.5 180q0 57 -13 103.5t-38.5 79.5t-62 51t-84.5 18q-77 0 -146.5 -39t-122 -104.5t-83 -151.5t-30.5 -180q0 -57 13 -104t38.5 -80t62 -51t84.5 -18z" />
    <glyph glyph-name="P" unicode="P" horiz-adv-x="725" 
d="M-15 24l46 3q23 2 36 8.5t20 27.5l193 632q7 21 -3 27.5t-31 8.5l-44 3l8 24h309q58 0 108.5 -7t87.5 -24.5t58.5 -46.5t21.5 -73q0 -54 -25.5 -100.5t-75 -81.5t-123 -55t-170.5 -20h-99l9 32h94q70 0 122 19t86.5 50.5t51.5 73t17 85.5q0 64 -47 90.5t-125 26.5h-119
l-203 -664q-7 -21 3 -27.5t32 -7.5l86 -3l-8 -25h-323z" />
    <glyph glyph-name="P" unicode="&#xde;" horiz-adv-x="725" 
d="M-15 24l46 3q23 2 36 8.5t20 27.5l193 632q7 21 -3 27.5t-31 8.5l-44 3l8 24h309q58 0 108.5 -7t87.5 -24.5t58.5 -46.5t21.5 -73q0 -54 -25.5 -100.5t-75 -81.5t-123 -55t-170.5 -20h-99l9 32h94q70 0 122 19t86.5 50.5t51.5 73t17 85.5q0 64 -47 90.5t-125 26.5h-119
l-203 -664q-7 -21 3 -27.5t32 -7.5l86 -3l-8 -25h-323z" />
    <glyph glyph-name="Q" unicode="Q" 
d="M371 -12q-16 0 -30.5 1.5t-29.5 3.5l-210 -75q30 8 59 10t41 2q58 0 99 -13.5t74.5 -29t64.5 -29t70 -13.5q22 0 44.5 5t44.5 18t43.5 34.5t43.5 53.5l22 -13q-54 -88 -113.5 -134t-116.5 -46q-33 0 -60 10.5t-51.5 27t-47 35t-47 35t-52 27t-61.5 10.5q-18 0 -35 -2.5
t-31 -8.5q-9 -28 -22.5 -39.5t-28.5 -11.5q-11 0 -17.5 6.5t-6.5 16.5q0 19 31 41t112 51l113 40q-44 13 -80.5 36.5t-63 58t-41.5 78.5t-15 98q0 56 17.5 115.5t49.5 115t78 105t104 87t125.5 59t143.5 21.5q61 0 115.5 -19t95 -55t64 -89t23.5 -121q0 -56 -17.5 -115.5
t-49.5 -115t-78 -105t-103.5 -87t-125.5 -59t-144 -21.5zM389 17q77 0 146.5 39t122 105t83 152t30.5 180q0 57 -13 103.5t-38.5 79.5t-62 51t-84.5 18q-77 0 -146.5 -39t-122 -104.5t-83 -151.5t-30.5 -180q0 -57 13 -104t38.5 -80t62 -51t84.5 -18z" />
    <glyph glyph-name="R" unicode="R" horiz-adv-x="770" 
d="M-15 24l46 3q23 2 36 8.5t20 27.5l193 632q7 21 -3 27.5t-31 8.5l-44 3l8 24h280q61 0 111.5 -8.5t86.5 -26.5t55.5 -46.5t19.5 -68.5q0 -45 -19.5 -83t-57 -67.5t-91.5 -48t-123 -24.5l259 -385h-123l-248 373h-76l-96 -310q-7 -21 3 -27.5t32 -8.5l44 -3l-7 -24h-282z
M382 404q68 0 118.5 17t83.5 46t49.5 67t16.5 80q0 61 -46 87t-124 26h-89l-98 -323h89z" />
    <glyph glyph-name="R" unicode="&#x158;" horiz-adv-x="770" 
d="M-15 24l46 3q23 2 36 8.5t20 27.5l193 632q7 21 -3 27.5t-31 8.5l-44 3l8 24h280q61 0 111.5 -8.5t86.5 -26.5t55.5 -46.5t19.5 -68.5q0 -45 -19.5 -83t-57 -67.5t-91.5 -48t-123 -24.5l259 -385h-123l-248 373h-76l-96 -310q-7 -21 3 -27.5t32 -8.5l44 -3l-7 -24h-282z
M382 404q68 0 118.5 17t83.5 46t49.5 67t16.5 80q0 61 -46 87t-124 26h-89l-98 -323h89z" />
    <glyph glyph-name="R" unicode="&#x156;" horiz-adv-x="770" 
d="M-15 24l46 3q23 2 36 8.5t20 27.5l193 632q7 21 -3 27.5t-31 8.5l-44 3l8 24h280q61 0 111.5 -8.5t86.5 -26.5t55.5 -46.5t19.5 -68.5q0 -45 -19.5 -83t-57 -67.5t-91.5 -48t-123 -24.5l259 -385h-123l-248 373h-76l-96 -310q-7 -21 3 -27.5t32 -8.5l44 -3l-7 -24h-282z
M382 404q68 0 118.5 17t83.5 46t49.5 67t16.5 80q0 61 -46 87t-124 26h-89l-98 -323h89z" />
    <glyph glyph-name="R" unicode="&#x154;" horiz-adv-x="770" 
d="M-15 24l46 3q23 2 36 8.5t20 27.5l193 632q7 21 -3 27.5t-31 8.5l-44 3l8 24h280q61 0 111.5 -8.5t86.5 -26.5t55.5 -46.5t19.5 -68.5q0 -45 -19.5 -83t-57 -67.5t-91.5 -48t-123 -24.5l259 -385h-123l-248 373h-76l-96 -310q-7 -21 3 -27.5t32 -8.5l44 -3l-7 -24h-282z
M382 404q68 0 118.5 17t83.5 46t49.5 67t16.5 80q0 61 -46 87t-124 26h-89l-98 -323h89z" />
    <glyph glyph-name="S" unicode="S" horiz-adv-x="609" 
d="M202 -12q-24 0 -50.5 3.5t-53.5 10.5t-53 17.5t-48 24.5l58 205h18l20 -176q2 -20 12 -28.5t18 -11.5q40 -14 96 -14q35 0 71.5 9.5t66.5 29t49.5 49t19.5 68.5q0 43 -18 77.5t-55 78.5l-67 78q-33 39 -53 76.5t-20 82.5q0 47 22.5 85t60 65t85 42t97.5 15
q62 0 111.5 -13t81.5 -37l-39 -188h-18l-37 160q-4 17 -10.5 24.5t-17.5 11.5q-14 5 -30.5 7.5t-34.5 2.5q-32 0 -64 -7.5t-57.5 -22.5t-41.5 -38.5t-16 -54.5q0 -41 17 -68.5t41 -56.5l67 -78q21 -24 38.5 -46t30 -43.5t20 -44t7.5 -48.5q0 -47 -23.5 -91.5t-66.5 -79
t-102.5 -55.5t-131.5 -21z" />
    <glyph glyph-name="S" unicode="&#x218;" horiz-adv-x="609" 
d="M202 -12q-24 0 -50.5 3.5t-53.5 10.5t-53 17.5t-48 24.5l58 205h18l20 -176q2 -20 12 -28.5t18 -11.5q40 -14 96 -14q35 0 71.5 9.5t66.5 29t49.5 49t19.5 68.5q0 43 -18 77.5t-55 78.5l-67 78q-33 39 -53 76.5t-20 82.5q0 47 22.5 85t60 65t85 42t97.5 15
q62 0 111.5 -13t81.5 -37l-39 -188h-18l-37 160q-4 17 -10.5 24.5t-17.5 11.5q-14 5 -30.5 7.5t-34.5 2.5q-32 0 -64 -7.5t-57.5 -22.5t-41.5 -38.5t-16 -54.5q0 -41 17 -68.5t41 -56.5l67 -78q21 -24 38.5 -46t30 -43.5t20 -44t7.5 -48.5q0 -47 -23.5 -91.5t-66.5 -79
t-102.5 -55.5t-131.5 -21z" />
    <glyph glyph-name="S" unicode="&#x160;" horiz-adv-x="609" 
d="M202 -12q-24 0 -50.5 3.5t-53.5 10.5t-53 17.5t-48 24.5l58 205h18l20 -176q2 -20 12 -28.5t18 -11.5q40 -14 96 -14q35 0 71.5 9.5t66.5 29t49.5 49t19.5 68.5q0 43 -18 77.5t-55 78.5l-67 78q-33 39 -53 76.5t-20 82.5q0 47 22.5 85t60 65t85 42t97.5 15
q62 0 111.5 -13t81.5 -37l-39 -188h-18l-37 160q-4 17 -10.5 24.5t-17.5 11.5q-14 5 -30.5 7.5t-34.5 2.5q-32 0 -64 -7.5t-57.5 -22.5t-41.5 -38.5t-16 -54.5q0 -41 17 -68.5t41 -56.5l67 -78q21 -24 38.5 -46t30 -43.5t20 -44t7.5 -48.5q0 -47 -23.5 -91.5t-66.5 -79
t-102.5 -55.5t-131.5 -21z" />
    <glyph glyph-name="S" unicode="&#x15e;" horiz-adv-x="609" 
d="M202 -12q-24 0 -50.5 3.5t-53.5 10.5t-53 17.5t-48 24.5l58 205h18l20 -176q2 -20 12 -28.5t18 -11.5q40 -14 96 -14q35 0 71.5 9.5t66.5 29t49.5 49t19.5 68.5q0 43 -18 77.5t-55 78.5l-67 78q-33 39 -53 76.5t-20 82.5q0 47 22.5 85t60 65t85 42t97.5 15
q62 0 111.5 -13t81.5 -37l-39 -188h-18l-37 160q-4 17 -10.5 24.5t-17.5 11.5q-14 5 -30.5 7.5t-34.5 2.5q-32 0 -64 -7.5t-57.5 -22.5t-41.5 -38.5t-16 -54.5q0 -41 17 -68.5t41 -56.5l67 -78q21 -24 38.5 -46t30 -43.5t20 -44t7.5 -48.5q0 -47 -23.5 -91.5t-66.5 -79
t-102.5 -55.5t-131.5 -21z" />
    <glyph glyph-name="S" unicode="&#x15c;" horiz-adv-x="609" 
d="M202 -12q-24 0 -50.5 3.5t-53.5 10.5t-53 17.5t-48 24.5l58 205h18l20 -176q2 -20 12 -28.5t18 -11.5q40 -14 96 -14q35 0 71.5 9.5t66.5 29t49.5 49t19.5 68.5q0 43 -18 77.5t-55 78.5l-67 78q-33 39 -53 76.5t-20 82.5q0 47 22.5 85t60 65t85 42t97.5 15
q62 0 111.5 -13t81.5 -37l-39 -188h-18l-37 160q-4 17 -10.5 24.5t-17.5 11.5q-14 5 -30.5 7.5t-34.5 2.5q-32 0 -64 -7.5t-57.5 -22.5t-41.5 -38.5t-16 -54.5q0 -41 17 -68.5t41 -56.5l67 -78q21 -24 38.5 -46t30 -43.5t20 -44t7.5 -48.5q0 -47 -23.5 -91.5t-66.5 -79
t-102.5 -55.5t-131.5 -21z" />
    <glyph glyph-name="S" unicode="&#x15a;" horiz-adv-x="609" 
d="M202 -12q-24 0 -50.5 3.5t-53.5 10.5t-53 17.5t-48 24.5l58 205h18l20 -176q2 -20 12 -28.5t18 -11.5q40 -14 96 -14q35 0 71.5 9.5t66.5 29t49.5 49t19.5 68.5q0 43 -18 77.5t-55 78.5l-67 78q-33 39 -53 76.5t-20 82.5q0 47 22.5 85t60 65t85 42t97.5 15
q62 0 111.5 -13t81.5 -37l-39 -188h-18l-37 160q-4 17 -10.5 24.5t-17.5 11.5q-14 5 -30.5 7.5t-34.5 2.5q-32 0 -64 -7.5t-57.5 -22.5t-41.5 -38.5t-16 -54.5q0 -41 17 -68.5t41 -56.5l67 -78q21 -24 38.5 -46t30 -43.5t20 -44t7.5 -48.5q0 -47 -23.5 -91.5t-66.5 -79
t-102.5 -55.5t-131.5 -21z" />
    <glyph glyph-name="T" unicode="T" horiz-adv-x="757" 
d="M155 25l60 3q23 2 36.5 8t19.5 27l204 666h-170q-13 0 -19 -2.5t-14 -13.5l-151 -189h-18l96 234h671l-47 -234h-18l-26 189q-2 11 -7 13.5t-17 2.5h-179l-203 -666q-7 -21 3 -27t32 -8l59 -3l-8 -25h-312z" />
    <glyph glyph-name="T" unicode="&#x21a;" horiz-adv-x="757" 
d="M155 25l60 3q23 2 36.5 8t19.5 27l204 666h-170q-13 0 -19 -2.5t-14 -13.5l-151 -189h-18l96 234h671l-47 -234h-18l-26 189q-2 11 -7 13.5t-17 2.5h-179l-203 -666q-7 -21 3 -27t32 -8l59 -3l-8 -25h-312z" />
    <glyph glyph-name="T" unicode="&#x166;" horiz-adv-x="757" 
d="M155 25l60 3q23 2 36.5 8t19.5 27l204 666h-170q-13 0 -19 -2.5t-14 -13.5l-151 -189h-18l96 234h671l-47 -234h-18l-26 189q-2 11 -7 13.5t-17 2.5h-179l-203 -666q-7 -21 3 -27t32 -8l59 -3l-8 -25h-312z" />
    <glyph glyph-name="T" unicode="&#x164;" horiz-adv-x="757" 
d="M155 25l60 3q23 2 36.5 8t19.5 27l204 666h-170q-13 0 -19 -2.5t-14 -13.5l-151 -189h-18l96 234h671l-47 -234h-18l-26 189q-2 11 -7 13.5t-17 2.5h-179l-203 -666q-7 -21 3 -27t32 -8l59 -3l-8 -25h-312z" />
    <glyph glyph-name="T" unicode="&#x162;" horiz-adv-x="757" 
d="M155 25l60 3q23 2 36.5 8t19.5 27l204 666h-170q-13 0 -19 -2.5t-14 -13.5l-151 -189h-18l96 234h671l-47 -234h-18l-26 189q-2 11 -7 13.5t-17 2.5h-179l-203 -666q-7 -21 3 -27t32 -8l59 -3l-8 -25h-312z" />
    <glyph glyph-name="U" unicode="U" horiz-adv-x="863" 
d="M379 -12q-75 0 -131 18.5t-88 57t-37.5 98.5t20.5 143l119 390q6 21 -3.5 27.5t-31.5 8.5l-43 3l7 24h282l-7 -24l-46 -3q-23 -2 -36.5 -8.5t-20.5 -27.5l-122 -401q-38 -126 1 -186.5t160 -60.5q124 0 201.5 65.5t115.5 190.5l120 392q7 21 -3 27.5t-31 8.5l-50 3l7 24
h225l-7 -24l-46 -3q-23 -2 -36 -8.5t-20 -27.5l-122 -398q-47 -152 -137.5 -230.5t-239.5 -78.5z" />
    <glyph glyph-name="U" unicode="&#x1ee4;" horiz-adv-x="863" 
d="M379 -12q-75 0 -131 18.5t-88 57t-37.5 98.5t20.5 143l119 390q6 21 -3.5 27.5t-31.5 8.5l-43 3l7 24h282l-7 -24l-46 -3q-23 -2 -36.5 -8.5t-20.5 -27.5l-122 -401q-38 -126 1 -186.5t160 -60.5q124 0 201.5 65.5t115.5 190.5l120 392q7 21 -3 27.5t-31 8.5l-50 3l7 24
h225l-7 -24l-46 -3q-23 -2 -36 -8.5t-20 -27.5l-122 -398q-47 -152 -137.5 -230.5t-239.5 -78.5z" />
    <glyph glyph-name="U" unicode="&#x172;" horiz-adv-x="863" 
d="M379 -12q-75 0 -131 18.5t-88 57t-37.5 98.5t20.5 143l119 390q6 21 -3.5 27.5t-31.5 8.5l-43 3l7 24h282l-7 -24l-46 -3q-23 -2 -36.5 -8.5t-20.5 -27.5l-122 -401q-38 -126 1 -186.5t160 -60.5q124 0 201.5 65.5t115.5 190.5l120 392q7 21 -3 27.5t-31 8.5l-50 3l7 24
h225l-7 -24l-46 -3q-23 -2 -36 -8.5t-20 -27.5l-122 -398q-47 -152 -137.5 -230.5t-239.5 -78.5z" />
    <glyph glyph-name="U" unicode="&#x170;" horiz-adv-x="863" 
d="M379 -12q-75 0 -131 18.5t-88 57t-37.5 98.5t20.5 143l119 390q6 21 -3.5 27.5t-31.5 8.5l-43 3l7 24h282l-7 -24l-46 -3q-23 -2 -36.5 -8.5t-20.5 -27.5l-122 -401q-38 -126 1 -186.5t160 -60.5q124 0 201.5 65.5t115.5 190.5l120 392q7 21 -3 27.5t-31 8.5l-50 3l7 24
h225l-7 -24l-46 -3q-23 -2 -36 -8.5t-20 -27.5l-122 -398q-47 -152 -137.5 -230.5t-239.5 -78.5z" />
    <glyph glyph-name="U" unicode="&#x16e;" horiz-adv-x="863" 
d="M379 -12q-75 0 -131 18.5t-88 57t-37.5 98.5t20.5 143l119 390q6 21 -3.5 27.5t-31.5 8.5l-43 3l7 24h282l-7 -24l-46 -3q-23 -2 -36.5 -8.5t-20.5 -27.5l-122 -401q-38 -126 1 -186.5t160 -60.5q124 0 201.5 65.5t115.5 190.5l120 392q7 21 -3 27.5t-31 8.5l-50 3l7 24
h225l-7 -24l-46 -3q-23 -2 -36 -8.5t-20 -27.5l-122 -398q-47 -152 -137.5 -230.5t-239.5 -78.5z" />
    <glyph glyph-name="U" unicode="&#x16c;" horiz-adv-x="863" 
d="M379 -12q-75 0 -131 18.5t-88 57t-37.5 98.5t20.5 143l119 390q6 21 -3.5 27.5t-31.5 8.5l-43 3l7 24h282l-7 -24l-46 -3q-23 -2 -36.5 -8.5t-20.5 -27.5l-122 -401q-38 -126 1 -186.5t160 -60.5q124 0 201.5 65.5t115.5 190.5l120 392q7 21 -3 27.5t-31 8.5l-50 3l7 24
h225l-7 -24l-46 -3q-23 -2 -36 -8.5t-20 -27.5l-122 -398q-47 -152 -137.5 -230.5t-239.5 -78.5z" />
    <glyph glyph-name="U" unicode="&#x16a;" horiz-adv-x="863" 
d="M379 -12q-75 0 -131 18.5t-88 57t-37.5 98.5t20.5 143l119 390q6 21 -3.5 27.5t-31.5 8.5l-43 3l7 24h282l-7 -24l-46 -3q-23 -2 -36.5 -8.5t-20.5 -27.5l-122 -401q-38 -126 1 -186.5t160 -60.5q124 0 201.5 65.5t115.5 190.5l120 392q7 21 -3 27.5t-31 8.5l-50 3l7 24
h225l-7 -24l-46 -3q-23 -2 -36 -8.5t-20 -27.5l-122 -398q-47 -152 -137.5 -230.5t-239.5 -78.5z" />
    <glyph glyph-name="U" unicode="&#x168;" horiz-adv-x="863" 
d="M379 -12q-75 0 -131 18.5t-88 57t-37.5 98.5t20.5 143l119 390q6 21 -3.5 27.5t-31.5 8.5l-43 3l7 24h282l-7 -24l-46 -3q-23 -2 -36.5 -8.5t-20.5 -27.5l-122 -401q-38 -126 1 -186.5t160 -60.5q124 0 201.5 65.5t115.5 190.5l120 392q7 21 -3 27.5t-31 8.5l-50 3l7 24
h225l-7 -24l-46 -3q-23 -2 -36 -8.5t-20 -27.5l-122 -398q-47 -152 -137.5 -230.5t-239.5 -78.5z" />
    <glyph glyph-name="U" unicode="&#xdc;" horiz-adv-x="863" 
d="M379 -12q-75 0 -131 18.5t-88 57t-37.5 98.5t20.5 143l119 390q6 21 -3.5 27.5t-31.5 8.5l-43 3l7 24h282l-7 -24l-46 -3q-23 -2 -36.5 -8.5t-20.5 -27.5l-122 -401q-38 -126 1 -186.5t160 -60.5q124 0 201.5 65.5t115.5 190.5l120 392q7 21 -3 27.5t-31 8.5l-50 3l7 24
h225l-7 -24l-46 -3q-23 -2 -36 -8.5t-20 -27.5l-122 -398q-47 -152 -137.5 -230.5t-239.5 -78.5z" />
    <glyph glyph-name="U" unicode="&#xdb;" horiz-adv-x="863" 
d="M379 -12q-75 0 -131 18.5t-88 57t-37.5 98.5t20.5 143l119 390q6 21 -3.5 27.5t-31.5 8.5l-43 3l7 24h282l-7 -24l-46 -3q-23 -2 -36.5 -8.5t-20.5 -27.5l-122 -401q-38 -126 1 -186.5t160 -60.5q124 0 201.5 65.5t115.5 190.5l120 392q7 21 -3 27.5t-31 8.5l-50 3l7 24
h225l-7 -24l-46 -3q-23 -2 -36 -8.5t-20 -27.5l-122 -398q-47 -152 -137.5 -230.5t-239.5 -78.5z" />
    <glyph glyph-name="U" unicode="&#xda;" horiz-adv-x="863" 
d="M379 -12q-75 0 -131 18.5t-88 57t-37.5 98.5t20.5 143l119 390q6 21 -3.5 27.5t-31.5 8.5l-43 3l7 24h282l-7 -24l-46 -3q-23 -2 -36.5 -8.5t-20.5 -27.5l-122 -401q-38 -126 1 -186.5t160 -60.5q124 0 201.5 65.5t115.5 190.5l120 392q7 21 -3 27.5t-31 8.5l-50 3l7 24
h225l-7 -24l-46 -3q-23 -2 -36 -8.5t-20 -27.5l-122 -398q-47 -152 -137.5 -230.5t-239.5 -78.5z" />
    <glyph glyph-name="U" unicode="&#xd9;" horiz-adv-x="863" 
d="M379 -12q-75 0 -131 18.5t-88 57t-37.5 98.5t20.5 143l119 390q6 21 -3.5 27.5t-31.5 8.5l-43 3l7 24h282l-7 -24l-46 -3q-23 -2 -36.5 -8.5t-20.5 -27.5l-122 -401q-38 -126 1 -186.5t160 -60.5q124 0 201.5 65.5t115.5 190.5l120 392q7 21 -3 27.5t-31 8.5l-50 3l7 24
h225l-7 -24l-46 -3q-23 -2 -36 -8.5t-20 -27.5l-122 -398q-47 -152 -137.5 -230.5t-239.5 -78.5z" />
    <glyph glyph-name="V" unicode="V" horiz-adv-x="810" 
d="M270 695q5 21 -4 27.5t-30 8.5l-44 3l7 24h282l-7 -24l-46 -3q-23 -2 -37 -8.5t-19 -27.5l-142 -562l613 564q17 16 18.5 24t-21.5 10l-61 3l7 24h246l-8 -24l-44 -3q-23 -2 -43.5 -9.5t-38.5 -24.5l-788 -721h-18z" />
    <glyph glyph-name="W" unicode="W" horiz-adv-x="1256" 
d="M270 695q5 21 -4 27.5t-30 8.5l-44 3l7 24h282l-7 -24l-46 -3q-23 -2 -37 -8.5t-19 -27.5l-142 -562l447 410l53 215h221l-7 -24l-70 -3q-23 -1 -37 -8t-19 -28l-142 -562l613 564q17 16 18.5 24t-21.5 10l-61 3l7 24h246l-8 -24l-44 -3q-23 -2 -43.5 -9.5t-38.5 -24.5
l-788 -721h-18l123 503l-551 -503h-18z" />
    <glyph glyph-name="W" unicode="&#x1e84;" horiz-adv-x="1256" 
d="M270 695q5 21 -4 27.5t-30 8.5l-44 3l7 24h282l-7 -24l-46 -3q-23 -2 -37 -8.5t-19 -27.5l-142 -562l447 410l53 215h221l-7 -24l-70 -3q-23 -1 -37 -8t-19 -28l-142 -562l613 564q17 16 18.5 24t-21.5 10l-61 3l7 24h246l-8 -24l-44 -3q-23 -2 -43.5 -9.5t-38.5 -24.5
l-788 -721h-18l123 503l-551 -503h-18z" />
    <glyph glyph-name="W" unicode="&#x1e82;" horiz-adv-x="1256" 
d="M270 695q5 21 -4 27.5t-30 8.5l-44 3l7 24h282l-7 -24l-46 -3q-23 -2 -37 -8.5t-19 -27.5l-142 -562l447 410l53 215h221l-7 -24l-70 -3q-23 -1 -37 -8t-19 -28l-142 -562l613 564q17 16 18.5 24t-21.5 10l-61 3l7 24h246l-8 -24l-44 -3q-23 -2 -43.5 -9.5t-38.5 -24.5
l-788 -721h-18l123 503l-551 -503h-18z" />
    <glyph glyph-name="W" unicode="&#x1e80;" horiz-adv-x="1256" 
d="M270 695q5 21 -4 27.5t-30 8.5l-44 3l7 24h282l-7 -24l-46 -3q-23 -2 -37 -8.5t-19 -27.5l-142 -562l447 410l53 215h221l-7 -24l-70 -3q-23 -1 -37 -8t-19 -28l-142 -562l613 564q17 16 18.5 24t-21.5 10l-61 3l7 24h246l-8 -24l-44 -3q-23 -2 -43.5 -9.5t-38.5 -24.5
l-788 -721h-18l123 503l-551 -503h-18z" />
    <glyph glyph-name="W" unicode="&#x174;" horiz-adv-x="1256" 
d="M270 695q5 21 -4 27.5t-30 8.5l-44 3l7 24h282l-7 -24l-46 -3q-23 -2 -37 -8.5t-19 -27.5l-142 -562l447 410l53 215h221l-7 -24l-70 -3q-23 -1 -37 -8t-19 -28l-142 -562l613 564q17 16 18.5 24t-21.5 10l-61 3l7 24h246l-8 -24l-44 -3q-23 -2 -43.5 -9.5t-38.5 -24.5
l-788 -721h-18l123 503l-551 -503h-18z" />
    <glyph glyph-name="X" unicode="X" horiz-adv-x="844" 
d="M-94 24l43 3q46 3 84 34l399 322l-92 314q-5 17 -15 24.5t-30 9.5l-42 3l11 24h281l-11 -24l-51 -4q-24 -2 -34 -9t-5 -24l72 -247l307 247q20 16 20.5 23.5t-22.5 9.5l-48 4l11 24h234l-11 -24l-43 -3q-45 -3 -83 -34l-354 -285l103 -351q5 -17 15 -24.5t31 -9.5l41 -3
l-11 -24h-281l11 24l51 4q25 2 35 9t5 24l-83 284l-353 -284q-20 -17 -21 -24t22 -9l49 -4l-11 -24h-235z" />
    <glyph glyph-name="Y" unicode="Y" horiz-adv-x="779" 
d="M166 25l60 3q23 2 36 8t20 27l86 279l-140 355q-7 18 -14 25t-30 9l-43 3l8 24h283l-8 -24l-50 -3q-24 -2 -36 -9.5t-5 -24.5l123 -315l317 315q18 17 13 24.5t-28 9.5l-61 3l7 24h243l-8 -24l-44 -3q-23 -2 -37.5 -9.5t-32.5 -24.5l-356 -355l-86 -279q-7 -21 3 -27.5
t32 -7.5l60 -3l-8 -25h-312z" />
    <glyph glyph-name="Y" unicode="&#x1ef2;" horiz-adv-x="779" 
d="M166 25l60 3q23 2 36 8t20 27l86 279l-140 355q-7 18 -14 25t-30 9l-43 3l8 24h283l-8 -24l-50 -3q-24 -2 -36 -9.5t-5 -24.5l123 -315l317 315q18 17 13 24.5t-28 9.5l-61 3l7 24h243l-8 -24l-44 -3q-23 -2 -37.5 -9.5t-32.5 -24.5l-356 -355l-86 -279q-7 -21 3 -27.5
t32 -7.5l60 -3l-8 -25h-312z" />
    <glyph glyph-name="Y" unicode="&#x232;" horiz-adv-x="779" 
d="M166 25l60 3q23 2 36 8t20 27l86 279l-140 355q-7 18 -14 25t-30 9l-43 3l8 24h283l-8 -24l-50 -3q-24 -2 -36 -9.5t-5 -24.5l123 -315l317 315q18 17 13 24.5t-28 9.5l-61 3l7 24h243l-8 -24l-44 -3q-23 -2 -37.5 -9.5t-32.5 -24.5l-356 -355l-86 -279q-7 -21 3 -27.5
t32 -7.5l60 -3l-8 -25h-312z" />
    <glyph glyph-name="Y" unicode="&#x178;" horiz-adv-x="779" 
d="M166 25l60 3q23 2 36 8t20 27l86 279l-140 355q-7 18 -14 25t-30 9l-43 3l8 24h283l-8 -24l-50 -3q-24 -2 -36 -9.5t-5 -24.5l123 -315l317 315q18 17 13 24.5t-28 9.5l-61 3l7 24h243l-8 -24l-44 -3q-23 -2 -37.5 -9.5t-32.5 -24.5l-356 -355l-86 -279q-7 -21 3 -27.5
t32 -7.5l60 -3l-8 -25h-312z" />
    <glyph glyph-name="Y" unicode="&#x176;" horiz-adv-x="779" 
d="M166 25l60 3q23 2 36 8t20 27l86 279l-140 355q-7 18 -14 25t-30 9l-43 3l8 24h283l-8 -24l-50 -3q-24 -2 -36 -9.5t-5 -24.5l123 -315l317 315q18 17 13 24.5t-28 9.5l-61 3l7 24h243l-8 -24l-44 -3q-23 -2 -37.5 -9.5t-32.5 -24.5l-356 -355l-86 -279q-7 -21 3 -27.5
t32 -7.5l60 -3l-8 -25h-312z" />
    <glyph glyph-name="Y" unicode="&#xdd;" horiz-adv-x="779" 
d="M166 25l60 3q23 2 36 8t20 27l86 279l-140 355q-7 18 -14 25t-30 9l-43 3l8 24h283l-8 -24l-50 -3q-24 -2 -36 -9.5t-5 -24.5l123 -315l317 315q18 17 13 24.5t-28 9.5l-61 3l7 24h243l-8 -24l-44 -3q-23 -2 -37.5 -9.5t-32.5 -24.5l-356 -355l-86 -279q-7 -21 3 -27.5
t32 -7.5l60 -3l-8 -25h-312z" />
    <glyph glyph-name="Z" unicode="Z" horiz-adv-x="743" 
d="M-45 10l745 717h-317q-14 0 -19.5 -3t-16.5 -13l-186 -177h-18l138 224h566l-4 -11l-742 -716h362q14 0 19.5 2.5t16.5 13.5l186 177h18l-138 -224h-613z" />
    <glyph glyph-name="Z" unicode="&#x17d;" horiz-adv-x="743" 
d="M-45 10l745 717h-317q-14 0 -19.5 -3t-16.5 -13l-186 -177h-18l138 224h566l-4 -11l-742 -716h362q14 0 19.5 2.5t16.5 13.5l186 177h18l-138 -224h-613z" />
    <glyph glyph-name="Z" unicode="&#x17b;" horiz-adv-x="743" 
d="M-45 10l745 717h-317q-14 0 -19.5 -3t-16.5 -13l-186 -177h-18l138 224h566l-4 -11l-742 -716h362q14 0 19.5 2.5t16.5 13.5l186 177h18l-138 -224h-613z" />
    <glyph glyph-name="Z" unicode="&#x179;" horiz-adv-x="743" 
d="M-45 10l745 717h-317q-14 0 -19.5 -3t-16.5 -13l-186 -177h-18l138 224h566l-4 -11l-742 -716h362q14 0 19.5 2.5t16.5 13.5l186 177h18l-138 -224h-613z" />
    <glyph glyph-name="a" unicode="a" horiz-adv-x="567" 
d="M103 -12q-45 0 -69 28.5t-24 76.5q0 45 15.5 94t42 96t61.5 90t73.5 75t79 51t78.5 19q35 0 52 -21.5t19 -49.5h1l24 66h88l-155 -422q-14 -38 -12 -51.5t16 -13.5q24 0 62 31.5t79 106.5l20 -9q-42 -80 -93.5 -123.5t-119.5 -43.5q-24 0 -36 7t-15.5 20t1 32t13.5 43
l36 95h-2q-60 -97 -117.5 -147t-117.5 -50zM153 39q26 0 58 24t64 64t60.5 90t48.5 103q34 92 25 133.5t-49 41.5q-29 0 -58.5 -19t-57 -50t-52 -71.5t-42 -84t-28 -87t-10.5 -79.5q0 -31 10.5 -48t30.5 -17z" />
    <glyph glyph-name="a" unicode="&#x105;" horiz-adv-x="567" 
d="M103 -12q-45 0 -69 28.5t-24 76.5q0 45 15.5 94t42 96t61.5 90t73.5 75t79 51t78.5 19q35 0 52 -21.5t19 -49.5h1l24 66h88l-155 -422q-14 -38 -12 -51.5t16 -13.5q24 0 62 31.5t79 106.5l20 -9q-42 -80 -93.5 -123.5t-119.5 -43.5q-24 0 -36 7t-15.5 20t1 32t13.5 43
l36 95h-2q-60 -97 -117.5 -147t-117.5 -50zM153 39q26 0 58 24t64 64t60.5 90t48.5 103q34 92 25 133.5t-49 41.5q-29 0 -58.5 -19t-57 -50t-52 -71.5t-42 -84t-28 -87t-10.5 -79.5q0 -31 10.5 -48t30.5 -17z" />
    <glyph glyph-name="a" unicode="&#x103;" horiz-adv-x="567" 
d="M103 -12q-45 0 -69 28.5t-24 76.5q0 45 15.5 94t42 96t61.5 90t73.5 75t79 51t78.5 19q35 0 52 -21.5t19 -49.5h1l24 66h88l-155 -422q-14 -38 -12 -51.5t16 -13.5q24 0 62 31.5t79 106.5l20 -9q-42 -80 -93.5 -123.5t-119.5 -43.5q-24 0 -36 7t-15.5 20t1 32t13.5 43
l36 95h-2q-60 -97 -117.5 -147t-117.5 -50zM153 39q26 0 58 24t64 64t60.5 90t48.5 103q34 92 25 133.5t-49 41.5q-29 0 -58.5 -19t-57 -50t-52 -71.5t-42 -84t-28 -87t-10.5 -79.5q0 -31 10.5 -48t30.5 -17z" />
    <glyph glyph-name="a" unicode="&#x101;" horiz-adv-x="567" 
d="M103 -12q-45 0 -69 28.5t-24 76.5q0 45 15.5 94t42 96t61.5 90t73.5 75t79 51t78.5 19q35 0 52 -21.5t19 -49.5h1l24 66h88l-155 -422q-14 -38 -12 -51.5t16 -13.5q24 0 62 31.5t79 106.5l20 -9q-42 -80 -93.5 -123.5t-119.5 -43.5q-24 0 -36 7t-15.5 20t1 32t13.5 43
l36 95h-2q-60 -97 -117.5 -147t-117.5 -50zM153 39q26 0 58 24t64 64t60.5 90t48.5 103q34 92 25 133.5t-49 41.5q-29 0 -58.5 -19t-57 -50t-52 -71.5t-42 -84t-28 -87t-10.5 -79.5q0 -31 10.5 -48t30.5 -17z" />
    <glyph glyph-name="a" unicode="&#xe6;" horiz-adv-x="567" 
d="M103 -12q-45 0 -69 28.5t-24 76.5q0 45 15.5 94t42 96t61.5 90t73.5 75t79 51t78.5 19q35 0 52 -21.5t19 -49.5h1l24 66h88l-155 -422q-14 -38 -12 -51.5t16 -13.5q24 0 62 31.5t79 106.5l20 -9q-42 -80 -93.5 -123.5t-119.5 -43.5q-24 0 -36 7t-15.5 20t1 32t13.5 43
l36 95h-2q-60 -97 -117.5 -147t-117.5 -50zM153 39q26 0 58 24t64 64t60.5 90t48.5 103q34 92 25 133.5t-49 41.5q-29 0 -58.5 -19t-57 -50t-52 -71.5t-42 -84t-28 -87t-10.5 -79.5q0 -31 10.5 -48t30.5 -17z" />
    <glyph glyph-name="a" unicode="&#xe5;" horiz-adv-x="567" 
d="M103 -12q-45 0 -69 28.5t-24 76.5q0 45 15.5 94t42 96t61.5 90t73.5 75t79 51t78.5 19q35 0 52 -21.5t19 -49.5h1l24 66h88l-155 -422q-14 -38 -12 -51.5t16 -13.5q24 0 62 31.5t79 106.5l20 -9q-42 -80 -93.5 -123.5t-119.5 -43.5q-24 0 -36 7t-15.5 20t1 32t13.5 43
l36 95h-2q-60 -97 -117.5 -147t-117.5 -50zM153 39q26 0 58 24t64 64t60.5 90t48.5 103q34 92 25 133.5t-49 41.5q-29 0 -58.5 -19t-57 -50t-52 -71.5t-42 -84t-28 -87t-10.5 -79.5q0 -31 10.5 -48t30.5 -17z" />
    <glyph glyph-name="a" unicode="&#xe4;" horiz-adv-x="567" 
d="M103 -12q-45 0 -69 28.5t-24 76.5q0 45 15.5 94t42 96t61.5 90t73.5 75t79 51t78.5 19q35 0 52 -21.5t19 -49.5h1l24 66h88l-155 -422q-14 -38 -12 -51.5t16 -13.5q24 0 62 31.5t79 106.5l20 -9q-42 -80 -93.5 -123.5t-119.5 -43.5q-24 0 -36 7t-15.5 20t1 32t13.5 43
l36 95h-2q-60 -97 -117.5 -147t-117.5 -50zM153 39q26 0 58 24t64 64t60.5 90t48.5 103q34 92 25 133.5t-49 41.5q-29 0 -58.5 -19t-57 -50t-52 -71.5t-42 -84t-28 -87t-10.5 -79.5q0 -31 10.5 -48t30.5 -17z" />
    <glyph glyph-name="a" unicode="&#xe3;" horiz-adv-x="567" 
d="M103 -12q-45 0 -69 28.5t-24 76.5q0 45 15.5 94t42 96t61.5 90t73.5 75t79 51t78.5 19q35 0 52 -21.5t19 -49.5h1l24 66h88l-155 -422q-14 -38 -12 -51.5t16 -13.5q24 0 62 31.5t79 106.5l20 -9q-42 -80 -93.5 -123.5t-119.5 -43.5q-24 0 -36 7t-15.5 20t1 32t13.5 43
l36 95h-2q-60 -97 -117.5 -147t-117.5 -50zM153 39q26 0 58 24t64 64t60.5 90t48.5 103q34 92 25 133.5t-49 41.5q-29 0 -58.5 -19t-57 -50t-52 -71.5t-42 -84t-28 -87t-10.5 -79.5q0 -31 10.5 -48t30.5 -17z" />
    <glyph glyph-name="a" unicode="&#xe2;" horiz-adv-x="567" 
d="M103 -12q-45 0 -69 28.5t-24 76.5q0 45 15.5 94t42 96t61.5 90t73.5 75t79 51t78.5 19q35 0 52 -21.5t19 -49.5h1l24 66h88l-155 -422q-14 -38 -12 -51.5t16 -13.5q24 0 62 31.5t79 106.5l20 -9q-42 -80 -93.5 -123.5t-119.5 -43.5q-24 0 -36 7t-15.5 20t1 32t13.5 43
l36 95h-2q-60 -97 -117.5 -147t-117.5 -50zM153 39q26 0 58 24t64 64t60.5 90t48.5 103q34 92 25 133.5t-49 41.5q-29 0 -58.5 -19t-57 -50t-52 -71.5t-42 -84t-28 -87t-10.5 -79.5q0 -31 10.5 -48t30.5 -17z" />
    <glyph glyph-name="a" unicode="&#xe1;" horiz-adv-x="567" 
d="M103 -12q-45 0 -69 28.5t-24 76.5q0 45 15.5 94t42 96t61.5 90t73.5 75t79 51t78.5 19q35 0 52 -21.5t19 -49.5h1l24 66h88l-155 -422q-14 -38 -12 -51.5t16 -13.5q24 0 62 31.5t79 106.5l20 -9q-42 -80 -93.5 -123.5t-119.5 -43.5q-24 0 -36 7t-15.5 20t1 32t13.5 43
l36 95h-2q-60 -97 -117.5 -147t-117.5 -50zM153 39q26 0 58 24t64 64t60.5 90t48.5 103q34 92 25 133.5t-49 41.5q-29 0 -58.5 -19t-57 -50t-52 -71.5t-42 -84t-28 -87t-10.5 -79.5q0 -31 10.5 -48t30.5 -17z" />
    <glyph glyph-name="a" unicode="&#xe0;" horiz-adv-x="567" 
d="M103 -12q-45 0 -69 28.5t-24 76.5q0 45 15.5 94t42 96t61.5 90t73.5 75t79 51t78.5 19q35 0 52 -21.5t19 -49.5h1l24 66h88l-155 -422q-14 -38 -12 -51.5t16 -13.5q24 0 62 31.5t79 106.5l20 -9q-42 -80 -93.5 -123.5t-119.5 -43.5q-24 0 -36 7t-15.5 20t1 32t13.5 43
l36 95h-2q-60 -97 -117.5 -147t-117.5 -50zM153 39q26 0 58 24t64 64t60.5 90t48.5 103q34 92 25 133.5t-49 41.5q-29 0 -58.5 -19t-57 -50t-52 -71.5t-42 -84t-28 -87t-10.5 -79.5q0 -31 10.5 -48t30.5 -17z" />
    <glyph glyph-name="b" unicode="b" horiz-adv-x="551" 
d="M153 -12q-32 0 -59 6.5t-43 25t-18 51t16 84.5l186 541l-77 39l2 6l200 44l-126 -366l-47 -114h2q62 104 126 158t130 54q53 0 77 -30.5t24 -78.5q0 -46 -17 -95t-46.5 -95.5t-68.5 -88.5t-83 -73t-89.5 -49.5t-88.5 -18.5zM169 11q30 0 62 18t62.5 48.5t57 70t47 83
t32 87t11.5 81.5q0 67 -49 67q-27 0 -61.5 -25t-68.5 -65t-64 -91t-48 -103q-35 -96 -30.5 -133.5t49.5 -37.5z" />
    <glyph glyph-name="c" unicode="c" horiz-adv-x="452" 
d="M160 -12q-63 0 -98.5 38.5t-35.5 110.5q0 69 28.5 137t75.5 122t107 87.5t122 33.5q50 0 75 -22.5t25 -58.5q0 -37 -25 -58t-69 -14q8 27 11.5 51t1 41.5t-11.5 27.5t-25 10q-36 0 -73.5 -29t-68 -76t-50.5 -107.5t-20 -124.5q0 -32 7 -55.5t19 -38.5t28 -22t33 -7
q41 0 79 34t76 115l20 -8q-44 -100 -100 -143.5t-131 -43.5z" />
    <glyph glyph-name="c" unicode="&#x10d;" horiz-adv-x="452" 
d="M160 -12q-63 0 -98.5 38.5t-35.5 110.5q0 69 28.5 137t75.5 122t107 87.5t122 33.5q50 0 75 -22.5t25 -58.5q0 -37 -25 -58t-69 -14q8 27 11.5 51t1 41.5t-11.5 27.5t-25 10q-36 0 -73.5 -29t-68 -76t-50.5 -107.5t-20 -124.5q0 -32 7 -55.5t19 -38.5t28 -22t33 -7
q41 0 79 34t76 115l20 -8q-44 -100 -100 -143.5t-131 -43.5z" />
    <glyph glyph-name="c" unicode="&#x10b;" horiz-adv-x="452" 
d="M160 -12q-63 0 -98.5 38.5t-35.5 110.5q0 69 28.5 137t75.5 122t107 87.5t122 33.5q50 0 75 -22.5t25 -58.5q0 -37 -25 -58t-69 -14q8 27 11.5 51t1 41.5t-11.5 27.5t-25 10q-36 0 -73.5 -29t-68 -76t-50.5 -107.5t-20 -124.5q0 -32 7 -55.5t19 -38.5t28 -22t33 -7
q41 0 79 34t76 115l20 -8q-44 -100 -100 -143.5t-131 -43.5z" />
    <glyph glyph-name="c" unicode="&#x109;" horiz-adv-x="452" 
d="M160 -12q-63 0 -98.5 38.5t-35.5 110.5q0 69 28.5 137t75.5 122t107 87.5t122 33.5q50 0 75 -22.5t25 -58.5q0 -37 -25 -58t-69 -14q8 27 11.5 51t1 41.5t-11.5 27.5t-25 10q-36 0 -73.5 -29t-68 -76t-50.5 -107.5t-20 -124.5q0 -32 7 -55.5t19 -38.5t28 -22t33 -7
q41 0 79 34t76 115l20 -8q-44 -100 -100 -143.5t-131 -43.5z" />
    <glyph glyph-name="c" unicode="&#x107;" horiz-adv-x="452" 
d="M160 -12q-63 0 -98.5 38.5t-35.5 110.5q0 69 28.5 137t75.5 122t107 87.5t122 33.5q50 0 75 -22.5t25 -58.5q0 -37 -25 -58t-69 -14q8 27 11.5 51t1 41.5t-11.5 27.5t-25 10q-36 0 -73.5 -29t-68 -76t-50.5 -107.5t-20 -124.5q0 -32 7 -55.5t19 -38.5t28 -22t33 -7
q41 0 79 34t76 115l20 -8q-44 -100 -100 -143.5t-131 -43.5z" />
    <glyph glyph-name="c" unicode="&#xe7;" horiz-adv-x="452" 
d="M160 -12q-63 0 -98.5 38.5t-35.5 110.5q0 69 28.5 137t75.5 122t107 87.5t122 33.5q50 0 75 -22.5t25 -58.5q0 -37 -25 -58t-69 -14q8 27 11.5 51t1 41.5t-11.5 27.5t-25 10q-36 0 -73.5 -29t-68 -76t-50.5 -107.5t-20 -124.5q0 -32 7 -55.5t19 -38.5t28 -22t33 -7
q41 0 79 34t76 115l20 -8q-44 -100 -100 -143.5t-131 -43.5z" />
    <glyph glyph-name="d" unicode="d" horiz-adv-x="588" 
d="M108 -12q-45 0 -71 29t-26 82q0 45 15.5 93.5t42.5 95t62 88.5t74.5 73.5t80 50t77.5 18.5q35 0 53.5 -19.5t22.5 -51.5h1l84 249l-81 39l2 6l203 44l-235 -694q-14 -39 -13 -52t17 -13q24 0 62.5 31.5t78.5 106.5l20 -9q-42 -80 -93.5 -123.5t-120.5 -43.5q-24 0 -36 7
t-15 20t1 32t12 43l35 100h-2q-61 -102 -121.5 -152t-129.5 -50zM167 39q26 0 58.5 24t64.5 63t60.5 88t46.5 99q33 91 21.5 136.5t-53.5 45.5q-30 0 -60 -18t-58 -48t-52 -69t-42 -81.5t-28 -85.5t-10 -80q0 -74 52 -74z" />
    <glyph glyph-name="d" unicode="&#x111;" horiz-adv-x="588" 
d="M108 -12q-45 0 -71 29t-26 82q0 45 15.5 93.5t42.5 95t62 88.5t74.5 73.5t80 50t77.5 18.5q35 0 53.5 -19.5t22.5 -51.5h1l84 249l-81 39l2 6l203 44l-235 -694q-14 -39 -13 -52t17 -13q24 0 62.5 31.5t78.5 106.5l20 -9q-42 -80 -93.5 -123.5t-120.5 -43.5q-24 0 -36 7
t-15 20t1 32t12 43l35 100h-2q-61 -102 -121.5 -152t-129.5 -50zM167 39q26 0 58.5 24t64.5 63t60.5 88t46.5 99q33 91 21.5 136.5t-53.5 45.5q-30 0 -60 -18t-58 -48t-52 -69t-42 -81.5t-28 -85.5t-10 -80q0 -74 52 -74z" />
    <glyph glyph-name="d" unicode="&#x10f;" horiz-adv-x="588" 
d="M108 -12q-45 0 -71 29t-26 82q0 45 15.5 93.5t42.5 95t62 88.5t74.5 73.5t80 50t77.5 18.5q35 0 53.5 -19.5t22.5 -51.5h1l84 249l-81 39l2 6l203 44l-235 -694q-14 -39 -13 -52t17 -13q24 0 62.5 31.5t78.5 106.5l20 -9q-42 -80 -93.5 -123.5t-120.5 -43.5q-24 0 -36 7
t-15 20t1 32t12 43l35 100h-2q-61 -102 -121.5 -152t-129.5 -50zM167 39q26 0 58.5 24t64.5 63t60.5 88t46.5 99q33 91 21.5 136.5t-53.5 45.5q-30 0 -60 -18t-58 -48t-52 -69t-42 -81.5t-28 -85.5t-10 -80q0 -74 52 -74z" />
    <glyph glyph-name="d" unicode="&#xf0;" horiz-adv-x="588" 
d="M108 -12q-45 0 -71 29t-26 82q0 45 15.5 93.5t42.5 95t62 88.5t74.5 73.5t80 50t77.5 18.5q35 0 53.5 -19.5t22.5 -51.5h1l84 249l-81 39l2 6l203 44l-235 -694q-14 -39 -13 -52t17 -13q24 0 62.5 31.5t78.5 106.5l20 -9q-42 -80 -93.5 -123.5t-120.5 -43.5q-24 0 -36 7
t-15 20t1 32t12 43l35 100h-2q-61 -102 -121.5 -152t-129.5 -50zM167 39q26 0 58.5 24t64.5 63t60.5 88t46.5 99q33 91 21.5 136.5t-53.5 45.5q-30 0 -60 -18t-58 -48t-52 -69t-42 -81.5t-28 -85.5t-10 -80q0 -74 52 -74z" />
    <glyph glyph-name="e" unicode="e" horiz-adv-x="465" 
d="M158 -12q-63 0 -98.5 38.5t-35.5 110.5t33 140t83.5 121.5t111.5 86t117 32.5q57 0 81.5 -25.5t24.5 -64.5q0 -31 -20 -63.5t-58 -52.5l-238 -2q-15 -35 -23.5 -73t-8.5 -79q0 -65 25.5 -94t59.5 -29q42 0 84 37.5t82 115.5l21 -7q-47 -97 -103 -144.5t-138 -47.5z
M365 495q-26 0 -53.5 -12.5t-54 -34.5t-49.5 -52.5t-41 -67.5h54q44 0 80 10t62 26.5t40.5 39t14.5 46.5q0 45 -53 45z" />
    <glyph glyph-name="e" unicode="&#x11b;" horiz-adv-x="465" 
d="M158 -12q-63 0 -98.5 38.5t-35.5 110.5t33 140t83.5 121.5t111.5 86t117 32.5q57 0 81.5 -25.5t24.5 -64.5q0 -31 -20 -63.5t-58 -52.5l-238 -2q-15 -35 -23.5 -73t-8.5 -79q0 -65 25.5 -94t59.5 -29q42 0 84 37.5t82 115.5l21 -7q-47 -97 -103 -144.5t-138 -47.5z
M365 495q-26 0 -53.5 -12.5t-54 -34.5t-49.5 -52.5t-41 -67.5h54q44 0 80 10t62 26.5t40.5 39t14.5 46.5q0 45 -53 45z" />
    <glyph glyph-name="e" unicode="&#x119;" horiz-adv-x="465" 
d="M158 -12q-63 0 -98.5 38.5t-35.5 110.5t33 140t83.5 121.5t111.5 86t117 32.5q57 0 81.5 -25.5t24.5 -64.5q0 -31 -20 -63.5t-58 -52.5l-238 -2q-15 -35 -23.5 -73t-8.5 -79q0 -65 25.5 -94t59.5 -29q42 0 84 37.5t82 115.5l21 -7q-47 -97 -103 -144.5t-138 -47.5z
M365 495q-26 0 -53.5 -12.5t-54 -34.5t-49.5 -52.5t-41 -67.5h54q44 0 80 10t62 26.5t40.5 39t14.5 46.5q0 45 -53 45z" />
    <glyph glyph-name="e" unicode="&#x117;" horiz-adv-x="465" 
d="M158 -12q-63 0 -98.5 38.5t-35.5 110.5t33 140t83.5 121.5t111.5 86t117 32.5q57 0 81.5 -25.5t24.5 -64.5q0 -31 -20 -63.5t-58 -52.5l-238 -2q-15 -35 -23.5 -73t-8.5 -79q0 -65 25.5 -94t59.5 -29q42 0 84 37.5t82 115.5l21 -7q-47 -97 -103 -144.5t-138 -47.5z
M365 495q-26 0 -53.5 -12.5t-54 -34.5t-49.5 -52.5t-41 -67.5h54q44 0 80 10t62 26.5t40.5 39t14.5 46.5q0 45 -53 45z" />
    <glyph glyph-name="e" unicode="&#x115;" horiz-adv-x="465" 
d="M158 -12q-63 0 -98.5 38.5t-35.5 110.5t33 140t83.5 121.5t111.5 86t117 32.5q57 0 81.5 -25.5t24.5 -64.5q0 -31 -20 -63.5t-58 -52.5l-238 -2q-15 -35 -23.5 -73t-8.5 -79q0 -65 25.5 -94t59.5 -29q42 0 84 37.5t82 115.5l21 -7q-47 -97 -103 -144.5t-138 -47.5z
M365 495q-26 0 -53.5 -12.5t-54 -34.5t-49.5 -52.5t-41 -67.5h54q44 0 80 10t62 26.5t40.5 39t14.5 46.5q0 45 -53 45z" />
    <glyph glyph-name="e" unicode="&#x113;" horiz-adv-x="465" 
d="M158 -12q-63 0 -98.5 38.5t-35.5 110.5t33 140t83.5 121.5t111.5 86t117 32.5q57 0 81.5 -25.5t24.5 -64.5q0 -31 -20 -63.5t-58 -52.5l-238 -2q-15 -35 -23.5 -73t-8.5 -79q0 -65 25.5 -94t59.5 -29q42 0 84 37.5t82 115.5l21 -7q-47 -97 -103 -144.5t-138 -47.5z
M365 495q-26 0 -53.5 -12.5t-54 -34.5t-49.5 -52.5t-41 -67.5h54q44 0 80 10t62 26.5t40.5 39t14.5 46.5q0 45 -53 45z" />
    <glyph glyph-name="e" unicode="&#xeb;" horiz-adv-x="465" 
d="M158 -12q-63 0 -98.5 38.5t-35.5 110.5t33 140t83.5 121.5t111.5 86t117 32.5q57 0 81.5 -25.5t24.5 -64.5q0 -31 -20 -63.5t-58 -52.5l-238 -2q-15 -35 -23.5 -73t-8.5 -79q0 -65 25.5 -94t59.5 -29q42 0 84 37.5t82 115.5l21 -7q-47 -97 -103 -144.5t-138 -47.5z
M365 495q-26 0 -53.5 -12.5t-54 -34.5t-49.5 -52.5t-41 -67.5h54q44 0 80 10t62 26.5t40.5 39t14.5 46.5q0 45 -53 45z" />
    <glyph glyph-name="e" unicode="&#xea;" horiz-adv-x="465" 
d="M158 -12q-63 0 -98.5 38.5t-35.5 110.5t33 140t83.5 121.5t111.5 86t117 32.5q57 0 81.5 -25.5t24.5 -64.5q0 -31 -20 -63.5t-58 -52.5l-238 -2q-15 -35 -23.5 -73t-8.5 -79q0 -65 25.5 -94t59.5 -29q42 0 84 37.5t82 115.5l21 -7q-47 -97 -103 -144.5t-138 -47.5z
M365 495q-26 0 -53.5 -12.5t-54 -34.5t-49.5 -52.5t-41 -67.5h54q44 0 80 10t62 26.5t40.5 39t14.5 46.5q0 45 -53 45z" />
    <glyph glyph-name="e" unicode="&#xe9;" horiz-adv-x="465" 
d="M158 -12q-63 0 -98.5 38.5t-35.5 110.5t33 140t83.5 121.5t111.5 86t117 32.5q57 0 81.5 -25.5t24.5 -64.5q0 -31 -20 -63.5t-58 -52.5l-238 -2q-15 -35 -23.5 -73t-8.5 -79q0 -65 25.5 -94t59.5 -29q42 0 84 37.5t82 115.5l21 -7q-47 -97 -103 -144.5t-138 -47.5z
M365 495q-26 0 -53.5 -12.5t-54 -34.5t-49.5 -52.5t-41 -67.5h54q44 0 80 10t62 26.5t40.5 39t14.5 46.5q0 45 -53 45z" />
    <glyph glyph-name="e" unicode="&#xe8;" horiz-adv-x="465" 
d="M158 -12q-63 0 -98.5 38.5t-35.5 110.5t33 140t83.5 121.5t111.5 86t117 32.5q57 0 81.5 -25.5t24.5 -64.5q0 -31 -20 -63.5t-58 -52.5l-238 -2q-15 -35 -23.5 -73t-8.5 -79q0 -65 25.5 -94t59.5 -29q42 0 84 37.5t82 115.5l21 -7q-47 -97 -103 -144.5t-138 -47.5z
M365 495q-26 0 -53.5 -12.5t-54 -34.5t-49.5 -52.5t-41 -67.5h54q44 0 80 10t62 26.5t40.5 39t14.5 46.5q0 45 -53 45z" />
    <glyph glyph-name="f" unicode="f" horiz-adv-x="347" 
d="M-122 -257q-26 0 -41 13.5t-15 33.5t12.5 32.5t31.5 13.5q23 -14 46 -24t45 -10q14 0 25.5 8.5t22.5 31.5t23 65t27 109l95 435h-78l8 23q27 2 45 7.5t33 20.5t30.5 42t38.5 73q22 46 49 77t54.5 50t54.5 27t50 8q35 0 48.5 -15.5t13.5 -35.5q0 -16 -9.5 -31t-26.5 -23
q-26 13 -48.5 18.5t-42.5 5.5q-29 0 -52 -10.5t-39 -29t-24.5 -43.5t-8.5 -53q0 -11 1.5 -21.5t6 -19t12.5 -14t21 -5.5h145l-31 -51h-161l-49 -222q-25 -112 -52.5 -191.5t-56.5 -133.5t-57.5 -86t-55 -48.5t-50 -21.5t-41.5 -5z" />
    <glyph glyph-name="g" unicode="g" horiz-adv-x="495" 
d="M219 164q-31 0 -53 7l-70 -68l154 -93q28 -17 49.5 -31.5t36.5 -30t23 -32.5t8 -39q0 -35 -21 -60.5t-55 -42.5t-77.5 -25.5t-87.5 -8.5q-57 0 -103.5 9t-79.5 25.5t-51.5 40t-18.5 51.5q0 24 15 44.5t43 38t66 32t85 28.5l-41 74l99 97q-34 16 -53.5 44.5t-19.5 66.5
q0 45 21 85.5t55.5 72t79 50t92.5 18.5q34 0 63 -10t49 -27l36 65h105l-41 -73h-91q16 -16 25 -37t9 -45q0 -45 -21.5 -85.5t-56.5 -72t-80 -50t-93 -18.5zM237 188q26 0 50 14t43 39.5t30 61t11 79.5q0 51 -18.5 81.5t-55.5 30.5q-26 0 -50.5 -14t-43 -39.5t-29.5 -61.5
t-11 -79q0 -52 18.5 -82t55.5 -30zM-47 -120q0 -52 51 -85t142 -33q63 0 104.5 19t41.5 55q0 22 -19 42.5t-71 52.5l-107 65q-67 -26 -104.5 -51t-37.5 -65z" />
    <glyph glyph-name="g" unicode="&#x123;" horiz-adv-x="495" 
d="M219 164q-31 0 -53 7l-70 -68l154 -93q28 -17 49.5 -31.5t36.5 -30t23 -32.5t8 -39q0 -35 -21 -60.5t-55 -42.5t-77.5 -25.5t-87.5 -8.5q-57 0 -103.5 9t-79.5 25.5t-51.5 40t-18.5 51.5q0 24 15 44.5t43 38t66 32t85 28.5l-41 74l99 97q-34 16 -53.5 44.5t-19.5 66.5
q0 45 21 85.5t55.5 72t79 50t92.5 18.5q34 0 63 -10t49 -27l36 65h105l-41 -73h-91q16 -16 25 -37t9 -45q0 -45 -21.5 -85.5t-56.5 -72t-80 -50t-93 -18.5zM237 188q26 0 50 14t43 39.5t30 61t11 79.5q0 51 -18.5 81.5t-55.5 30.5q-26 0 -50.5 -14t-43 -39.5t-29.5 -61.5
t-11 -79q0 -52 18.5 -82t55.5 -30zM-47 -120q0 -52 51 -85t142 -33q63 0 104.5 19t41.5 55q0 22 -19 42.5t-71 52.5l-107 65q-67 -26 -104.5 -51t-37.5 -65z" />
    <glyph glyph-name="g" unicode="&#x121;" horiz-adv-x="495" 
d="M219 164q-31 0 -53 7l-70 -68l154 -93q28 -17 49.5 -31.5t36.5 -30t23 -32.5t8 -39q0 -35 -21 -60.5t-55 -42.5t-77.5 -25.5t-87.5 -8.5q-57 0 -103.5 9t-79.5 25.5t-51.5 40t-18.5 51.5q0 24 15 44.5t43 38t66 32t85 28.5l-41 74l99 97q-34 16 -53.5 44.5t-19.5 66.5
q0 45 21 85.5t55.5 72t79 50t92.5 18.5q34 0 63 -10t49 -27l36 65h105l-41 -73h-91q16 -16 25 -37t9 -45q0 -45 -21.5 -85.5t-56.5 -72t-80 -50t-93 -18.5zM237 188q26 0 50 14t43 39.5t30 61t11 79.5q0 51 -18.5 81.5t-55.5 30.5q-26 0 -50.5 -14t-43 -39.5t-29.5 -61.5
t-11 -79q0 -52 18.5 -82t55.5 -30zM-47 -120q0 -52 51 -85t142 -33q63 0 104.5 19t41.5 55q0 22 -19 42.5t-71 52.5l-107 65q-67 -26 -104.5 -51t-37.5 -65z" />
    <glyph glyph-name="g" unicode="&#x11f;" horiz-adv-x="495" 
d="M219 164q-31 0 -53 7l-70 -68l154 -93q28 -17 49.5 -31.5t36.5 -30t23 -32.5t8 -39q0 -35 -21 -60.5t-55 -42.5t-77.5 -25.5t-87.5 -8.5q-57 0 -103.5 9t-79.5 25.5t-51.5 40t-18.5 51.5q0 24 15 44.5t43 38t66 32t85 28.5l-41 74l99 97q-34 16 -53.5 44.5t-19.5 66.5
q0 45 21 85.5t55.5 72t79 50t92.5 18.5q34 0 63 -10t49 -27l36 65h105l-41 -73h-91q16 -16 25 -37t9 -45q0 -45 -21.5 -85.5t-56.5 -72t-80 -50t-93 -18.5zM237 188q26 0 50 14t43 39.5t30 61t11 79.5q0 51 -18.5 81.5t-55.5 30.5q-26 0 -50.5 -14t-43 -39.5t-29.5 -61.5
t-11 -79q0 -52 18.5 -82t55.5 -30zM-47 -120q0 -52 51 -85t142 -33q63 0 104.5 19t41.5 55q0 22 -19 42.5t-71 52.5l-107 65q-67 -26 -104.5 -51t-37.5 -65z" />
    <glyph glyph-name="g" unicode="&#x11d;" horiz-adv-x="495" 
d="M219 164q-31 0 -53 7l-70 -68l154 -93q28 -17 49.5 -31.5t36.5 -30t23 -32.5t8 -39q0 -35 -21 -60.5t-55 -42.5t-77.5 -25.5t-87.5 -8.5q-57 0 -103.5 9t-79.5 25.5t-51.5 40t-18.5 51.5q0 24 15 44.5t43 38t66 32t85 28.5l-41 74l99 97q-34 16 -53.5 44.5t-19.5 66.5
q0 45 21 85.5t55.5 72t79 50t92.5 18.5q34 0 63 -10t49 -27l36 65h105l-41 -73h-91q16 -16 25 -37t9 -45q0 -45 -21.5 -85.5t-56.5 -72t-80 -50t-93 -18.5zM237 188q26 0 50 14t43 39.5t30 61t11 79.5q0 51 -18.5 81.5t-55.5 30.5q-26 0 -50.5 -14t-43 -39.5t-29.5 -61.5
t-11 -79q0 -52 18.5 -82t55.5 -30zM-47 -120q0 -52 51 -85t142 -33q63 0 104.5 19t41.5 55q0 22 -19 42.5t-71 52.5l-107 65q-67 -26 -104.5 -51t-37.5 -65z" />
    <glyph glyph-name="h" unicode="h" horiz-adv-x="563" 
d="M264 -12q-38 0 -64.5 19t-26.5 51q0 28 23 43t51 12q10 -36 16 -56t10 -30t7 -12t8 -2q27 0 54 34.5t48 86.5t34.5 113t13.5 114q0 56 -12.5 80.5t-38.5 24.5q-29 0 -62 -27.5t-64.5 -71.5t-60 -98.5t-49.5 -107.5q-15 -39 -31 -79t-27 -75l-96 -17l244 705l-74 40l3 6
l196 44l-127 -366l-52 -134h2q64 119 122.5 175.5t128.5 56.5q47 0 73.5 -33.5t26.5 -102.5q0 -40 -11.5 -84.5t-32 -88t-47.5 -83.5t-57.5 -70.5t-63.5 -48.5t-64 -18z" />
    <glyph glyph-name="h" unicode="&#x127;" horiz-adv-x="563" 
d="M264 -12q-38 0 -64.5 19t-26.5 51q0 28 23 43t51 12q10 -36 16 -56t10 -30t7 -12t8 -2q27 0 54 34.5t48 86.5t34.5 113t13.5 114q0 56 -12.5 80.5t-38.5 24.5q-29 0 -62 -27.5t-64.5 -71.5t-60 -98.5t-49.5 -107.5q-15 -39 -31 -79t-27 -75l-96 -17l244 705l-74 40l3 6
l196 44l-127 -366l-52 -134h2q64 119 122.5 175.5t128.5 56.5q47 0 73.5 -33.5t26.5 -102.5q0 -40 -11.5 -84.5t-32 -88t-47.5 -83.5t-57.5 -70.5t-63.5 -48.5t-64 -18z" />
    <glyph glyph-name="h" unicode="&#x125;" horiz-adv-x="563" 
d="M264 -12q-38 0 -64.5 19t-26.5 51q0 28 23 43t51 12q10 -36 16 -56t10 -30t7 -12t8 -2q27 0 54 34.5t48 86.5t34.5 113t13.5 114q0 56 -12.5 80.5t-38.5 24.5q-29 0 -62 -27.5t-64.5 -71.5t-60 -98.5t-49.5 -107.5q-15 -39 -31 -79t-27 -75l-96 -17l244 705l-74 40l3 6
l196 44l-127 -366l-52 -134h2q64 119 122.5 175.5t128.5 56.5q47 0 73.5 -33.5t26.5 -102.5q0 -40 -11.5 -84.5t-32 -88t-47.5 -83.5t-57.5 -70.5t-63.5 -48.5t-64 -18z" />
    <glyph glyph-name="i" unicode="i" horiz-adv-x="324" 
d="M257 722q0 25 19 44t45 19t45 -19t19 -44q0 -26 -19 -45.5t-45 -19.5t-45 19.5t-19 45.5zM91 -12q-48 0 -56 25.5t10 73.5l144 374l-92 4l8 21l200 32l-165 -427q-15 -38 -13.5 -51.5t17.5 -13.5q24 0 62.5 31.5t78.5 106.5l20 -9q-42 -80 -93.5 -123.5t-120.5 -43.5z
" />
    <glyph glyph-name="i" unicode="&#x1ecb;" horiz-adv-x="324" 
d="M257 722q0 25 19 44t45 19t45 -19t19 -44q0 -26 -19 -45.5t-45 -19.5t-45 19.5t-19 45.5zM91 -12q-48 0 -56 25.5t10 73.5l144 374l-92 4l8 21l200 32l-165 -427q-15 -38 -13.5 -51.5t17.5 -13.5q24 0 62.5 31.5t78.5 106.5l20 -9q-42 -80 -93.5 -123.5t-120.5 -43.5z
" />
    <glyph glyph-name="i" unicode="&#x131;" horiz-adv-x="324" 
d="M257 722q0 25 19 44t45 19t45 -19t19 -44q0 -26 -19 -45.5t-45 -19.5t-45 19.5t-19 45.5zM91 -12q-48 0 -56 25.5t10 73.5l144 374l-92 4l8 21l200 32l-165 -427q-15 -38 -13.5 -51.5t17.5 -13.5q24 0 62.5 31.5t78.5 106.5l20 -9q-42 -80 -93.5 -123.5t-120.5 -43.5z
" />
    <glyph glyph-name="i" unicode="&#x12f;" horiz-adv-x="324" 
d="M257 722q0 25 19 44t45 19t45 -19t19 -44q0 -26 -19 -45.5t-45 -19.5t-45 19.5t-19 45.5zM91 -12q-48 0 -56 25.5t10 73.5l144 374l-92 4l8 21l200 32l-165 -427q-15 -38 -13.5 -51.5t17.5 -13.5q24 0 62.5 31.5t78.5 106.5l20 -9q-42 -80 -93.5 -123.5t-120.5 -43.5z
" />
    <glyph glyph-name="i" unicode="&#x12d;" horiz-adv-x="324" 
d="M257 722q0 25 19 44t45 19t45 -19t19 -44q0 -26 -19 -45.5t-45 -19.5t-45 19.5t-19 45.5zM91 -12q-48 0 -56 25.5t10 73.5l144 374l-92 4l8 21l200 32l-165 -427q-15 -38 -13.5 -51.5t17.5 -13.5q24 0 62.5 31.5t78.5 106.5l20 -9q-42 -80 -93.5 -123.5t-120.5 -43.5z
" />
    <glyph glyph-name="i" unicode="&#x12b;" horiz-adv-x="324" 
d="M257 722q0 25 19 44t45 19t45 -19t19 -44q0 -26 -19 -45.5t-45 -19.5t-45 19.5t-19 45.5zM91 -12q-48 0 -56 25.5t10 73.5l144 374l-92 4l8 21l200 32l-165 -427q-15 -38 -13.5 -51.5t17.5 -13.5q24 0 62.5 31.5t78.5 106.5l20 -9q-42 -80 -93.5 -123.5t-120.5 -43.5z
" />
    <glyph glyph-name="i" unicode="&#x129;" horiz-adv-x="324" 
d="M257 722q0 25 19 44t45 19t45 -19t19 -44q0 -26 -19 -45.5t-45 -19.5t-45 19.5t-19 45.5zM91 -12q-48 0 -56 25.5t10 73.5l144 374l-92 4l8 21l200 32l-165 -427q-15 -38 -13.5 -51.5t17.5 -13.5q24 0 62.5 31.5t78.5 106.5l20 -9q-42 -80 -93.5 -123.5t-120.5 -43.5z
" />
    <glyph glyph-name="i" unicode="&#xef;" horiz-adv-x="324" 
d="M257 722q0 25 19 44t45 19t45 -19t19 -44q0 -26 -19 -45.5t-45 -19.5t-45 19.5t-19 45.5zM91 -12q-48 0 -56 25.5t10 73.5l144 374l-92 4l8 21l200 32l-165 -427q-15 -38 -13.5 -51.5t17.5 -13.5q24 0 62.5 31.5t78.5 106.5l20 -9q-42 -80 -93.5 -123.5t-120.5 -43.5z
" />
    <glyph glyph-name="i" unicode="&#xee;" horiz-adv-x="324" 
d="M257 722q0 25 19 44t45 19t45 -19t19 -44q0 -26 -19 -45.5t-45 -19.5t-45 19.5t-19 45.5zM91 -12q-48 0 -56 25.5t10 73.5l144 374l-92 4l8 21l200 32l-165 -427q-15 -38 -13.5 -51.5t17.5 -13.5q24 0 62.5 31.5t78.5 106.5l20 -9q-42 -80 -93.5 -123.5t-120.5 -43.5z
" />
    <glyph glyph-name="i" unicode="&#xed;" horiz-adv-x="324" 
d="M257 722q0 25 19 44t45 19t45 -19t19 -44q0 -26 -19 -45.5t-45 -19.5t-45 19.5t-19 45.5zM91 -12q-48 0 -56 25.5t10 73.5l144 374l-92 4l8 21l200 32l-165 -427q-15 -38 -13.5 -51.5t17.5 -13.5q24 0 62.5 31.5t78.5 106.5l20 -9q-42 -80 -93.5 -123.5t-120.5 -43.5z
" />
    <glyph glyph-name="i" unicode="&#xec;" horiz-adv-x="324" 
d="M257 722q0 25 19 44t45 19t45 -19t19 -44q0 -26 -19 -45.5t-45 -19.5t-45 19.5t-19 45.5zM91 -12q-48 0 -56 25.5t10 73.5l144 374l-92 4l8 21l200 32l-165 -427q-15 -38 -13.5 -51.5t17.5 -13.5q24 0 62.5 31.5t78.5 106.5l20 -9q-42 -80 -93.5 -123.5t-120.5 -43.5z
" />
    <glyph glyph-name="j" unicode="j" horiz-adv-x="285" 
d="M-227 -243q49 31 83.5 55.5t61.5 53t50 67t47 98.5l174 430l-91 4l8 21l200 32l-203 -502q-17 -41 -30 -69t-29.5 -49t-39 -38t-57.5 -35l-166 -85zM266 722q0 25 19 44t45 19t45 -19t19 -44q0 -26 -19 -45.5t-45 -19.5t-45 19.5t-19 45.5z" />
    <glyph glyph-name="j" unicode="&#x237;" horiz-adv-x="285" 
d="M-227 -243q49 31 83.5 55.5t61.5 53t50 67t47 98.5l174 430l-91 4l8 21l200 32l-203 -502q-17 -41 -30 -69t-29.5 -49t-39 -38t-57.5 -35l-166 -85zM266 722q0 25 19 44t45 19t45 -19t19 -44q0 -26 -19 -45.5t-45 -19.5t-45 19.5t-19 45.5z" />
    <glyph glyph-name="j" unicode="&#x135;" horiz-adv-x="285" 
d="M-227 -243q49 31 83.5 55.5t61.5 53t50 67t47 98.5l174 430l-91 4l8 21l200 32l-203 -502q-17 -41 -30 -69t-29.5 -49t-39 -38t-57.5 -35l-166 -85zM266 722q0 25 19 44t45 19t45 -19t19 -44q0 -26 -19 -45.5t-45 -19.5t-45 19.5t-19 45.5z" />
    <glyph glyph-name="k" unicode="k" horiz-adv-x="584" 
d="M407 -38q-39 0 -67.5 26t-59.5 85l-94 182q49 0 95 12.5t81 36t56.5 56t21.5 72.5q0 25 -11 40t-34 15q-29 0 -62 -25.5t-64 -64.5t-56.5 -85.5t-40.5 -88.5l-32 -92l-40 -122l-103 -19l243 706l-78 39l3 6l200 44l-109 -316l-48 -126h2q25 42 49.5 75.5t52 57t58 36
t67.5 12.5q52 0 72 -24.5t20 -55.5q0 -32 -19.5 -60.5t-52 -52.5t-75 -44t-88.5 -33l108 -205q9 -18 15.5 -28.5t11.5 -16t10 -7.5t11 -2q7 0 16 4t19.5 15.5t22 32t22.5 53.5l21 -6q-13 -40 -28 -65.5t-32.5 -40.5t-38.5 -20.5t-45 -5.5z" />
    <glyph glyph-name="k" unicode="&#x137;" horiz-adv-x="584" 
d="M407 -38q-39 0 -67.5 26t-59.5 85l-94 182q49 0 95 12.5t81 36t56.5 56t21.5 72.5q0 25 -11 40t-34 15q-29 0 -62 -25.5t-64 -64.5t-56.5 -85.5t-40.5 -88.5l-32 -92l-40 -122l-103 -19l243 706l-78 39l3 6l200 44l-109 -316l-48 -126h2q25 42 49.5 75.5t52 57t58 36
t67.5 12.5q52 0 72 -24.5t20 -55.5q0 -32 -19.5 -60.5t-52 -52.5t-75 -44t-88.5 -33l108 -205q9 -18 15.5 -28.5t11.5 -16t10 -7.5t11 -2q7 0 16 4t19.5 15.5t22 32t22.5 53.5l21 -6q-13 -40 -28 -65.5t-32.5 -40.5t-38.5 -20.5t-45 -5.5z" />
    <glyph glyph-name="l" unicode="l" horiz-adv-x="308" 
d="M80 -12q-48 0 -55.5 25.5t9.5 73.5l209 609l-78 39l3 6l200 44l-239 -694q-13 -39 -12.5 -52t16.5 -13q24 0 62.5 31.5t78.5 106.5l20 -9q-42 -80 -93.5 -123.5t-120.5 -43.5z" />
    <glyph glyph-name="l" unicode="&#x142;" horiz-adv-x="308" 
d="M80 -12q-48 0 -55.5 25.5t9.5 73.5l209 609l-78 39l3 6l200 44l-239 -694q-13 -39 -12.5 -52t16.5 -13q24 0 62.5 31.5t78.5 106.5l20 -9q-42 -80 -93.5 -123.5t-120.5 -43.5z" />
    <glyph glyph-name="l" unicode="&#x140;" horiz-adv-x="308" 
d="M80 -12q-48 0 -55.5 25.5t9.5 73.5l209 609l-78 39l3 6l200 44l-239 -694q-13 -39 -12.5 -52t16.5 -13q24 0 62.5 31.5t78.5 106.5l20 -9q-42 -80 -93.5 -123.5t-120.5 -43.5z" />
    <glyph glyph-name="l" unicode="&#x13e;" horiz-adv-x="308" 
d="M80 -12q-48 0 -55.5 25.5t9.5 73.5l209 609l-78 39l3 6l200 44l-239 -694q-13 -39 -12.5 -52t16.5 -13q24 0 62.5 31.5t78.5 106.5l20 -9q-42 -80 -93.5 -123.5t-120.5 -43.5z" />
    <glyph glyph-name="l" unicode="&#x13c;" horiz-adv-x="308" 
d="M80 -12q-48 0 -55.5 25.5t9.5 73.5l209 609l-78 39l3 6l200 44l-239 -694q-13 -39 -12.5 -52t16.5 -13q24 0 62.5 31.5t78.5 106.5l20 -9q-42 -80 -93.5 -123.5t-120.5 -43.5z" />
    <glyph glyph-name="l" unicode="&#x13a;" horiz-adv-x="308" 
d="M80 -12q-48 0 -55.5 25.5t9.5 73.5l209 609l-78 39l3 6l200 44l-239 -694q-13 -39 -12.5 -52t16.5 -13q24 0 62.5 31.5t78.5 106.5l20 -9q-42 -80 -93.5 -123.5t-120.5 -43.5z" />
    <glyph glyph-name="m" unicode="m" horiz-adv-x="895" 
d="M655 -12q-49 0 -60.5 26.5t10.5 72.5l108 230q37 78 43 115t-26 37q-30 0 -65 -35.5t-77 -91.5q-26 -34 -53.5 -75.5t-53.5 -85.5t-48 -88.5t-37 -83.5l-99 -19l127 327q31 79 39.5 115.5t-22.5 36.5q-29 0 -64 -35t-77 -90q-26 -35 -53.5 -76.5t-53.5 -86t-48 -89
t-37 -83.5l-102 -19l181 471l-91 4l8 21l199 32l-142 -358h1q32 63 67.5 119t65.5 97q54 73 99.5 107t96.5 34q31 0 46 -13t16.5 -38.5t-9 -62.5t-30.5 -85l-65 -158h1q32 63 68 119t66 97q54 73 99.5 107t96.5 34q63 0 68.5 -51.5t-39.5 -147.5l-106 -227
q-17 -38 -14 -51.5t18 -13.5q25 0 63.5 31.5t78.5 106.5l20 -9q-42 -80 -93.5 -123.5t-120.5 -43.5z" />
    <glyph glyph-name="n" unicode="n" horiz-adv-x="607" 
d="M367 -12q-49 0 -60.5 26.5t10.5 72.5l108 230q37 78 42.5 115t-26.5 37q-29 0 -64 -35t-77 -90q-26 -35 -53.5 -76.5t-53.5 -86t-48 -89t-37 -83.5l-102 -19l181 471l-91 4l8 21l199 32l-142 -358h1q32 63 67.5 119t65.5 97q54 73 99.5 107t96.5 34q63 0 69 -51.5
t-39 -147.5l-106 -227q-17 -38 -14 -51.5t18 -13.5q24 0 62.5 31.5t79.5 106.5l20 -9q-42 -80 -93.5 -123.5t-120.5 -43.5z" />
    <glyph glyph-name="n" unicode="&#x14b;" horiz-adv-x="607" 
d="M367 -12q-49 0 -60.5 26.5t10.5 72.5l108 230q37 78 42.5 115t-26.5 37q-29 0 -64 -35t-77 -90q-26 -35 -53.5 -76.5t-53.5 -86t-48 -89t-37 -83.5l-102 -19l181 471l-91 4l8 21l199 32l-142 -358h1q32 63 67.5 119t65.5 97q54 73 99.5 107t96.5 34q63 0 69 -51.5
t-39 -147.5l-106 -227q-17 -38 -14 -51.5t18 -13.5q24 0 62.5 31.5t79.5 106.5l20 -9q-42 -80 -93.5 -123.5t-120.5 -43.5z" />
    <glyph glyph-name="n" unicode="&#x148;" horiz-adv-x="607" 
d="M367 -12q-49 0 -60.5 26.5t10.5 72.5l108 230q37 78 42.5 115t-26.5 37q-29 0 -64 -35t-77 -90q-26 -35 -53.5 -76.5t-53.5 -86t-48 -89t-37 -83.5l-102 -19l181 471l-91 4l8 21l199 32l-142 -358h1q32 63 67.5 119t65.5 97q54 73 99.5 107t96.5 34q63 0 69 -51.5
t-39 -147.5l-106 -227q-17 -38 -14 -51.5t18 -13.5q24 0 62.5 31.5t79.5 106.5l20 -9q-42 -80 -93.5 -123.5t-120.5 -43.5z" />
    <glyph glyph-name="n" unicode="&#x146;" horiz-adv-x="607" 
d="M367 -12q-49 0 -60.5 26.5t10.5 72.5l108 230q37 78 42.5 115t-26.5 37q-29 0 -64 -35t-77 -90q-26 -35 -53.5 -76.5t-53.5 -86t-48 -89t-37 -83.5l-102 -19l181 471l-91 4l8 21l199 32l-142 -358h1q32 63 67.5 119t65.5 97q54 73 99.5 107t96.5 34q63 0 69 -51.5
t-39 -147.5l-106 -227q-17 -38 -14 -51.5t18 -13.5q24 0 62.5 31.5t79.5 106.5l20 -9q-42 -80 -93.5 -123.5t-120.5 -43.5z" />
    <glyph glyph-name="n" unicode="&#x144;" horiz-adv-x="607" 
d="M367 -12q-49 0 -60.5 26.5t10.5 72.5l108 230q37 78 42.5 115t-26.5 37q-29 0 -64 -35t-77 -90q-26 -35 -53.5 -76.5t-53.5 -86t-48 -89t-37 -83.5l-102 -19l181 471l-91 4l8 21l199 32l-142 -358h1q32 63 67.5 119t65.5 97q54 73 99.5 107t96.5 34q63 0 69 -51.5
t-39 -147.5l-106 -227q-17 -38 -14 -51.5t18 -13.5q24 0 62.5 31.5t79.5 106.5l20 -9q-42 -80 -93.5 -123.5t-120.5 -43.5z" />
    <glyph glyph-name="n" unicode="&#xf1;" horiz-adv-x="607" 
d="M367 -12q-49 0 -60.5 26.5t10.5 72.5l108 230q37 78 42.5 115t-26.5 37q-29 0 -64 -35t-77 -90q-26 -35 -53.5 -76.5t-53.5 -86t-48 -89t-37 -83.5l-102 -19l181 471l-91 4l8 21l199 32l-142 -358h1q32 63 67.5 119t65.5 97q54 73 99.5 107t96.5 34q63 0 69 -51.5
t-39 -147.5l-106 -227q-17 -38 -14 -51.5t18 -13.5q24 0 62.5 31.5t79.5 106.5l20 -9q-42 -80 -93.5 -123.5t-120.5 -43.5z" />
    <glyph glyph-name="o" unicode="o" horiz-adv-x="543" 
d="M183 -12q-36 0 -64.5 11.5t-49 32.5t-31 49.5t-10.5 62.5q0 67 28 134t74.5 120t106.5 86t125 33q36 0 64.5 -11.5t49 -32t31 -49t10.5 -62.5q0 -68 -27.5 -135t-74 -120t-107 -86t-125.5 -33zM215 16q34 0 69.5 26t64 72.5t46.5 110t18 137.5q0 65 -21.5 96t-59.5 31
q-35 0 -70.5 -26t-64 -72t-46.5 -109.5t-18 -137.5q0 -66 22 -97t60 -31z" />
    <glyph glyph-name="o" unicode="&#x1ecd;" horiz-adv-x="543" 
d="M183 -12q-36 0 -64.5 11.5t-49 32.5t-31 49.5t-10.5 62.5q0 67 28 134t74.5 120t106.5 86t125 33q36 0 64.5 -11.5t49 -32t31 -49t10.5 -62.5q0 -68 -27.5 -135t-74 -120t-107 -86t-125.5 -33zM215 16q34 0 69.5 26t64 72.5t46.5 110t18 137.5q0 65 -21.5 96t-59.5 31
q-35 0 -70.5 -26t-64 -72t-46.5 -109.5t-18 -137.5q0 -66 22 -97t60 -31z" />
    <glyph glyph-name="o" unicode="&#x153;" horiz-adv-x="543" 
d="M183 -12q-36 0 -64.5 11.5t-49 32.5t-31 49.5t-10.5 62.5q0 67 28 134t74.5 120t106.5 86t125 33q36 0 64.5 -11.5t49 -32t31 -49t10.5 -62.5q0 -68 -27.5 -135t-74 -120t-107 -86t-125.5 -33zM215 16q34 0 69.5 26t64 72.5t46.5 110t18 137.5q0 65 -21.5 96t-59.5 31
q-35 0 -70.5 -26t-64 -72t-46.5 -109.5t-18 -137.5q0 -66 22 -97t60 -31z" />
    <glyph glyph-name="o" unicode="&#x151;" horiz-adv-x="543" 
d="M183 -12q-36 0 -64.5 11.5t-49 32.5t-31 49.5t-10.5 62.5q0 67 28 134t74.5 120t106.5 86t125 33q36 0 64.5 -11.5t49 -32t31 -49t10.5 -62.5q0 -68 -27.5 -135t-74 -120t-107 -86t-125.5 -33zM215 16q34 0 69.5 26t64 72.5t46.5 110t18 137.5q0 65 -21.5 96t-59.5 31
q-35 0 -70.5 -26t-64 -72t-46.5 -109.5t-18 -137.5q0 -66 22 -97t60 -31z" />
    <glyph glyph-name="o" unicode="&#x14f;" horiz-adv-x="543" 
d="M183 -12q-36 0 -64.5 11.5t-49 32.5t-31 49.5t-10.5 62.5q0 67 28 134t74.5 120t106.5 86t125 33q36 0 64.5 -11.5t49 -32t31 -49t10.5 -62.5q0 -68 -27.5 -135t-74 -120t-107 -86t-125.5 -33zM215 16q34 0 69.5 26t64 72.5t46.5 110t18 137.5q0 65 -21.5 96t-59.5 31
q-35 0 -70.5 -26t-64 -72t-46.5 -109.5t-18 -137.5q0 -66 22 -97t60 -31z" />
    <glyph glyph-name="o" unicode="&#x14d;" horiz-adv-x="543" 
d="M183 -12q-36 0 -64.5 11.5t-49 32.5t-31 49.5t-10.5 62.5q0 67 28 134t74.5 120t106.5 86t125 33q36 0 64.5 -11.5t49 -32t31 -49t10.5 -62.5q0 -68 -27.5 -135t-74 -120t-107 -86t-125.5 -33zM215 16q34 0 69.5 26t64 72.5t46.5 110t18 137.5q0 65 -21.5 96t-59.5 31
q-35 0 -70.5 -26t-64 -72t-46.5 -109.5t-18 -137.5q0 -66 22 -97t60 -31z" />
    <glyph glyph-name="o" unicode="&#xf8;" horiz-adv-x="543" 
d="M183 -12q-36 0 -64.5 11.5t-49 32.5t-31 49.5t-10.5 62.5q0 67 28 134t74.5 120t106.5 86t125 33q36 0 64.5 -11.5t49 -32t31 -49t10.5 -62.5q0 -68 -27.5 -135t-74 -120t-107 -86t-125.5 -33zM215 16q34 0 69.5 26t64 72.5t46.5 110t18 137.5q0 65 -21.5 96t-59.5 31
q-35 0 -70.5 -26t-64 -72t-46.5 -109.5t-18 -137.5q0 -66 22 -97t60 -31z" />
    <glyph glyph-name="o" unicode="&#xf6;" horiz-adv-x="543" 
d="M183 -12q-36 0 -64.5 11.5t-49 32.5t-31 49.5t-10.5 62.5q0 67 28 134t74.5 120t106.5 86t125 33q36 0 64.5 -11.5t49 -32t31 -49t10.5 -62.5q0 -68 -27.5 -135t-74 -120t-107 -86t-125.5 -33zM215 16q34 0 69.5 26t64 72.5t46.5 110t18 137.5q0 65 -21.5 96t-59.5 31
q-35 0 -70.5 -26t-64 -72t-46.5 -109.5t-18 -137.5q0 -66 22 -97t60 -31z" />
    <glyph glyph-name="o" unicode="&#xf5;" horiz-adv-x="543" 
d="M183 -12q-36 0 -64.5 11.5t-49 32.5t-31 49.5t-10.5 62.5q0 67 28 134t74.5 120t106.5 86t125 33q36 0 64.5 -11.5t49 -32t31 -49t10.5 -62.5q0 -68 -27.5 -135t-74 -120t-107 -86t-125.5 -33zM215 16q34 0 69.5 26t64 72.5t46.5 110t18 137.5q0 65 -21.5 96t-59.5 31
q-35 0 -70.5 -26t-64 -72t-46.5 -109.5t-18 -137.5q0 -66 22 -97t60 -31z" />
    <glyph glyph-name="o" unicode="&#xf4;" horiz-adv-x="543" 
d="M183 -12q-36 0 -64.5 11.5t-49 32.5t-31 49.5t-10.5 62.5q0 67 28 134t74.5 120t106.5 86t125 33q36 0 64.5 -11.5t49 -32t31 -49t10.5 -62.5q0 -68 -27.5 -135t-74 -120t-107 -86t-125.5 -33zM215 16q34 0 69.5 26t64 72.5t46.5 110t18 137.5q0 65 -21.5 96t-59.5 31
q-35 0 -70.5 -26t-64 -72t-46.5 -109.5t-18 -137.5q0 -66 22 -97t60 -31z" />
    <glyph glyph-name="o" unicode="&#xf3;" horiz-adv-x="543" 
d="M183 -12q-36 0 -64.5 11.5t-49 32.5t-31 49.5t-10.5 62.5q0 67 28 134t74.5 120t106.5 86t125 33q36 0 64.5 -11.5t49 -32t31 -49t10.5 -62.5q0 -68 -27.5 -135t-74 -120t-107 -86t-125.5 -33zM215 16q34 0 69.5 26t64 72.5t46.5 110t18 137.5q0 65 -21.5 96t-59.5 31
q-35 0 -70.5 -26t-64 -72t-46.5 -109.5t-18 -137.5q0 -66 22 -97t60 -31z" />
    <glyph glyph-name="o" unicode="&#xf2;" horiz-adv-x="543" 
d="M183 -12q-36 0 -64.5 11.5t-49 32.5t-31 49.5t-10.5 62.5q0 67 28 134t74.5 120t106.5 86t125 33q36 0 64.5 -11.5t49 -32t31 -49t10.5 -62.5q0 -68 -27.5 -135t-74 -120t-107 -86t-125.5 -33zM215 16q34 0 69.5 26t64 72.5t46.5 110t18 137.5q0 65 -21.5 96t-59.5 31
q-35 0 -70.5 -26t-64 -72t-46.5 -109.5t-18 -137.5q0 -66 22 -97t60 -31z" />
    <glyph glyph-name="p" unicode="p" horiz-adv-x="569" 
d="M183 461l-92 4l8 21l198 32l-28 -81q32 37 75.5 58.5t85.5 21.5q59 0 92.5 -33.5t33.5 -93.5q0 -47 -16.5 -96.5t-45.5 -95t-70 -85t-90 -68t-104.5 -43.5t-114.5 -12l-82 -238h-94zM368 463q-27 0 -55 -12t-51 -35l-139 -404q44 -3 86 12t78.5 42t67 63.5t52 76
t33.5 80.5t12 77q0 54 -23 77t-61 23z" />
    <glyph glyph-name="p" unicode="&#xfe;" horiz-adv-x="569" 
d="M183 461l-92 4l8 21l198 32l-28 -81q32 37 75.5 58.5t85.5 21.5q59 0 92.5 -33.5t33.5 -93.5q0 -47 -16.5 -96.5t-45.5 -95t-70 -85t-90 -68t-104.5 -43.5t-114.5 -12l-82 -238h-94zM368 463q-27 0 -55 -12t-51 -35l-139 -404q44 -3 86 12t78.5 42t67 63.5t52 76
t33.5 80.5t12 77q0 54 -23 77t-61 23z" />
    <glyph glyph-name="q" unicode="q" horiz-adv-x="551" 
d="M307 68l39 97h-2q-60 -91 -116 -134t-120 -43q-45 0 -71 29t-26 82q0 45 15.5 93.5t42.5 95t62 88.5t74.5 73.5t80 50t77.5 18.5q35 0 55 -19.5t24 -51.5h2l23 66h88l-262 -761h-94zM115 113q0 -74 52 -74q26 0 58.5 24t64.5 63t60.5 88t46.5 99q33 91 21.5 136.5
t-53.5 45.5q-30 0 -60 -18t-58 -48t-52 -69t-42 -81.5t-28 -85.5t-10 -80z" />
    <glyph glyph-name="r" unicode="r" horiz-adv-x="449" 
d="M188 461l-92 4l8 21l199 32l-132 -340h1q42 82 72.5 136.5t49.5 82.5q42 63 77 91.5t72 28.5q28 0 42.5 -19t14.5 -43q0 -25 -16.5 -46.5t-51.5 -25.5l-45 87q-30 -23 -62 -68.5t-65 -102t-66 -118.5t-64 -118l-21 -54l-102 -19z" />
    <glyph glyph-name="r" unicode="&#x159;" horiz-adv-x="449" 
d="M188 461l-92 4l8 21l199 32l-132 -340h1q42 82 72.5 136.5t49.5 82.5q42 63 77 91.5t72 28.5q28 0 42.5 -19t14.5 -43q0 -25 -16.5 -46.5t-51.5 -25.5l-45 87q-30 -23 -62 -68.5t-65 -102t-66 -118.5t-64 -118l-21 -54l-102 -19z" />
    <glyph glyph-name="r" unicode="&#x157;" horiz-adv-x="449" 
d="M188 461l-92 4l8 21l199 32l-132 -340h1q42 82 72.5 136.5t49.5 82.5q42 63 77 91.5t72 28.5q28 0 42.5 -19t14.5 -43q0 -25 -16.5 -46.5t-51.5 -25.5l-45 87q-30 -23 -62 -68.5t-65 -102t-66 -118.5t-64 -118l-21 -54l-102 -19z" />
    <glyph glyph-name="r" unicode="&#x155;" horiz-adv-x="449" 
d="M188 461l-92 4l8 21l199 32l-132 -340h1q42 82 72.5 136.5t49.5 82.5q42 63 77 91.5t72 28.5q28 0 42.5 -19t14.5 -43q0 -25 -16.5 -46.5t-51.5 -25.5l-45 87q-30 -23 -62 -68.5t-65 -102t-66 -118.5t-64 -118l-21 -54l-102 -19z" />
    <glyph glyph-name="s" unicode="s" horiz-adv-x="391" 
d="M112 -12q-58 0 -89.5 26t-31.5 61q0 28 25 43.5t57 12.5q12 -44 19 -68t12 -35t9.5 -13t10.5 -2q12 0 29.5 4.5t33.5 15t27 27.5t11 41t-9.5 43.5t-28.5 45.5l-44 59q-21 28 -31.5 55t-10.5 51q0 34 17 63.5t44.5 51.5t63 34.5t73.5 12.5q45 0 72 -20t27 -52
q0 -26 -19 -43.5t-59 -15.5q-9 39 -14 60t-9.5 31t-8.5 12t-11 2q-15 0 -33 -5t-34 -14.5t-26.5 -23t-10.5 -31.5q0 -38 38 -89l44 -59q20 -28 32.5 -56t12.5 -56q0 -39 -17.5 -70.5t-45 -53t-61 -33.5t-64.5 -12z" />
    <glyph glyph-name="s" unicode="&#x219;" horiz-adv-x="391" 
d="M112 -12q-58 0 -89.5 26t-31.5 61q0 28 25 43.5t57 12.5q12 -44 19 -68t12 -35t9.5 -13t10.5 -2q12 0 29.5 4.5t33.5 15t27 27.5t11 41t-9.5 43.5t-28.5 45.5l-44 59q-21 28 -31.5 55t-10.5 51q0 34 17 63.5t44.5 51.5t63 34.5t73.5 12.5q45 0 72 -20t27 -52
q0 -26 -19 -43.5t-59 -15.5q-9 39 -14 60t-9.5 31t-8.5 12t-11 2q-15 0 -33 -5t-34 -14.5t-26.5 -23t-10.5 -31.5q0 -38 38 -89l44 -59q20 -28 32.5 -56t12.5 -56q0 -39 -17.5 -70.5t-45 -53t-61 -33.5t-64.5 -12z" />
    <glyph glyph-name="s" unicode="&#x161;" horiz-adv-x="391" 
d="M112 -12q-58 0 -89.5 26t-31.5 61q0 28 25 43.5t57 12.5q12 -44 19 -68t12 -35t9.5 -13t10.5 -2q12 0 29.5 4.5t33.5 15t27 27.5t11 41t-9.5 43.5t-28.5 45.5l-44 59q-21 28 -31.5 55t-10.5 51q0 34 17 63.5t44.5 51.5t63 34.5t73.5 12.5q45 0 72 -20t27 -52
q0 -26 -19 -43.5t-59 -15.5q-9 39 -14 60t-9.5 31t-8.5 12t-11 2q-15 0 -33 -5t-34 -14.5t-26.5 -23t-10.5 -31.5q0 -38 38 -89l44 -59q20 -28 32.5 -56t12.5 -56q0 -39 -17.5 -70.5t-45 -53t-61 -33.5t-64.5 -12z" />
    <glyph glyph-name="s" unicode="&#x15f;" horiz-adv-x="391" 
d="M112 -12q-58 0 -89.5 26t-31.5 61q0 28 25 43.5t57 12.5q12 -44 19 -68t12 -35t9.5 -13t10.5 -2q12 0 29.5 4.5t33.5 15t27 27.5t11 41t-9.5 43.5t-28.5 45.5l-44 59q-21 28 -31.5 55t-10.5 51q0 34 17 63.5t44.5 51.5t63 34.5t73.5 12.5q45 0 72 -20t27 -52
q0 -26 -19 -43.5t-59 -15.5q-9 39 -14 60t-9.5 31t-8.5 12t-11 2q-15 0 -33 -5t-34 -14.5t-26.5 -23t-10.5 -31.5q0 -38 38 -89l44 -59q20 -28 32.5 -56t12.5 -56q0 -39 -17.5 -70.5t-45 -53t-61 -33.5t-64.5 -12z" />
    <glyph glyph-name="s" unicode="&#x15d;" horiz-adv-x="391" 
d="M112 -12q-58 0 -89.5 26t-31.5 61q0 28 25 43.5t57 12.5q12 -44 19 -68t12 -35t9.5 -13t10.5 -2q12 0 29.5 4.5t33.5 15t27 27.5t11 41t-9.5 43.5t-28.5 45.5l-44 59q-21 28 -31.5 55t-10.5 51q0 34 17 63.5t44.5 51.5t63 34.5t73.5 12.5q45 0 72 -20t27 -52
q0 -26 -19 -43.5t-59 -15.5q-9 39 -14 60t-9.5 31t-8.5 12t-11 2q-15 0 -33 -5t-34 -14.5t-26.5 -23t-10.5 -31.5q0 -38 38 -89l44 -59q20 -28 32.5 -56t12.5 -56q0 -39 -17.5 -70.5t-45 -53t-61 -33.5t-64.5 -12z" />
    <glyph glyph-name="s" unicode="&#x15b;" horiz-adv-x="391" 
d="M112 -12q-58 0 -89.5 26t-31.5 61q0 28 25 43.5t57 12.5q12 -44 19 -68t12 -35t9.5 -13t10.5 -2q12 0 29.5 4.5t33.5 15t27 27.5t11 41t-9.5 43.5t-28.5 45.5l-44 59q-21 28 -31.5 55t-10.5 51q0 34 17 63.5t44.5 51.5t63 34.5t73.5 12.5q45 0 72 -20t27 -52
q0 -26 -19 -43.5t-59 -15.5q-9 39 -14 60t-9.5 31t-8.5 12t-11 2q-15 0 -33 -5t-34 -14.5t-26.5 -23t-10.5 -31.5q0 -38 38 -89l44 -59q20 -28 32.5 -56t12.5 -56q0 -39 -17.5 -70.5t-45 -53t-61 -33.5t-64.5 -12z" />
    <glyph glyph-name="s" unicode="&#xdf;" horiz-adv-x="391" 
d="M112 -12q-58 0 -89.5 26t-31.5 61q0 28 25 43.5t57 12.5q12 -44 19 -68t12 -35t9.5 -13t10.5 -2q12 0 29.5 4.5t33.5 15t27 27.5t11 41t-9.5 43.5t-28.5 45.5l-44 59q-21 28 -31.5 55t-10.5 51q0 34 17 63.5t44.5 51.5t63 34.5t73.5 12.5q45 0 72 -20t27 -52
q0 -26 -19 -43.5t-59 -15.5q-9 39 -14 60t-9.5 31t-8.5 12t-11 2q-15 0 -33 -5t-34 -14.5t-26.5 -23t-10.5 -31.5q0 -38 38 -89l44 -59q20 -28 32.5 -56t12.5 -56q0 -39 -17.5 -70.5t-45 -53t-61 -33.5t-64.5 -12z" />
    <glyph glyph-name="t" unicode="t" horiz-adv-x="377" 
d="M93 -12q-49 0 -57.5 26t10.5 73l147 364h-119l20 51h120l45 113h94l-45 -113h143l-20 -51h-144l-144 -359q-16 -38 -14.5 -52t16.5 -14q12 0 29 7.5t36.5 24t40 42.5t40.5 64l20 -9q-42 -80 -95.5 -123.5t-122.5 -43.5z" />
    <glyph glyph-name="t" unicode="&#x21b;" horiz-adv-x="377" 
d="M93 -12q-49 0 -57.5 26t10.5 73l147 364h-119l20 51h120l45 113h94l-45 -113h143l-20 -51h-144l-144 -359q-16 -38 -14.5 -52t16.5 -14q12 0 29 7.5t36.5 24t40 42.5t40.5 64l20 -9q-42 -80 -95.5 -123.5t-122.5 -43.5z" />
    <glyph glyph-name="t" unicode="&#x167;" horiz-adv-x="377" 
d="M93 -12q-49 0 -57.5 26t10.5 73l147 364h-119l20 51h120l45 113h94l-45 -113h143l-20 -51h-144l-144 -359q-16 -38 -14.5 -52t16.5 -14q12 0 29 7.5t36.5 24t40 42.5t40.5 64l20 -9q-42 -80 -95.5 -123.5t-122.5 -43.5z" />
    <glyph glyph-name="t" unicode="&#x165;" horiz-adv-x="377" 
d="M93 -12q-49 0 -57.5 26t10.5 73l147 364h-119l20 51h120l45 113h94l-45 -113h143l-20 -51h-144l-144 -359q-16 -38 -14.5 -52t16.5 -14q12 0 29 7.5t36.5 24t40 42.5t40.5 64l20 -9q-42 -80 -95.5 -123.5t-122.5 -43.5z" />
    <glyph glyph-name="t" unicode="&#x163;" horiz-adv-x="377" 
d="M93 -12q-49 0 -57.5 26t10.5 73l147 364h-119l20 51h120l45 113h94l-45 -113h143l-20 -51h-144l-144 -359q-16 -38 -14.5 -52t16.5 -14q12 0 29 7.5t36.5 24t40 42.5t40.5 64l20 -9q-42 -80 -95.5 -123.5t-122.5 -43.5z" />
    <glyph glyph-name="u" unicode="u" horiz-adv-x="606" 
d="M169 189q-34 -80 -40 -116.5t23 -36.5t64.5 36t77.5 92q25 34 52 75t52.5 85t48 88t39.5 85l99 15l-162 -421q-15 -38 -13.5 -51.5t16.5 -13.5q24 0 62.5 31.5t78.5 106.5l21 -9q-42 -80 -93.5 -123.5t-120.5 -43.5q-49 0 -57.5 25.5t10.5 73.5l98 248h-1
q-29 -58 -63.5 -112t-63.5 -93q-53 -72 -98 -107t-97 -35q-62 0 -68 48.5t38 151.5l116 273l-92 4l8 21l206 32z" />
    <glyph glyph-name="u" unicode="&#x1ee5;" horiz-adv-x="606" 
d="M169 189q-34 -80 -40 -116.5t23 -36.5t64.5 36t77.5 92q25 34 52 75t52.5 85t48 88t39.5 85l99 15l-162 -421q-15 -38 -13.5 -51.5t16.5 -13.5q24 0 62.5 31.5t78.5 106.5l21 -9q-42 -80 -93.5 -123.5t-120.5 -43.5q-49 0 -57.5 25.5t10.5 73.5l98 248h-1
q-29 -58 -63.5 -112t-63.5 -93q-53 -72 -98 -107t-97 -35q-62 0 -68 48.5t38 151.5l116 273l-92 4l8 21l206 32z" />
    <glyph glyph-name="u" unicode="&#x173;" horiz-adv-x="606" 
d="M169 189q-34 -80 -40 -116.5t23 -36.5t64.5 36t77.5 92q25 34 52 75t52.5 85t48 88t39.5 85l99 15l-162 -421q-15 -38 -13.5 -51.5t16.5 -13.5q24 0 62.5 31.5t78.5 106.5l21 -9q-42 -80 -93.5 -123.5t-120.5 -43.5q-49 0 -57.5 25.5t10.5 73.5l98 248h-1
q-29 -58 -63.5 -112t-63.5 -93q-53 -72 -98 -107t-97 -35q-62 0 -68 48.5t38 151.5l116 273l-92 4l8 21l206 32z" />
    <glyph glyph-name="u" unicode="&#x171;" horiz-adv-x="606" 
d="M169 189q-34 -80 -40 -116.5t23 -36.5t64.5 36t77.5 92q25 34 52 75t52.5 85t48 88t39.5 85l99 15l-162 -421q-15 -38 -13.5 -51.5t16.5 -13.5q24 0 62.5 31.5t78.5 106.5l21 -9q-42 -80 -93.5 -123.5t-120.5 -43.5q-49 0 -57.5 25.5t10.5 73.5l98 248h-1
q-29 -58 -63.5 -112t-63.5 -93q-53 -72 -98 -107t-97 -35q-62 0 -68 48.5t38 151.5l116 273l-92 4l8 21l206 32z" />
    <glyph glyph-name="u" unicode="&#x16f;" horiz-adv-x="606" 
d="M169 189q-34 -80 -40 -116.5t23 -36.5t64.5 36t77.5 92q25 34 52 75t52.5 85t48 88t39.5 85l99 15l-162 -421q-15 -38 -13.5 -51.5t16.5 -13.5q24 0 62.5 31.5t78.5 106.5l21 -9q-42 -80 -93.5 -123.5t-120.5 -43.5q-49 0 -57.5 25.5t10.5 73.5l98 248h-1
q-29 -58 -63.5 -112t-63.5 -93q-53 -72 -98 -107t-97 -35q-62 0 -68 48.5t38 151.5l116 273l-92 4l8 21l206 32z" />
    <glyph glyph-name="u" unicode="&#x16d;" horiz-adv-x="606" 
d="M169 189q-34 -80 -40 -116.5t23 -36.5t64.5 36t77.5 92q25 34 52 75t52.5 85t48 88t39.5 85l99 15l-162 -421q-15 -38 -13.5 -51.5t16.5 -13.5q24 0 62.5 31.5t78.5 106.5l21 -9q-42 -80 -93.5 -123.5t-120.5 -43.5q-49 0 -57.5 25.5t10.5 73.5l98 248h-1
q-29 -58 -63.5 -112t-63.5 -93q-53 -72 -98 -107t-97 -35q-62 0 -68 48.5t38 151.5l116 273l-92 4l8 21l206 32z" />
    <glyph glyph-name="u" unicode="&#x16b;" horiz-adv-x="606" 
d="M169 189q-34 -80 -40 -116.5t23 -36.5t64.5 36t77.5 92q25 34 52 75t52.5 85t48 88t39.5 85l99 15l-162 -421q-15 -38 -13.5 -51.5t16.5 -13.5q24 0 62.5 31.5t78.5 106.5l21 -9q-42 -80 -93.5 -123.5t-120.5 -43.5q-49 0 -57.5 25.5t10.5 73.5l98 248h-1
q-29 -58 -63.5 -112t-63.5 -93q-53 -72 -98 -107t-97 -35q-62 0 -68 48.5t38 151.5l116 273l-92 4l8 21l206 32z" />
    <glyph glyph-name="u" unicode="&#x169;" horiz-adv-x="606" 
d="M169 189q-34 -80 -40 -116.5t23 -36.5t64.5 36t77.5 92q25 34 52 75t52.5 85t48 88t39.5 85l99 15l-162 -421q-15 -38 -13.5 -51.5t16.5 -13.5q24 0 62.5 31.5t78.5 106.5l21 -9q-42 -80 -93.5 -123.5t-120.5 -43.5q-49 0 -57.5 25.5t10.5 73.5l98 248h-1
q-29 -58 -63.5 -112t-63.5 -93q-53 -72 -98 -107t-97 -35q-62 0 -68 48.5t38 151.5l116 273l-92 4l8 21l206 32z" />
    <glyph glyph-name="u" unicode="&#xfc;" horiz-adv-x="606" 
d="M169 189q-34 -80 -40 -116.5t23 -36.5t64.5 36t77.5 92q25 34 52 75t52.5 85t48 88t39.5 85l99 15l-162 -421q-15 -38 -13.5 -51.5t16.5 -13.5q24 0 62.5 31.5t78.5 106.5l21 -9q-42 -80 -93.5 -123.5t-120.5 -43.5q-49 0 -57.5 25.5t10.5 73.5l98 248h-1
q-29 -58 -63.5 -112t-63.5 -93q-53 -72 -98 -107t-97 -35q-62 0 -68 48.5t38 151.5l116 273l-92 4l8 21l206 32z" />
    <glyph glyph-name="u" unicode="&#xfb;" horiz-adv-x="606" 
d="M169 189q-34 -80 -40 -116.5t23 -36.5t64.5 36t77.5 92q25 34 52 75t52.5 85t48 88t39.5 85l99 15l-162 -421q-15 -38 -13.5 -51.5t16.5 -13.5q24 0 62.5 31.5t78.5 106.5l21 -9q-42 -80 -93.5 -123.5t-120.5 -43.5q-49 0 -57.5 25.5t10.5 73.5l98 248h-1
q-29 -58 -63.5 -112t-63.5 -93q-53 -72 -98 -107t-97 -35q-62 0 -68 48.5t38 151.5l116 273l-92 4l8 21l206 32z" />
    <glyph glyph-name="u" unicode="&#xfa;" horiz-adv-x="606" 
d="M169 189q-34 -80 -40 -116.5t23 -36.5t64.5 36t77.5 92q25 34 52 75t52.5 85t48 88t39.5 85l99 15l-162 -421q-15 -38 -13.5 -51.5t16.5 -13.5q24 0 62.5 31.5t78.5 106.5l21 -9q-42 -80 -93.5 -123.5t-120.5 -43.5q-49 0 -57.5 25.5t10.5 73.5l98 248h-1
q-29 -58 -63.5 -112t-63.5 -93q-53 -72 -98 -107t-97 -35q-62 0 -68 48.5t38 151.5l116 273l-92 4l8 21l206 32z" />
    <glyph glyph-name="u" unicode="&#xf9;" horiz-adv-x="606" 
d="M169 189q-34 -80 -40 -116.5t23 -36.5t64.5 36t77.5 92q25 34 52 75t52.5 85t48 88t39.5 85l99 15l-162 -421q-15 -38 -13.5 -51.5t16.5 -13.5q24 0 62.5 31.5t78.5 106.5l21 -9q-42 -80 -93.5 -123.5t-120.5 -43.5q-49 0 -57.5 25.5t10.5 73.5l98 248h-1
q-29 -58 -63.5 -112t-63.5 -93q-53 -72 -98 -107t-97 -35q-62 0 -68 48.5t38 151.5l116 273l-92 4l8 21l206 32z" />
    <glyph glyph-name="v" unicode="v" horiz-adv-x="560" 
d="M538 423q0 -83 -27.5 -161.5t-74.5 -139.5t-109 -97.5t-130 -36.5q-33 0 -57.5 9.5t-40.5 26t-23.5 38t-7.5 46.5q0 70 60 151t164 159h-200l-47 -81h-22l74 165h311q-48 -39 -93.5 -80t-81.5 -83t-57.5 -84.5t-21.5 -84.5q0 -50 26 -72t71 -22q41 0 81 18.5t74.5 53
t61 83t40.5 109.5l-79 106q-5 34 12 52.5t40 18.5q24 0 40.5 -19t16.5 -75z" />
    <glyph glyph-name="w" unicode="w" horiz-adv-x="820" 
d="M171 -12q-52 0 -77.5 29.5t-25.5 81.5q0 70 56.5 151t170.5 168h-204l-47 -81h-22l74 165h316q-48 -40 -94.5 -80.5t-83.5 -82.5t-59.5 -85.5t-22.5 -88.5q0 -42 23.5 -65.5t68.5 -23.5q55 0 113 35q-11 42 -11 87q0 55 17.5 112t45.5 103t63 75t70 29q26 0 41 -16.5
t15 -50.5q0 -37 -21 -100.5t-79 -137.5q-36 -47 -78 -89q41 -47 110 -47q39 0 77 18t69 52.5t53.5 83t30.5 110.5l-79 106q-5 34 12 52.5t40 18.5q24 0 40.5 -19t16.5 -75q0 -73 -21 -150t-59 -140.5t-92 -104t-121 -40.5q-47 0 -78.5 24.5t-49.5 64.5q-48 -39 -99 -64
t-99 -25zM378 250q0 -62 26 -105q38 33 71 75q47 57 63 98t16 67q0 27 -13.5 41t-35.5 14q-21 0 -43.5 -14t-41 -39.5t-30.5 -60t-12 -76.5z" />
    <glyph glyph-name="w" unicode="&#x1e85;" horiz-adv-x="820" 
d="M171 -12q-52 0 -77.5 29.5t-25.5 81.5q0 70 56.5 151t170.5 168h-204l-47 -81h-22l74 165h316q-48 -40 -94.5 -80.5t-83.5 -82.5t-59.5 -85.5t-22.5 -88.5q0 -42 23.5 -65.5t68.5 -23.5q55 0 113 35q-11 42 -11 87q0 55 17.5 112t45.5 103t63 75t70 29q26 0 41 -16.5
t15 -50.5q0 -37 -21 -100.5t-79 -137.5q-36 -47 -78 -89q41 -47 110 -47q39 0 77 18t69 52.5t53.5 83t30.5 110.5l-79 106q-5 34 12 52.5t40 18.5q24 0 40.5 -19t16.5 -75q0 -73 -21 -150t-59 -140.5t-92 -104t-121 -40.5q-47 0 -78.5 24.5t-49.5 64.5q-48 -39 -99 -64
t-99 -25zM378 250q0 -62 26 -105q38 33 71 75q47 57 63 98t16 67q0 27 -13.5 41t-35.5 14q-21 0 -43.5 -14t-41 -39.5t-30.5 -60t-12 -76.5z" />
    <glyph glyph-name="w" unicode="&#x1e83;" horiz-adv-x="820" 
d="M171 -12q-52 0 -77.5 29.5t-25.5 81.5q0 70 56.5 151t170.5 168h-204l-47 -81h-22l74 165h316q-48 -40 -94.5 -80.5t-83.5 -82.5t-59.5 -85.5t-22.5 -88.5q0 -42 23.5 -65.5t68.5 -23.5q55 0 113 35q-11 42 -11 87q0 55 17.5 112t45.5 103t63 75t70 29q26 0 41 -16.5
t15 -50.5q0 -37 -21 -100.5t-79 -137.5q-36 -47 -78 -89q41 -47 110 -47q39 0 77 18t69 52.5t53.5 83t30.5 110.5l-79 106q-5 34 12 52.5t40 18.5q24 0 40.5 -19t16.5 -75q0 -73 -21 -150t-59 -140.5t-92 -104t-121 -40.5q-47 0 -78.5 24.5t-49.5 64.5q-48 -39 -99 -64
t-99 -25zM378 250q0 -62 26 -105q38 33 71 75q47 57 63 98t16 67q0 27 -13.5 41t-35.5 14q-21 0 -43.5 -14t-41 -39.5t-30.5 -60t-12 -76.5z" />
    <glyph glyph-name="w" unicode="&#x1e81;" horiz-adv-x="820" 
d="M171 -12q-52 0 -77.5 29.5t-25.5 81.5q0 70 56.5 151t170.5 168h-204l-47 -81h-22l74 165h316q-48 -40 -94.5 -80.5t-83.5 -82.5t-59.5 -85.5t-22.5 -88.5q0 -42 23.5 -65.5t68.5 -23.5q55 0 113 35q-11 42 -11 87q0 55 17.5 112t45.5 103t63 75t70 29q26 0 41 -16.5
t15 -50.5q0 -37 -21 -100.5t-79 -137.5q-36 -47 -78 -89q41 -47 110 -47q39 0 77 18t69 52.5t53.5 83t30.5 110.5l-79 106q-5 34 12 52.5t40 18.5q24 0 40.5 -19t16.5 -75q0 -73 -21 -150t-59 -140.5t-92 -104t-121 -40.5q-47 0 -78.5 24.5t-49.5 64.5q-48 -39 -99 -64
t-99 -25zM378 250q0 -62 26 -105q38 33 71 75q47 57 63 98t16 67q0 27 -13.5 41t-35.5 14q-21 0 -43.5 -14t-41 -39.5t-30.5 -60t-12 -76.5z" />
    <glyph glyph-name="w" unicode="&#x175;" horiz-adv-x="820" 
d="M171 -12q-52 0 -77.5 29.5t-25.5 81.5q0 70 56.5 151t170.5 168h-204l-47 -81h-22l74 165h316q-48 -40 -94.5 -80.5t-83.5 -82.5t-59.5 -85.5t-22.5 -88.5q0 -42 23.5 -65.5t68.5 -23.5q55 0 113 35q-11 42 -11 87q0 55 17.5 112t45.5 103t63 75t70 29q26 0 41 -16.5
t15 -50.5q0 -37 -21 -100.5t-79 -137.5q-36 -47 -78 -89q41 -47 110 -47q39 0 77 18t69 52.5t53.5 83t30.5 110.5l-79 106q-5 34 12 52.5t40 18.5q24 0 40.5 -19t16.5 -75q0 -73 -21 -150t-59 -140.5t-92 -104t-121 -40.5q-47 0 -78.5 24.5t-49.5 64.5q-48 -39 -99 -64
t-99 -25zM378 250q0 -62 26 -105q38 33 71 75q47 57 63 98t16 67q0 27 -13.5 41t-35.5 14q-21 0 -43.5 -14t-41 -39.5t-30.5 -60t-12 -76.5z" />
    <glyph glyph-name="x" unicode="x" horiz-adv-x="586" 
d="M39 -12q-32 0 -49.5 18.5t-17.5 41.5q0 30 20.5 53t56.5 25q5 -50 11.5 -71t19.5 -21q16 0 35.5 14.5t42 40t47 59.5t48.5 73l-24 181q-5 33 -11 53.5t-23 20.5q-23 0 -55 -32t-64 -85l-18 13q41 66 83 105.5t94 39.5q15 0 28 -3.5t24 -15t19.5 -33.5t13.5 -59l11 -86
q34 54 64.5 92t57.5 61t51.5 33.5t47.5 10.5q32 0 49.5 -18.5t17.5 -41.5q0 -30 -20.5 -53t-56.5 -25q-5 50 -11.5 71t-19.5 21q-16 0 -36 -15t-42.5 -40.5t-47 -60.5t-49.5 -74l23 -177q5 -33 11.5 -53.5t23.5 -20.5q23 0 55 31.5t65 84.5l17 -12q-41 -66 -83.5 -106
t-93.5 -40q-15 0 -28 3.5t-24 15.5t-19.5 34t-13.5 58l-11 83q-34 -54 -64 -91t-57 -60t-51 -33t-47 -10z" />
    <glyph glyph-name="y" unicode="y" horiz-adv-x="575" 
d="M-92 -260q-74 0 -74 54q0 14 7.5 27t22.5 23q19 -17 37.5 -25t44.5 -8q19 0 40.5 6.5t47.5 25t57.5 51.5t71.5 85l-5 478h-88l1 21l181 40l2 -419l180 237q38 51 65 85.5t47 55.5t36 30.5t33 9.5q18 0 30.5 -12t12.5 -32q0 -12 -3.5 -22.5t-10.5 -15.5q-30 -9 -55.5 -19
t-49.5 -25.5t-48.5 -39.5t-53.5 -61l-241 -313q-36 -47 -74 -90t-75 -75.5t-72.5 -52t-66.5 -19.5z" />
    <glyph glyph-name="y" unicode="&#x1ef3;" horiz-adv-x="575" 
d="M-92 -260q-74 0 -74 54q0 14 7.5 27t22.5 23q19 -17 37.5 -25t44.5 -8q19 0 40.5 6.5t47.5 25t57.5 51.5t71.5 85l-5 478h-88l1 21l181 40l2 -419l180 237q38 51 65 85.5t47 55.5t36 30.5t33 9.5q18 0 30.5 -12t12.5 -32q0 -12 -3.5 -22.5t-10.5 -15.5q-30 -9 -55.5 -19
t-49.5 -25.5t-48.5 -39.5t-53.5 -61l-241 -313q-36 -47 -74 -90t-75 -75.5t-72.5 -52t-66.5 -19.5z" />
    <glyph glyph-name="y" unicode="&#x233;" horiz-adv-x="575" 
d="M-92 -260q-74 0 -74 54q0 14 7.5 27t22.5 23q19 -17 37.5 -25t44.5 -8q19 0 40.5 6.5t47.5 25t57.5 51.5t71.5 85l-5 478h-88l1 21l181 40l2 -419l180 237q38 51 65 85.5t47 55.5t36 30.5t33 9.5q18 0 30.5 -12t12.5 -32q0 -12 -3.5 -22.5t-10.5 -15.5q-30 -9 -55.5 -19
t-49.5 -25.5t-48.5 -39.5t-53.5 -61l-241 -313q-36 -47 -74 -90t-75 -75.5t-72.5 -52t-66.5 -19.5z" />
    <glyph glyph-name="y" unicode="&#x177;" horiz-adv-x="575" 
d="M-92 -260q-74 0 -74 54q0 14 7.5 27t22.5 23q19 -17 37.5 -25t44.5 -8q19 0 40.5 6.5t47.5 25t57.5 51.5t71.5 85l-5 478h-88l1 21l181 40l2 -419l180 237q38 51 65 85.5t47 55.5t36 30.5t33 9.5q18 0 30.5 -12t12.5 -32q0 -12 -3.5 -22.5t-10.5 -15.5q-30 -9 -55.5 -19
t-49.5 -25.5t-48.5 -39.5t-53.5 -61l-241 -313q-36 -47 -74 -90t-75 -75.5t-72.5 -52t-66.5 -19.5z" />
    <glyph glyph-name="y" unicode="&#xff;" horiz-adv-x="575" 
d="M-92 -260q-74 0 -74 54q0 14 7.5 27t22.5 23q19 -17 37.5 -25t44.5 -8q19 0 40.5 6.5t47.5 25t57.5 51.5t71.5 85l-5 478h-88l1 21l181 40l2 -419l180 237q38 51 65 85.5t47 55.5t36 30.5t33 9.5q18 0 30.5 -12t12.5 -32q0 -12 -3.5 -22.5t-10.5 -15.5q-30 -9 -55.5 -19
t-49.5 -25.5t-48.5 -39.5t-53.5 -61l-241 -313q-36 -47 -74 -90t-75 -75.5t-72.5 -52t-66.5 -19.5z" />
    <glyph glyph-name="y" unicode="&#xfd;" horiz-adv-x="575" 
d="M-92 -260q-74 0 -74 54q0 14 7.5 27t22.5 23q19 -17 37.5 -25t44.5 -8q19 0 40.5 6.5t47.5 25t57.5 51.5t71.5 85l-5 478h-88l1 21l181 40l2 -419l180 237q38 51 65 85.5t47 55.5t36 30.5t33 9.5q18 0 30.5 -12t12.5 -32q0 -12 -3.5 -22.5t-10.5 -15.5q-30 -9 -55.5 -19
t-49.5 -25.5t-48.5 -39.5t-53.5 -61l-241 -313q-36 -47 -74 -90t-75 -75.5t-72.5 -52t-66.5 -19.5z" />
    <glyph glyph-name="z" unicode="z" horiz-adv-x="510" 
d="M151 502h405l-319 -269l60 -134q25 -56 43 -77t41 -21q15 0 27.5 9t18 29t3 51t-17.5 76l19 8q35 -101 13.5 -152.5t-87.5 -51.5q-24 0 -45.5 6t-41.5 21.5t-39.5 41t-39.5 64.5l-32 63l-94 -79q-20 -17 -20.5 -35.5t8.5 -53.5q-14 -7 -28.5 -8t-26 2.5t-18.5 11.5t-7 19
q0 12 9.5 25.5t38.5 37.5l393 332h-266l-45 -89h-20z" />
    <glyph glyph-name="z" unicode="&#x17e;" horiz-adv-x="510" 
d="M151 502h405l-319 -269l60 -134q25 -56 43 -77t41 -21q15 0 27.5 9t18 29t3 51t-17.5 76l19 8q35 -101 13.5 -152.5t-87.5 -51.5q-24 0 -45.5 6t-41.5 21.5t-39.5 41t-39.5 64.5l-32 63l-94 -79q-20 -17 -20.5 -35.5t8.5 -53.5q-14 -7 -28.5 -8t-26 2.5t-18.5 11.5t-7 19
q0 12 9.5 25.5t38.5 37.5l393 332h-266l-45 -89h-20z" />
    <glyph glyph-name="z" unicode="&#x17c;" horiz-adv-x="510" 
d="M151 502h405l-319 -269l60 -134q25 -56 43 -77t41 -21q15 0 27.5 9t18 29t3 51t-17.5 76l19 8q35 -101 13.5 -152.5t-87.5 -51.5q-24 0 -45.5 6t-41.5 21.5t-39.5 41t-39.5 64.5l-32 63l-94 -79q-20 -17 -20.5 -35.5t8.5 -53.5q-14 -7 -28.5 -8t-26 2.5t-18.5 11.5t-7 19
q0 12 9.5 25.5t38.5 37.5l393 332h-266l-45 -89h-20z" />
    <glyph glyph-name="z" unicode="&#x17a;" horiz-adv-x="510" 
d="M151 502h405l-319 -269l60 -134q25 -56 43 -77t41 -21q15 0 27.5 9t18 29t3 51t-17.5 76l19 8q35 -101 13.5 -152.5t-87.5 -51.5q-24 0 -45.5 6t-41.5 21.5t-39.5 41t-39.5 64.5l-32 63l-94 -79q-20 -17 -20.5 -35.5t8.5 -53.5q-14 -7 -28.5 -8t-26 2.5t-18.5 11.5t-7 19
q0 12 9.5 25.5t38.5 37.5l393 332h-266l-45 -89h-20z" />
    <glyph glyph-name="uni00A0" unicode="&#xa0;" horiz-adv-x="240" 
 />
    <glyph glyph-name="uni00AD" unicode="&#xad;" horiz-adv-x="437" 
d="M84 288h294l-18 -53h-294z" />
    <glyph glyph-name="paragraph" unicode="&#xb6;" horiz-adv-x="584" 
d="M301 286h-11q-86 0 -136.5 44t-50.5 117q0 65 30.5 121.5t87 98.5t137 66.5t180.5 24.5h157l-7 -25l-46 -3q-23 -2 -37 -8.5t-21 -27.5l-238 -779l-83 -51l133 441q-30 -11 -61 -16l-143 -470l-41 -26z" />
    <glyph glyph-name="periodcentered" unicode="&#xb7;" horiz-adv-x="276" 
d="M140 195q-27 0 -46 19.5t-19 47.5q0 27 19 46.5t46 19.5q29 0 48 -19.5t19 -46.5q0 -28 -19 -47.5t-48 -19.5z" />
    <glyph glyph-name="glyph65" horiz-adv-x="816" 
d="M355 -12q-72 0 -126.5 21.5t-89.5 61.5t-50.5 96t-8.5 124h610q12 36 18.5 74.5t6.5 78.5q0 67 -19.5 117t-53.5 83t-80.5 49t-99.5 16q-59 0 -109.5 -17.5t-93 -50.5t-75.5 -79.5t-56 -103.5h-24q24 78 65.5 137.5t95 99.5t116 60t128.5 20t122 -20t97.5 -57.5t65 -92.5
t23.5 -125q0 -87 -34 -174.5t-95.5 -158t-146.5 -115t-186 -44.5zM366 18q50 0 96 17t85.5 48t72 73.5t54.5 92.5h-493q-8 -115 40 -173t145 -58z" />
    <glyph glyph-name="glyph66" horiz-adv-x="324" 
d="M91 -12q-48 0 -56 25.5t10 73.5l144 374l-92 4l8 21l200 32l-165 -427q-15 -38 -13.5 -51.5t17.5 -13.5q24 0 62.5 31.5t78.5 106.5l20 -9q-42 -80 -93.5 -123.5t-120.5 -43.5z" />
    <glyph glyph-name="glyph67" horiz-adv-x="285" 
d="M-227 -243q49 31 83.5 55.5t61.5 53t50 67t47 98.5l174 430l-91 4l8 21l200 32l-203 -502q-17 -41 -30 -69t-29.5 -49t-39 -38t-57.5 -35l-166 -85z" />
    <glyph glyph-name="uni0410" unicode="&#x410;" horiz-adv-x="816" 
d="M-133 24l44 3q23 2 43.5 9.5t38.5 24.5l792 721h18l-178 -719q-5 -21 3.5 -27.5t30.5 -8.5l44 -3l-7 -24h-282l7 24l46 3q23 2 37 8.5t19 27.5l55 216h-293l-238 -218q-17 -16 -18.5 -24t22.5 -10l60 -3l-8 -24h-244zM588 319l79 309l-338 -309h259z" />
    <glyph glyph-name="uni0411" unicode="&#x411;" horiz-adv-x="753" 
d="M280 695q7 21 -2.5 27.5t-31.5 8.5l-44 3l8 24h545l-34 -222h-18l-50 174q-3 11 -7 13.5t-16 2.5h-239l-90 -294h89q148 0 223.5 -43t75.5 -130q0 -55 -29 -102.5t-82 -82t-127.5 -54.5t-165.5 -20h-307l7 24l46 3q23 2 36.5 8.5t19.5 27.5zM268 31q70 0 127 16t97 46
t61.5 72t21.5 94q0 75 -51 108.5t-152 33.5h-80l-114 -370h90z" />
    <glyph glyph-name="uni0412" unicode="&#x412;" horiz-adv-x="747" 
d="M-15 24l46 3q23 2 36 8.5t20 27.5l193 632q7 21 -3 27.5t-31 8.5l-44 3l8 24h279q63 0 112 -7t83.5 -23t52 -41.5t17.5 -62.5q-1 -39 -20 -76t-54.5 -66t-86 -49.5t-114.5 -26.5v-1q45 -2 85 -11.5t70 -28t47.5 -46.5t17.5 -65q0 -46 -25 -91.5t-74.5 -81.5t-124.5 -58.5
t-175 -22.5h-322zM415 416q59 0 102.5 20.5t72 51.5t42.5 67.5t14 69.5q0 56 -40.5 79t-115.5 23h-99l-94 -311h118zM295 31q80 0 135.5 21.5t90 55.5t50 75.5t15.5 81.5q0 65 -47.5 92.5t-130.5 27.5h-121l-109 -354h117z" />
    <glyph glyph-name="uni0403" unicode="&#x403;" horiz-adv-x="664" 
d="M-15 24l46 3q23 2 36.5 8.5t19.5 27.5l193 632q7 21 -2.5 27.5t-31.5 8.5l-44 3l8 24h550l-34 -222h-18l-50 174q-3 11 -7 13.5t-16 2.5h-244l-203 -663q-6 -21 3.5 -27.5t32.5 -7.5l85 -2l-8 -26h-323z" />
    <glyph glyph-name="uni0403" unicode="&#x492;" horiz-adv-x="664" 
d="M-15 24l46 3q23 2 36.5 8.5t19.5 27.5l193 632q7 21 -2.5 27.5t-31.5 8.5l-44 3l8 24h550l-34 -222h-18l-50 174q-3 11 -7 13.5t-16 2.5h-244l-203 -663q-6 -21 3.5 -27.5t32.5 -7.5l85 -2l-8 -26h-323z" />
    <glyph glyph-name="uni0403" unicode="&#x413;" horiz-adv-x="664" 
d="M-15 24l46 3q23 2 36.5 8.5t19.5 27.5l193 632q7 21 -2.5 27.5t-31.5 8.5l-44 3l8 24h550l-34 -222h-18l-50 174q-3 11 -7 13.5t-16 2.5h-244l-203 -663q-6 -21 3.5 -27.5t32.5 -7.5l85 -2l-8 -26h-323z" />
    <glyph glyph-name="uni0414" unicode="&#x414;" horiz-adv-x="801" 
d="M-64 -159h-17l66 190h82q30 41 64.5 100t72 139.5t77.5 185.5t81 239q7 21 -3 27.5t-31 8.5l-44 3l7 24h610l-7 -24l-46 -3q-23 -2 -36 -8.5t-20 -27.5l-203 -664h104l-50 -190h-17l-30 147q-2 7 -6.5 9.5t-15.5 2.5h-478q-12 0 -18 -2.5t-12 -9.5zM701 727h-290
q-45 -144 -86 -254.5t-79 -194.5t-71.5 -144.5t-63.5 -102.5h377z" />
    <glyph glyph-name="uni0401" unicode="&#x401;" horiz-adv-x="751" 
d="M-15 24l46 3q23 2 36.5 8.5t19.5 27.5l194 632q6 21 -3.5 27.5t-30.5 8.5l-44 3l7 24h557l-35 -222h-18l-46 174q-3 11 -7 13.5t-17 2.5h-253l-96 -313h150q13 0 17 2.5t9 10.5l76 118h18l-90 -297h-18l-5 117q0 8 -2.5 10.5t-15.5 2.5h-150l-105 -345h296q12 0 17 2.5
t15 11.5l195 178h18l-137 -224h-605z" />
    <glyph glyph-name="uni0401" unicode="&#x415;" horiz-adv-x="751" 
d="M-15 24l46 3q23 2 36.5 8.5t19.5 27.5l194 632q6 21 -3.5 27.5t-30.5 8.5l-44 3l7 24h557l-35 -222h-18l-46 174q-3 11 -7 13.5t-17 2.5h-253l-96 -313h150q13 0 17 2.5t9 10.5l76 118h18l-90 -297h-18l-5 117q0 8 -2.5 10.5t-15.5 2.5h-150l-105 -345h296q12 0 17 2.5
t15 11.5l195 178h18l-137 -224h-605z" />
    <glyph glyph-name="uni0416" unicode="&#x416;" horiz-adv-x="1157" 
d="M-70 0l559 427l-197 275q-11 16 -23 21.5t-42 7.5l-51 3l8 24h264l-8 -24l-65 -3q-48 -3 -33 -24l234 -327l96 315q7 21 -2.5 27.5t-31.5 8.5l-44 3l8 24h282l-8 -24l-46 -3q-23 -2 -36.5 -8.5t-20.5 -27.5l-96 -316l37 28l44 35l1 -1l352 266q13 10 9.5 16t-28.5 8
l-63 3l8 24h264l-8 -24l-53 -3q-30 -2 -48 -7.5t-38 -21.5l-379 -285l292 -417h-127l-264 378l-96 -315q-6 -21 3.5 -27.5t31.5 -8.5l44 -3l-7 -24h-282l7 24l46 3q23 2 36.5 8.5t19.5 27.5l96 313l-493 -376h-152z" />
    <glyph glyph-name="uni0416" unicode="&#x496;" horiz-adv-x="1157" 
d="M-70 0l559 427l-197 275q-11 16 -23 21.5t-42 7.5l-51 3l8 24h264l-8 -24l-65 -3q-48 -3 -33 -24l234 -327l96 315q7 21 -2.5 27.5t-31.5 8.5l-44 3l8 24h282l-8 -24l-46 -3q-23 -2 -36.5 -8.5t-20.5 -27.5l-96 -316l37 28l44 35l1 -1l352 266q13 10 9.5 16t-28.5 8
l-63 3l8 24h264l-8 -24l-53 -3q-30 -2 -48 -7.5t-38 -21.5l-379 -285l292 -417h-127l-264 378l-96 -315q-6 -21 3.5 -27.5t31.5 -8.5l44 -3l-7 -24h-282l7 24l46 3q23 2 36.5 8.5t19.5 27.5l96 313l-493 -376h-152z" />
    <glyph glyph-name="uni0417" unicode="&#x417;" horiz-adv-x="713" 
d="M267 20q67 0 118.5 18t86.5 49t52.5 71t17.5 84q0 63 -39.5 103t-120.5 40h-87l10 31h83q54 0 95.5 16.5t70 44t43.5 63t15 72.5q0 56 -32 93t-97 37q-23 0 -37.5 -1.5t-26.5 -3.5q-17 -4 -28 -9.5t-28 -24.5l-146 -159h-18l92 204q42 15 92.5 21t111.5 6q56 0 98.5 -13
t70.5 -35t42 -51t14 -60q0 -35 -17.5 -70t-52 -65t-86.5 -51t-121 -28v-2q52 0 92 -12.5t66.5 -34t40 -50.5t13.5 -63q0 -44 -23 -88.5t-70.5 -81t-120.5 -59.5t-173 -23q-33 0 -59.5 1.5t-49 4.5t-41.5 8t-38 12l31 237h18l38 -185q5 -26 28 -36q12 -5 28.5 -7.5t43.5 -2.5
z" />
    <glyph glyph-name="uni0418" unicode="&#x418;" horiz-adv-x="898" 
d="M-15 24l46 3q23 2 36.5 8.5t19.5 27.5l193 632q7 21 -2.5 27.5t-31.5 8.5l-44 3l8 24h282l-8 -24l-46 -3q-23 -2 -36.5 -8.5t-20.5 -27.5l-160 -524l559 497l8 27q7 21 -2.5 27.5t-31.5 8.5l-44 3l8 24h282l-8 -24l-46 -3q-22 -2 -35.5 -8.5t-20.5 -27.5l-193 -632
q-6 -21 3.5 -27.5t30.5 -8.5l44 -3l-7 -24h-282l7 24l46 3q23 2 36.5 8.5t19.5 27.5l166 541l-559 -497l-14 -44q-6 -21 3.5 -27.5t31.5 -8.5l44 -3l-7 -24h-282z" />
    <glyph glyph-name="uni0418" unicode="&#x4e2;" horiz-adv-x="898" 
d="M-15 24l46 3q23 2 36.5 8.5t19.5 27.5l193 632q7 21 -2.5 27.5t-31.5 8.5l-44 3l8 24h282l-8 -24l-46 -3q-23 -2 -36.5 -8.5t-20.5 -27.5l-160 -524l559 497l8 27q7 21 -2.5 27.5t-31.5 8.5l-44 3l8 24h282l-8 -24l-46 -3q-22 -2 -35.5 -8.5t-20.5 -27.5l-193 -632
q-6 -21 3.5 -27.5t30.5 -8.5l44 -3l-7 -24h-282l7 24l46 3q23 2 36.5 8.5t19.5 27.5l166 541l-559 -497l-14 -44q-6 -21 3.5 -27.5t31.5 -8.5l44 -3l-7 -24h-282z" />
    <glyph glyph-name="uni0418" unicode="&#x419;" horiz-adv-x="898" 
d="M-15 24l46 3q23 2 36.5 8.5t19.5 27.5l193 632q7 21 -2.5 27.5t-31.5 8.5l-44 3l8 24h282l-8 -24l-46 -3q-23 -2 -36.5 -8.5t-20.5 -27.5l-160 -524l559 497l8 27q7 21 -2.5 27.5t-31.5 8.5l-44 3l8 24h282l-8 -24l-46 -3q-22 -2 -35.5 -8.5t-20.5 -27.5l-193 -632
q-6 -21 3.5 -27.5t30.5 -8.5l44 -3l-7 -24h-282l7 24l46 3q23 2 36.5 8.5t19.5 27.5l166 541l-559 -497l-14 -44q-6 -21 3.5 -27.5t31.5 -8.5l44 -3l-7 -24h-282z" />
    <glyph glyph-name="uni040C" unicode="&#x40c;" horiz-adv-x="828" 
d="M-15 24l46 3q23 2 36 8.5t20 27.5l193 632q7 21 -3 27.5t-31 8.5l-44 3l8 24h282l-8 -24l-46 -3q-23 -2 -36 -8.5t-20 -27.5l-96 -314l490 326q13 9 9 15.5t-28 8.5l-63 3l8 24h270l-7 -24l-53 -3q-30 -2 -48 -8.5t-39 -20.5l-437 -290l369 -412h-127l-346 376l-96 -313
q-7 -21 3 -27.5t32 -8.5l44 -3l-7 -24h-282z" />
    <glyph glyph-name="uni040C" unicode="&#x49a;" horiz-adv-x="828" 
d="M-15 24l46 3q23 2 36 8.5t20 27.5l193 632q7 21 -3 27.5t-31 8.5l-44 3l8 24h282l-8 -24l-46 -3q-23 -2 -36 -8.5t-20 -27.5l-96 -314l490 326q13 9 9 15.5t-28 8.5l-63 3l8 24h270l-7 -24l-53 -3q-30 -2 -48 -8.5t-39 -20.5l-437 -290l369 -412h-127l-346 376l-96 -313
q-7 -21 3 -27.5t32 -8.5l44 -3l-7 -24h-282z" />
    <glyph glyph-name="uni040C" unicode="&#x41a;" horiz-adv-x="828" 
d="M-15 24l46 3q23 2 36 8.5t20 27.5l193 632q7 21 -3 27.5t-31 8.5l-44 3l8 24h282l-8 -24l-46 -3q-23 -2 -36 -8.5t-20 -27.5l-96 -314l490 326q13 9 9 15.5t-28 8.5l-63 3l8 24h270l-7 -24l-53 -3q-30 -2 -48 -8.5t-39 -20.5l-437 -290l369 -412h-127l-346 376l-96 -313
q-7 -21 3 -27.5t32 -8.5l44 -3l-7 -24h-282z" />
    <glyph glyph-name="uni041B" unicode="&#x41b;" horiz-adv-x="802" 
d="M122 63q-35 -42 -61.5 -58.5t-49.5 -16.5q-17 0 -26 9t-9 23q0 37 40 66t107 40q40 53 73.5 112.5t63 129t57.5 150.5t57 177q7 21 -2.5 27.5t-31.5 8.5l-44 3l7 24h601l-7 -24l-46 -3q-22 -2 -35.5 -8.5t-20.5 -27.5l-193 -632q-7 -21 3 -27.5t31 -8.5l44 -3l-7 -24
h-282l7 24l46 3q23 2 36 8.5t20 27.5l203 664h-280q-35 -116 -68.5 -212t-69 -177t-75.5 -149t-88 -126z" />
    <glyph glyph-name="uni041C" unicode="&#x41c;" horiz-adv-x="1032" 
d="M-15 24l46 3q23 2 36 8.5t20 27.5l193 632q7 21 -3 27.5t-31 8.5l-44 3l8 24h209l103 -488l399 488h213l-8 -24l-46 -3q-23 -2 -36 -8.5t-20 -27.5l-194 -632q-7 -21 3 -27.5t32 -8.5l44 -3l-7 -24h-282l7 24l46 3q23 2 36 8.5t20 27.5l199 653l-477 -588h-6l-120 587
l-199 -652q-7 -21 3 -27.5t31 -8.5l44 -3l-7 -24h-219z" />
    <glyph glyph-name="uni041D" unicode="&#x41d;" horiz-adv-x="898" 
d="M-15 24l46 3q23 2 36 8.5t20 27.5l193 632q7 21 -3 27.5t-31 8.5l-44 3l8 24h282l-8 -24l-46 -3q-23 -2 -36.5 -8.5t-19.5 -27.5l-84 -277h406l85 277q7 21 -3 27.5t-32 8.5l-43 3l7 24h282l-7 -24l-46 -3q-23 -2 -36.5 -8.5t-20.5 -27.5l-193 -632q-7 -21 3 -27.5
t31 -8.5l44 -3l-7 -24h-282l7 24l46 3q23 2 36 8.5t20 27.5l97 315h-407l-97 -315q-7 -21 3 -27.5t32 -8.5l44 -3l-7 -24h-282z" />
    <glyph glyph-name="uni041D" unicode="&#x4a2;" horiz-adv-x="898" 
d="M-15 24l46 3q23 2 36 8.5t20 27.5l193 632q7 21 -3 27.5t-31 8.5l-44 3l8 24h282l-8 -24l-46 -3q-23 -2 -36.5 -8.5t-19.5 -27.5l-84 -277h406l85 277q7 21 -3 27.5t-32 8.5l-43 3l7 24h282l-7 -24l-46 -3q-23 -2 -36.5 -8.5t-20.5 -27.5l-193 -632q-7 -21 3 -27.5
t31 -8.5l44 -3l-7 -24h-282l7 24l46 3q23 2 36 8.5t20 27.5l97 315h-407l-97 -315q-7 -21 3 -27.5t32 -8.5l44 -3l-7 -24h-282z" />
    <glyph glyph-name="uni041E" unicode="&#x41e;" 
d="M371 -12q-61 0 -115.5 19t-95 55t-64 89t-23.5 121q0 56 17.5 115.5t49.5 115t78 105t104 87t125.5 59t143.5 21.5q61 0 115.5 -19t95 -55t64 -89t23.5 -121q0 -56 -17.5 -115.5t-49.5 -115t-78 -105t-103.5 -87t-125.5 -59t-144 -21.5zM389 17q77 0 146.5 39t122 105
t83 152t30.5 180q0 57 -13 103.5t-38.5 79.5t-62 51t-84.5 18q-77 0 -146.5 -39t-122 -104.5t-83 -151.5t-30.5 -180q0 -57 13 -104t38.5 -80t62 -51t84.5 -18z" />
    <glyph glyph-name="uni041F" unicode="&#x41f;" horiz-adv-x="880" 
d="M982 758l-8 -24l-46 -3q-22 -2 -35.5 -8.5t-20.5 -27.5l-193 -632q-6 -21 3.5 -27.5t30.5 -8.5l44 -3l-7 -24h-282l7 24l46 3q23 2 36.5 8.5t19.5 27.5l203 664h-389l-203 -664q-6 -21 3.5 -27.5t31.5 -8.5l44 -3l-7 -24h-282l7 24l46 3q23 2 36.5 8.5t19.5 27.5l193 632
q7 21 -2.5 27.5t-31.5 8.5l-44 3l8 24h772z" />
    <glyph glyph-name="uni0420" unicode="&#x420;" horiz-adv-x="725" 
d="M-15 24l46 3q23 2 36 8.5t20 27.5l193 632q7 21 -3 27.5t-31 8.5l-44 3l8 24h309q58 0 108.5 -7t87.5 -24.5t58.5 -46.5t21.5 -73q0 -54 -25.5 -100.5t-75 -81.5t-123 -55t-170.5 -20h-99l9 32h94q70 0 122 19t86.5 50.5t51.5 73t17 85.5q0 64 -47 90.5t-125 26.5h-119
l-203 -664q-7 -21 3 -27.5t32 -7.5l86 -3l-8 -25h-323z" />
    <glyph glyph-name="uni0421" unicode="&#x421;" horiz-adv-x="793" 
d="M384 -12q-60 0 -115.5 17.5t-97.5 54.5t-67 94t-25 136q0 64 19 125.5t53 115t81 98.5t103 77.5t120 50.5t131 18q33 0 66.5 -4t64.5 -10.5t57 -16t44 -20.5l3 -211h-18l-64 149q-8 19 -14.5 31.5t-14 20t-16 12t-21.5 8.5q-17 5 -40 7t-43 2q-91 0 -163.5 -38.5
t-123.5 -105t-78 -155.5t-27 -191q0 -115 49 -174t142 -59q25 0 46.5 1.5t41.5 6.5t44 26l217 197h18l-138 -221q-18 -8 -44.5 -15.5t-57.5 -13.5t-65 -9.5t-67 -3.5z" />
    <glyph glyph-name="uni0422" unicode="&#x422;" horiz-adv-x="757" 
d="M155 25l60 3q23 2 36.5 8t19.5 27l204 666h-170q-13 0 -19 -2.5t-14 -13.5l-151 -189h-18l96 234h671l-47 -234h-18l-26 189q-2 11 -7 13.5t-17 2.5h-179l-203 -666q-7 -21 3 -27t32 -8l59 -3l-8 -25h-312z" />
    <glyph glyph-name="uni040E" unicode="&#x40e;" horiz-adv-x="753" 
d="M290 69q-38 -45 -64 -63t-49 -18q-21 0 -30 12t-4 32q11 32 46.5 56t107.5 39l56 67l-125 503q-5 19 -12 25.5t-29 8.5l-43 3l7 24h292l-7 -24l-51 -3q-24 -2 -36 -9.5t-7 -24.5l98 -397l328 397q14 18 7 25t-30 9l-49 3l7 24h218l-7 -24l-45 -3q-22 -2 -34.5 -9
t-26.5 -25z" />
    <glyph glyph-name="uni040E" unicode="&#x4ee;" horiz-adv-x="753" 
d="M290 69q-38 -45 -64 -63t-49 -18q-21 0 -30 12t-4 32q11 32 46.5 56t107.5 39l56 67l-125 503q-5 19 -12 25.5t-29 8.5l-43 3l7 24h292l-7 -24l-51 -3q-24 -2 -36 -9.5t-7 -24.5l98 -397l328 397q14 18 7 25t-30 9l-49 3l7 24h218l-7 -24l-45 -3q-22 -2 -34.5 -9
t-26.5 -25z" />
    <glyph glyph-name="uni040E" unicode="&#x423;" horiz-adv-x="753" 
d="M290 69q-38 -45 -64 -63t-49 -18q-21 0 -30 12t-4 32q11 32 46.5 56t107.5 39l56 67l-125 503q-5 19 -12 25.5t-29 8.5l-43 3l7 24h292l-7 -24l-51 -3q-24 -2 -36 -9.5t-7 -24.5l98 -397l328 397q14 18 7 25t-30 9l-49 3l7 24h218l-7 -24l-45 -3q-22 -2 -34.5 -9
t-26.5 -25z" />
    <glyph glyph-name="uni0424" unicode="&#x424;" horiz-adv-x="948" 
d="M257 4l46 3q23 2 36.5 8.5t19.5 27.5l14 47q-73 4 -130.5 21.5t-97.5 47t-61.5 71t-21.5 94.5q0 71 33 132.5t95.5 108t153.5 75.5t208 34l13 41q6 21 -3.5 27.5t-30.5 8.5l-44 3l7 24h282l-7 -24l-46 -3q-23 -2 -37 -8.5t-20 -27.5l-13 -41q146 -9 229 -69t84 -166
q0 -71 -33.5 -132.5t-96.5 -108t-154 -75.5t-208 -34l-14 -46q-6 -21 3.5 -27.5t31.5 -8.5l44 -3l-7 -24h-282zM174 320q0 -92 54.5 -140.5t154.5 -57.5l159 519q-90 -6 -158.5 -33.5t-115 -70t-70.5 -98.5t-24 -119zM854 443q-1 93 -55.5 141t-155.5 57l-159 -519
q90 6 159 33t115.5 69.5t71 98.5t24.5 120z" />
    <glyph glyph-name="uni0425" unicode="&#x425;" horiz-adv-x="844" 
d="M-94 24l43 3q46 3 84 34l399 322l-92 314q-5 17 -15 24.5t-30 9.5l-42 3l11 24h281l-11 -24l-51 -4q-24 -2 -34 -9t-5 -24l72 -247l307 247q20 16 20.5 23.5t-22.5 9.5l-48 4l11 24h234l-11 -24l-43 -3q-45 -3 -83 -34l-354 -285l103 -351q5 -17 15 -24.5t31 -9.5l41 -3
l-11 -24h-281l11 24l51 4q25 2 35 9t5 24l-83 284l-353 -284q-20 -17 -21 -24t22 -9l49 -4l-11 -24h-235z" />
    <glyph glyph-name="uni0425" unicode="&#x4b2;" horiz-adv-x="844" 
d="M-94 24l43 3q46 3 84 34l399 322l-92 314q-5 17 -15 24.5t-30 9.5l-42 3l11 24h281l-11 -24l-51 -4q-24 -2 -34 -9t-5 -24l72 -247l307 247q20 16 20.5 23.5t-22.5 9.5l-48 4l11 24h234l-11 -24l-43 -3q-45 -3 -83 -34l-354 -285l103 -351q5 -17 15 -24.5t31 -9.5l41 -3
l-11 -24h-281l11 24l51 4q25 2 35 9t5 24l-83 284l-353 -284q-20 -17 -21 -24t22 -9l49 -4l-11 -24h-235z" />
    <glyph glyph-name="uni0426" unicode="&#x426;" 
d="M-22 0l7 24l46 3q22 2 35.5 8.5t20.5 27.5l193 632q7 21 -3 27.5t-31 8.5l-44 3l7 24h282l-7 -24l-46 -3q-23 -2 -36 -8.5t-20 -27.5l-203 -664h389l203 664q7 21 -3 27.5t-32 8.5l-44 3l7 24h282l-7 -24l-46 -3q-23 -2 -36 -8.5t-20 -27.5l-203 -664h104l-50 -190h-17
l-30 147q-2 7 -6.5 9.5t-15.5 2.5h-676z" />
    <glyph glyph-name="uni0427" unicode="&#x427;" horiz-adv-x="860" 
d="M262 695q7 21 -2.5 27.5t-31.5 8.5l-44 3l8 24h282l-8 -24l-46 -3q-23 -2 -36.5 -8.5t-20.5 -27.5l-38 -123q-19 -62 -18 -103.5t19.5 -67.5t54.5 -37t87 -11q63 0 105.5 7t80.5 18l96 317q7 21 -2.5 27.5t-31.5 8.5l-44 3l8 24h282l-8 -24l-46 -3q-22 -2 -35.5 -8.5
t-20.5 -27.5l-193 -632q-6 -21 3.5 -27.5t30.5 -8.5l44 -3l-7 -24h-282l7 24l46 3q23 2 36.5 8.5t19.5 27.5l86 281q-38 -11 -88.5 -19.5t-95.5 -8.5q-68 0 -122 11t-87 40t-41 80t17 131z" />
    <glyph glyph-name="uni0427" unicode="&#x4b6;" horiz-adv-x="860" 
d="M262 695q7 21 -2.5 27.5t-31.5 8.5l-44 3l8 24h282l-8 -24l-46 -3q-23 -2 -36.5 -8.5t-20.5 -27.5l-38 -123q-19 -62 -18 -103.5t19.5 -67.5t54.5 -37t87 -11q63 0 105.5 7t80.5 18l96 317q7 21 -2.5 27.5t-31.5 8.5l-44 3l8 24h282l-8 -24l-46 -3q-22 -2 -35.5 -8.5
t-20.5 -27.5l-193 -632q-6 -21 3.5 -27.5t30.5 -8.5l44 -3l-7 -24h-282l7 24l46 3q23 2 36.5 8.5t19.5 27.5l86 281q-38 -11 -88.5 -19.5t-95.5 -8.5q-68 0 -122 11t-87 40t-41 80t17 131z" />
    <glyph glyph-name="uni0428" unicode="&#x428;" horiz-adv-x="1180" 
d="M-22 0l7 24l46 3q23 2 36.5 8.5t19.5 27.5l193 632q7 21 -2.5 27.5t-31.5 8.5l-44 3l8 24h282l-8 -24l-46 -3q-22 -2 -35.5 -8.5t-20.5 -27.5l-203 -664h295l202 664q7 21 -2.5 27.5t-32.5 8.5l-44 3l8 24h282l-8 -24l-46 -3q-22 -2 -35.5 -8.5t-20.5 -27.5l-202 -664
h293l203 664q7 21 -2.5 27.5t-32.5 8.5l-44 3l8 24h282l-8 -24l-46 -3q-22 -2 -35.5 -8.5t-20.5 -27.5l-193 -632q-6 -21 3.5 -27.5t30.5 -8.5l44 -3l-7 -24h-1072z" />
    <glyph glyph-name="uni0428" unicode="&#x429;" horiz-adv-x="1180" 
d="M-22 0l7 24l46 3q23 2 36.5 8.5t19.5 27.5l193 632q7 21 -2.5 27.5t-31.5 8.5l-44 3l8 24h282l-8 -24l-46 -3q-22 -2 -35.5 -8.5t-20.5 -27.5l-203 -664h295l202 664q7 21 -2.5 27.5t-32.5 8.5l-44 3l8 24h282l-8 -24l-46 -3q-22 -2 -35.5 -8.5t-20.5 -27.5l-202 -664
h293l203 664q7 21 -2.5 27.5t-32.5 8.5l-44 3l8 24h282l-8 -24l-46 -3q-22 -2 -35.5 -8.5t-20.5 -27.5l-193 -632q-6 -21 3.5 -27.5t30.5 -8.5l44 -3l-7 -24h-1072z" />
    <glyph glyph-name="uni042A" unicode="&#x42a;" horiz-adv-x="824" 
d="M518 442q146 0 221 -44.5t75 -133.5q0 -56 -29 -104.5t-82 -84t-127.5 -55.5t-165.5 -20h-307l7 24l46 3q23 2 36 8.5t20 27.5l203 666h-98q-13 0 -19.5 -2.5t-14.5 -13.5l-156 -189h-18l96 234h432l-8 -24l-66 -3q-23 -1 -36.5 -8t-20.5 -28l-77 -253h89zM393 31
q70 0 127 16.5t97 47t61.5 73.5t21.5 96q0 78 -50 112.5t-150 34.5h-80l-117 -380h90z" />
    <glyph glyph-name="uni042B" unicode="&#x42b;" horiz-adv-x="1065" 
d="M393 442q146 0 221 -44.5t75 -133.5q0 -56 -29 -104.5t-82 -84t-127.5 -55.5t-165.5 -20h-307l7 24l46 3q23 2 36.5 8.5t19.5 27.5l193 632q7 21 -2.5 27.5t-31.5 8.5l-44 3l8 24h302l-8 -24l-66 -3q-23 -1 -36.5 -8t-20.5 -28l-77 -253h89zM268 31q70 0 127 16.5t97 47
t61.5 73.5t21.5 96q0 78 -50 112.5t-150 34.5h-80l-117 -380h90zM660 24l46 3q23 2 36 8.5t20 27.5l193 632q7 21 -3 27.5t-31 8.5l-44 3l8 24h282l-8 -24l-46 -3q-23 -2 -36 -8.5t-20 -27.5l-194 -632q-7 -21 3 -27.5t32 -8.5l44 -3l-7 -24h-282z" />
    <glyph glyph-name="uni042C" unicode="&#x42c;" horiz-adv-x="699" 
d="M393 442q146 0 221 -44.5t75 -133.5q0 -56 -29 -104.5t-82 -84t-127.5 -55.5t-165.5 -20h-307l7 24l46 3q23 2 36.5 8.5t19.5 27.5l193 632q7 21 -2.5 27.5t-31.5 8.5l-44 3l8 24h302l-8 -24l-66 -3q-23 -1 -36.5 -8t-20.5 -28l-77 -253h89zM268 31q70 0 127 16.5t97 47
t61.5 73.5t21.5 96q0 78 -50 112.5t-150 34.5h-80l-117 -380h90z" />
    <glyph glyph-name="uni042D" unicode="&#x42d;" horiz-adv-x="814" 
d="M513 775q62 0 118 -17.5t98.5 -54.5t67.5 -94t25 -136q0 -65 -19 -126t-53 -114.5t-81 -98.5t-103 -77.5t-120 -50.5t-131 -18q-66 0 -122 5t-103 21l30 236h18l31 -149q4 -20 10 -32.5t14.5 -20t18.5 -11.5t23 -8q17 -5 36.5 -7t39.5 -2q75 0 137.5 26.5t110.5 73
t81 111t49 140.5h-265q-13 0 -17 -2.5t-9 -10.5l-76 -117h-18l91 297h18l4 -118q0 -8 2.5 -10.5t15.5 -2.5h260q4 25 6 51t2 52q0 115 -49 174t-142 59q-68 0 -99 -10q-16 -5 -26.5 -11t-18.5 -14l-165 -166h-18l94 203q19 7 46 13t58.5 9.5t65 5.5t64.5 2z" />
    <glyph glyph-name="uni042E" unicode="&#x42e;" horiz-adv-x="1191" 
d="M-15 24l46 3q23 2 36 8.5t20 27.5l193 632q7 21 -3 27.5t-31 8.5l-44 3l8 24h282l-8 -24l-46 -3q-23 -2 -36.5 -8.5t-19.5 -27.5l-84 -277h132q25 69 70 133.5t107 114t139 79.5t165 30q59 0 111.5 -19t91.5 -55t62 -89t23 -121q0 -56 -17 -115.5t-48.5 -115t-76.5 -105
t-101.5 -87t-123.5 -59t-141 -21.5q-59 0 -111.5 19t-91.5 55t-62 89t-23 121q0 50 14 106h-132l-97 -315q-7 -21 3 -27.5t32 -8.5l44 -3l-7 -24h-282zM709 17q75 0 142.5 39t118.5 105t81 152t30 180q0 57 -12.5 103.5t-36.5 79.5t-59 51t-80 18q-75 0 -142.5 -39
t-118.5 -104.5t-81 -151.5t-30 -180q0 -57 12.5 -104t36.5 -80t59 -51t80 -18z" />
    <glyph glyph-name="uni042F" unicode="&#x42f;" horiz-adv-x="778" 
d="M-50 0l417 354q-82 12 -126 54t-44 111q0 54 27 98t77 75.5t121.5 48.5t160.5 17h297l-8 -24l-46 -3q-22 -2 -35.5 -8.5t-20.5 -27.5l-193 -632q-6 -21 3.5 -27.5t30.5 -8.5l44 -3l-7 -24h-282l7 24l46 3q23 2 37 8.5t20 27.5l86 279h-83l-402 -342h-127zM679 727h-84
q-68 0 -121.5 -15t-90.5 -42.5t-56 -66t-19 -84.5q0 -75 46.5 -110.5t133.5 -35.5h83z" />
    <glyph glyph-name="uni0402" unicode="&#x402;" horiz-adv-x="882" 
d="M126 25l61 3q23 1 36 7.5t20 27.5l204 666h-141q-13 0 -19.5 -2.5t-14.5 -13.5l-151 -189h-18l96 234h633l-41 -214h-18l-37 169q-2 11 -6.5 13.5t-16.5 2.5h-164l-115 -377q21 22 48 40.5t57 31.5t63 20.5t66 7.5q99 0 139 -60t6 -169l-15 -48q-13 -41 -28.5 -68.5
t-36.5 -50t-49 -42.5t-65 -45q-12 -8 -29.5 -19t-37 -22.5t-40 -23t-37.5 -21.5l-9 22q56 37 93 63t61 51t39.5 54.5t29.5 74.5l17 57q29 100 5.5 145t-98.5 45q-64 0 -112.5 -22t-77.5 -56l-78 -254q-7 -21 2.5 -27t31.5 -8l59 -3l-7 -25h-312z" />
    <glyph glyph-name="uni0404" unicode="&#x404;" horiz-adv-x="793" 
d="M384 -12q-60 0 -115.5 17.5t-97.5 54.5t-67 94t-25 136q0 64 19 125.5t53 115t81 98.5t103 77.5t120 50.5t131 18q33 0 66.5 -4t64.5 -10.5t57 -16t44 -20.5l3 -211h-18l-64 149q-8 19 -14.5 31.5t-14 20t-16 12t-21.5 8.5q-17 5 -40 7t-43 2q-72 0 -132.5 -24.5
t-108 -68.5t-81 -104.5t-51.5 -132.5h259q13 0 17 2.5t9 10.5l77 118h18l-91 -297h-18l-3 117q0 8 -2.5 10.5t-15.5 2.5h-258q-6 -30 -8.5 -61t-2.5 -63q0 -115 49 -174t142 -59q25 0 46.5 1.5t41.5 6.5t44 26l217 197h18l-138 -221q-18 -8 -44.5 -15.5t-57.5 -13.5
t-65 -9.5t-67 -3.5z" />
    <glyph glyph-name="uni0405" unicode="&#x405;" horiz-adv-x="609" 
d="M202 -12q-24 0 -50.5 3.5t-53.5 10.5t-53 17.5t-48 24.5l58 205h18l20 -176q2 -20 12 -28.5t18 -11.5q40 -14 96 -14q35 0 71.5 9.5t66.5 29t49.5 49t19.5 68.5q0 43 -18 77.5t-55 78.5l-67 78q-33 39 -53 76.5t-20 82.5q0 47 22.5 85t60 65t85 42t97.5 15
q62 0 111.5 -13t81.5 -37l-39 -188h-18l-37 160q-4 17 -10.5 24.5t-17.5 11.5q-14 5 -30.5 7.5t-34.5 2.5q-32 0 -64 -7.5t-57.5 -22.5t-41.5 -38.5t-16 -54.5q0 -41 17 -68.5t41 -56.5l67 -78q21 -24 38.5 -46t30 -43.5t20 -44t7.5 -48.5q0 -47 -23.5 -91.5t-66.5 -79
t-102.5 -55.5t-131.5 -21z" />
    <glyph glyph-name="uni0406" unicode="&#x406;" horiz-adv-x="389" 
d="M-15 24l46 3q23 2 36 8.5t20 27.5l193 632q7 21 -3 27.5t-31 8.5l-44 3l8 24h282l-8 -24l-46 -3q-23 -2 -36 -8.5t-20 -27.5l-194 -632q-7 -21 3 -27.5t32 -8.5l44 -3l-7 -24h-282z" />
    <glyph glyph-name="uni0406" unicode="&#x407;" horiz-adv-x="389" 
d="M-15 24l46 3q23 2 36 8.5t20 27.5l193 632q7 21 -3 27.5t-31 8.5l-44 3l8 24h282l-8 -24l-46 -3q-23 -2 -36 -8.5t-20 -27.5l-194 -632q-7 -21 3 -27.5t32 -8.5l44 -3l-7 -24h-282z" />
    <glyph glyph-name="uni0408" unicode="&#x408;" horiz-adv-x="388" 
d="M-103 -91q59 37 96 62t61 49.5t39 53.5t29 74l168 549q6 20 -3 25.5t-31 6.5l-50 2l9 27h289l-8 -27l-51 -2q-23 -1 -35 -6.5t-18 -25.5l-161 -522q-12 -41 -24.5 -69t-30.5 -50.5t-44.5 -43t-66.5 -45.5q-13 -8 -32 -18.5t-40.5 -22t-43 -22t-39.5 -19.5z" />
    <glyph glyph-name="uni0409" unicode="&#x409;" horiz-adv-x="1089" 
d="M122 63q-35 -42 -61.5 -58.5t-49.5 -16.5q-17 0 -26 9t-9 23q0 37 40 66t107 40q40 53 73.5 112.5t63 129t57.5 150.5t57 177q7 21 -2.5 27.5t-31.5 8.5l-44 3l7 24h599l-8 -24l-66 -3q-23 -1 -36.5 -8t-20.5 -28l-77 -253h89q146 0 221 -44.5t75 -133.5
q0 -56 -29 -104.5t-82 -84t-127.5 -55.5t-165.5 -20h-307l7 24l46 3q23 2 36 8.5t20 27.5l203 664h-257q-35 -116 -68.5 -212t-69 -177t-75.5 -149t-88 -126zM658 31q70 0 127 16.5t97 47t61.5 73.5t21.5 96q0 78 -50 112.5t-150 34.5h-80l-117 -380h90z" />
    <glyph glyph-name="uni040A" unicode="&#x40a;" horiz-adv-x="1167" 
d="M-15 24l46 3q23 2 36 8.5t20 27.5l193 632q7 21 -3 27.5t-31 8.5l-44 3l8 24h282l-8 -24l-46 -3q-23 -2 -36 -8.5t-20 -27.5l-81 -267h365l82 267q7 21 -2.5 27.5t-31.5 8.5l-44 3l8 24h302l-8 -24l-66 -3q-23 -1 -37 -8t-20 -28l-81 -267h89q146 0 223 -37.5t77 -126.5
q0 -56 -29 -104.5t-82 -84t-127.5 -55.5t-165.5 -20h-307l7 24l46 3q23 2 36.5 8.5t19.5 27.5l99 325h-366l-100 -325q-7 -21 3 -27.5t32 -8.5l44 -3l-7 -24h-282zM736 31q70 0 127 16.5t97 47t61.5 73.5t21.5 96q0 39 -13.5 64.5t-39 41t-64 21.5t-87.5 6h-80l-113 -366h90
z" />
    <glyph glyph-name="uni040B" unicode="&#x40b;" horiz-adv-x="930" 
d="M126 25l61 3q23 1 36 7.5t20 27.5l204 666h-141q-13 0 -19.5 -2.5t-14.5 -13.5l-151 -189h-18l96 234h633l-41 -214h-18l-37 169q-2 11 -6.5 13.5t-16.5 2.5h-164l-115 -375q42 43 106 70.5t134 27.5q97 0 134 -58.5t3 -167.5l-50 -163q-7 -22 -2 -27.5t31 -7.5l33 -3
l-8 -25h-174l68 221q27 89 1.5 131.5t-100.5 42.5q-63 0 -109 -21.5t-78 -54.5l-78 -256q-7 -21 2.5 -27t31.5 -8l59 -3l-7 -25h-312z" />
    <glyph glyph-name="uni040F" unicode="&#x40f;" horiz-adv-x="879" 
d="M312 -12q0 12 -22 12h-312l7 24l46 3q22 2 35.5 8.5t20.5 27.5l193 632q7 21 -3 27.5t-31 8.5l-44 3l7 24h282l-7 -24l-46 -3q-23 -2 -36 -8.5t-20 -27.5l-203 -664h389l203 664q7 21 -3 27.5t-32 8.5l-44 3l7 24h282l-7 -24l-46 -3q-23 -2 -36 -8.5t-20 -27.5l-193 -632
q-7 -21 2.5 -27.5t31.5 -8.5l44 -3l-7 -24h-312q-23 0 -30 -12l-84 -147h-17z" />
    <glyph glyph-name="uni0490" unicode="&#x490;" horiz-adv-x="650" 
d="M391 726l-203 -663q-6 -21 3.5 -27.5t32.5 -7.5l85 -2l-8 -26h-323l7 24l46 3q23 2 36.5 8.5t19.5 27.5l193 632q7 21 -2.5 27.5t-31.5 8.5l-44 3l8 24h439q11 0 17 2t12 9l120 147h17l-66 -190h-358z" />
    <glyph glyph-name="uni0462" unicode="&#x462;" horiz-adv-x="785" 
d="M491 363q66 0 118.5 -8t89 -26t56.5 -47t20 -71q0 -56 -31.5 -96t-85.5 -65.5t-125.5 -37.5t-152.5 -12h-307l7 24l46 3q23 2 36.5 8.5t19.5 27.5l165 536h-125q-13 0 -18.5 -2.5t-15.5 -13.5l-136 -159h-18l86 204h235l21 67q6 21 -3.5 27.5t-30.5 8.5l-44 3l7 24h282
l-7 -24l-46 -3q-23 -2 -37 -8.5t-20 -27.5l-21 -67h235l-37 -204h-18l-41 159q-2 11 -6.5 13.5t-16.5 2.5h-124l-73 -236h116zM364 31q66 0 120.5 11.5t93.5 33.5t60.5 54.5t21.5 75.5q0 37 -12.5 61t-36.5 38.5t-60 20.5t-83 6h-102l-92 -301h90z" />
    <glyph glyph-name="uni0472" unicode="&#x472;" 
d="M371 -12q-61 0 -115.5 19t-95 55t-64 89t-23.5 121q0 56 17.5 115.5t49.5 115t78 105t104 87t125.5 59t143.5 21.5q61 0 115.5 -19t95 -55t64 -89t23.5 -121q0 -56 -17.5 -115.5t-49.5 -115t-78 -105t-103.5 -87t-125.5 -59t-144 -21.5zM389 17q62 0 119 25.5t104.5 70.5
t83.5 105.5t55 130.5q-68 -22 -118 -24.5t-90 5.5t-75.5 21.5t-74 23t-85 9.5t-109.5 -18q-4 -24 -6 -48t-2 -48q0 -57 13 -104t38.5 -80t62 -51t84.5 -18zM206 398q91 31 156 39t112.5 3t82.5 -18.5t66 -25.5t62.5 -18.5t73.5 2.5q12 55 12 113q0 57 -13 103.5t-38.5 79.5
t-62 51t-84.5 18q-64 0 -122.5 -27t-107 -74t-84 -110t-53.5 -136z" />
    <glyph glyph-name="uni0474" unicode="&#x474;" horiz-adv-x="817" 
d="M92 -24l178 719q5 21 -4 27.5t-30 8.5l-44 3l7 24h282l-7 -24l-46 -3q-23 -2 -37 -8.5t-19 -27.5l-142 -562l564 515q40 36 68.5 60.5t50 39.5t37.5 21t30 6q39 0 39 -36q0 -17 -11.5 -33.5t-35 -31.5t-59.5 -26t-85 -15l-718 -657h-18z" />
    <glyph glyph-name="uni04AE" unicode="&#x4ae;" horiz-adv-x="779" 
d="M166 25l60 3q23 2 36 8t20 27l86 279l-140 355q-7 18 -14 25t-30 9l-43 3l8 24h283l-8 -24l-50 -3q-24 -2 -36 -9.5t-5 -24.5l123 -315l317 315q18 17 13 24.5t-28 9.5l-61 3l7 24h243l-8 -24l-44 -3q-23 -2 -37.5 -9.5t-32.5 -24.5l-356 -355l-86 -279q-7 -21 3 -27.5
t32 -7.5l60 -3l-8 -25h-312z" />
    <glyph glyph-name="uni04AE" unicode="&#x4b0;" horiz-adv-x="779" 
d="M166 25l60 3q23 2 36 8t20 27l86 279l-140 355q-7 18 -14 25t-30 9l-43 3l8 24h283l-8 -24l-50 -3q-24 -2 -36 -9.5t-5 -24.5l123 -315l317 315q18 17 13 24.5t-28 9.5l-61 3l7 24h243l-8 -24l-44 -3q-23 -2 -37.5 -9.5t-32.5 -24.5l-356 -355l-86 -279q-7 -21 3 -27.5
t32 -7.5l60 -3l-8 -25h-312z" />
    <glyph glyph-name="uni04BA" unicode="&#x4ba;" horiz-adv-x="866" 
d="M677.959 62.9961q-7 -20.999 2.49902 -27.498q9.5 -6.5 31.499 -8.5l43.9971 -3l-8 -23.998h-281.982l7.99902 23.998l45.998 3q22.998 2 36.4971 8.5q13.499 6.49902 20.499 27.498l37.998 122.992q18.998 61.9961 17.998 103.494q-1 41.4971 -19.498 67.4961
q-18.499 25.998 -54.4971 36.9971q-35.998 11 -86.9951 11q-62.9961 0 -105.493 -7q-42.4971 -6.99902 -80.4951 -17.999l-95.9941 -316.98q-6.99902 -20.999 2.5 -27.498q9.49902 -6.5 31.498 -8.5l43.9971 -3l-7.99902 -23.998h-281.983l8 23.998l45.9971 3
q21.999 2 35.498 8.5q13.499 6.49902 20.498 27.498l192.988 631.962q6 20.998 -3.49902 27.498q-9.5 6.49902 -30.498 8.49902l-43.998 3l7 23.999h281.982l-6.99902 -23.999l-45.9971 -3q-22.999 -2 -36.498 -8.49902q-13.499 -6.5 -19.499 -27.498l-85.9951 -280.983
q37.998 10.999 88.4951 19.499q50.4971 8.49902 95.4941 8.49902q67.9961 0 121.992 -10.999q53.9971 -10.999 86.9951 -39.9971q32.998 -28.999 40.9971 -79.9951q8 -50.9971 -16.999 -130.992z" />
    <glyph glyph-name="uni04C0" unicode="&#x4c0;" horiz-adv-x="389" 
d="M-15 24l46 3q23 2 36 8.5t20 27.5l193 632q7 21 -3 27.5t-31 8.5l-44 3l8 24h282l-8 -24l-46 -3q-23 -2 -36 -8.5t-20 -27.5l-194 -632q-7 -21 3 -27.5t32 -8.5l44 -3l-7 -24h-282z" />
    <glyph glyph-name="uni04D8" unicode="&#x4d8;" horiz-adv-x="809" 
d="M355 -12q-72 0 -126.5 21.5t-89.5 61.5t-50.5 96t-8.5 124h610q12 36 18.5 74.5t6.5 78.5q0 67 -19.5 117t-53.5 83t-80.5 49t-99.5 16q-59 0 -109.5 -17.5t-93 -50.5t-75.5 -79.5t-56 -103.5h-24q24 78 65.5 137.5t95 99.5t116 60t128.5 20t122 -20t97.5 -57.5t65 -92.5
t23.5 -125q0 -87 -34 -174.5t-95.5 -158t-146.5 -115t-186 -44.5zM366 18q50 0 96 17t85.5 48t72 73.5t54.5 92.5h-493q-8 -115 40 -173t145 -58z" />
    <glyph glyph-name="uni04E8" unicode="&#x4e8;" 
d="M371 -12q-61 0 -115.5 19t-95 55t-64 89t-23.5 121q0 56 17.5 115.5t49.5 115t78 105t104 87t125.5 59t143.5 21.5q61 0 115.5 -19t95 -55t64 -89t23.5 -121q0 -56 -17.5 -115.5t-49.5 -115t-78 -105t-103.5 -87t-125.5 -59t-144 -21.5zM389 17q65 0 124.5 28.5t108.5 77
t84.5 114.5t51.5 141h-556q-11 -55 -11 -108q0 -57 13 -104t38.5 -80t62 -51t84.5 -18zM573 745q-62 0 -118.5 -25t-104 -69.5t-83.5 -104t-56 -128.5h555q2 18 3.5 36.5t1.5 38.5q0 57 -13 103.5t-38.5 79.5t-62 51t-84.5 18z" />
    <glyph glyph-name="uni0430" unicode="&#x430;" horiz-adv-x="567" 
d="M103 -12q-45 0 -69 28.5t-24 76.5q0 45 15.5 94t42 96t61.5 90t73.5 75t79 51t78.5 19q35 0 52 -21.5t19 -49.5h1l24 66h88l-155 -422q-14 -38 -12 -51.5t16 -13.5q24 0 62 31.5t79 106.5l20 -9q-42 -80 -93.5 -123.5t-119.5 -43.5q-24 0 -36 7t-15.5 20t1 32t13.5 43
l36 95h-2q-60 -97 -117.5 -147t-117.5 -50zM153 39q26 0 58 24t64 64t60.5 90t48.5 103q34 92 25 133.5t-49 41.5q-29 0 -58.5 -19t-57 -50t-52 -71.5t-42 -84t-28 -87t-10.5 -79.5q0 -31 10.5 -48t30.5 -17z" />
    <glyph glyph-name="uni0431" unicode="&#x431;" horiz-adv-x="544" 
d="M516 352q0 -58 -23 -122t-66 -118t-103 -89t-135 -35q-85 0 -123.5 49t-38.5 139q0 58 16.5 122t47.5 126t74.5 119t98.5 102.5t119 75t136 36.5q51 5 86 21t48 51h24q-11 -36 -26 -65.5t-38.5 -50.5t-56.5 -33.5t-81 -15.5q-38 -3 -63 -2t-42.5 1.5t-30 -1.5t-25.5 -10
q-16 -10 -33 -32.5t-34.5 -54t-33.5 -70.5t-30 -81q32 44 80 74t105 30q38 0 66 -13t46 -35.5t27 -53t9 -64.5zM199 16q47 0 86 30t66.5 75.5t42.5 100t15 104.5q0 29 -5.5 55t-17.5 45t-30.5 30t-43.5 11q-37 0 -71.5 -23t-68.5 -65q-18 -60 -29 -121t-11 -114
q0 -67 18.5 -97.5t48.5 -30.5z" />
    <glyph glyph-name="uni0432" unicode="&#x432;" horiz-adv-x="481" 
d="M419 160q0 -42 -18 -74.5t-49 -54t-71 -32.5t-84 -11q-89 0 -129 44t-40 115q0 61 28 126.5t75.5 119.5t109 89t127.5 35t94.5 -25.5t28.5 -64.5q0 -50 -56.5 -91t-162.5 -67q79 -2 113 -33.5t34 -75.5zM335 486q-35 0 -65.5 -19.5t-55.5 -51.5t-43.5 -73.5t-28.5 -86.5
l57 17q44 13 79 28t60 33t38 40t13 51t-14 45.5t-40 16.5zM131 157q0 -75 18.5 -109t61.5 -34q25 0 44.5 10.5t33 27.5t20.5 39t7 45q0 40 -12.5 64.5t-33.5 36.5t-48.5 13t-57.5 -8l-26 -7q-3 -20 -5 -39.5t-2 -38.5z" />
    <glyph glyph-name="uni0433" unicode="&#x433;" horiz-adv-x="499" 
d="M216 -12q-35 0 -65 7t-52 21t-34.5 34.5t-12.5 48.5q0 40 14 66.5t38 45.5t56.5 32t70.5 26l24 8q59 20 93 50.5t34 85.5q0 40 -17.5 59.5t-45.5 19.5q-8 0 -17 -1t-17 -3t-15.5 -7t-15.5 -13l-117 -134h-18l61 161q39 14 77 18t70 4q65 0 103 -30t38 -82
q0 -38 -13.5 -66t-37.5 -48.5t-57 -36t-72 -29.5l-25 -9q-29 -10 -52 -21t-39 -25.5t-24.5 -34t-8.5 -44.5q0 -42 22.5 -60.5t57.5 -18.5q11 0 22 0.5t21 4.5q8 3 16.5 8t22.5 24l108 142h18l-62 -184q-36 -11 -72.5 -15t-76.5 -4z" />
    <glyph glyph-name="uni0433" unicode="&#x493;" horiz-adv-x="499" 
d="M216 -12q-35 0 -65 7t-52 21t-34.5 34.5t-12.5 48.5q0 40 14 66.5t38 45.5t56.5 32t70.5 26l24 8q59 20 93 50.5t34 85.5q0 40 -17.5 59.5t-45.5 19.5q-8 0 -17 -1t-17 -3t-15.5 -7t-15.5 -13l-117 -134h-18l61 161q39 14 77 18t70 4q65 0 103 -30t38 -82
q0 -38 -13.5 -66t-37.5 -48.5t-57 -36t-72 -29.5l-25 -9q-29 -10 -52 -21t-39 -25.5t-24.5 -34t-8.5 -44.5q0 -42 22.5 -60.5t57.5 -18.5q11 0 22 0.5t21 4.5q8 3 16.5 8t22.5 24l108 142h18l-62 -184q-36 -11 -72.5 -15t-76.5 -4z" />
    <glyph glyph-name="uni0433" unicode="&#x453;" horiz-adv-x="499" 
d="M216 -12q-35 0 -65 7t-52 21t-34.5 34.5t-12.5 48.5q0 40 14 66.5t38 45.5t56.5 32t70.5 26l24 8q59 20 93 50.5t34 85.5q0 40 -17.5 59.5t-45.5 19.5q-8 0 -17 -1t-17 -3t-15.5 -7t-15.5 -13l-117 -134h-18l61 161q39 14 77 18t70 4q65 0 103 -30t38 -82
q0 -38 -13.5 -66t-37.5 -48.5t-57 -36t-72 -29.5l-25 -9q-29 -10 -52 -21t-39 -25.5t-24.5 -34t-8.5 -44.5q0 -42 22.5 -60.5t57.5 -18.5q11 0 22 0.5t21 4.5q8 3 16.5 8t22.5 24l108 142h18l-62 -184q-36 -11 -72.5 -15t-76.5 -4z" />
    <glyph glyph-name="uni0434" unicode="&#x434;" horiz-adv-x="542" 
d="M181 -12q-77 0 -115 42t-38 109q0 70 29.5 137.5t77.5 121t109 86.5t123 33q19 0 33 -3t22 -6q0 13 0.5 25.5t0.5 25.5q0 43 -5.5 80t-17.5 64.5t-31 43t-47 15.5q-31 0 -52 -10t-41 -30l-16 18q20 23 47.5 37.5t68.5 14.5q48 0 83.5 -23t58.5 -63t34 -92.5t11 -110.5
q0 -88 -21.5 -179.5t-64 -166t-105 -122t-144.5 -47.5zM133 124q0 -53 14 -81.5t46 -28.5q42 0 79.5 40t67.5 104.5t50.5 146t28.5 164.5q-16 22 -55 22q-53 0 -95.5 -32t-72.5 -83.5t-46.5 -117.5t-16.5 -134z" />
    <glyph glyph-name="uni0435" unicode="&#x435;" horiz-adv-x="465" 
d="M158 -12q-63 0 -98.5 38.5t-35.5 110.5t33 140t83.5 121.5t111.5 86t117 32.5q57 0 81.5 -25.5t24.5 -64.5q0 -31 -20 -63.5t-58 -52.5l-238 -2q-15 -35 -23.5 -73t-8.5 -79q0 -65 25.5 -94t59.5 -29q42 0 84 37.5t82 115.5l21 -7q-47 -97 -103 -144.5t-138 -47.5z
M365 495q-26 0 -53.5 -12.5t-54 -34.5t-49.5 -52.5t-41 -67.5h54q44 0 80 10t62 26.5t40.5 39t14.5 46.5q0 45 -53 45z" />
    <glyph glyph-name="uni0435" unicode="&#x451;" horiz-adv-x="465" 
d="M158 -12q-63 0 -98.5 38.5t-35.5 110.5t33 140t83.5 121.5t111.5 86t117 32.5q57 0 81.5 -25.5t24.5 -64.5q0 -31 -20 -63.5t-58 -52.5l-238 -2q-15 -35 -23.5 -73t-8.5 -79q0 -65 25.5 -94t59.5 -29q42 0 84 37.5t82 115.5l21 -7q-47 -97 -103 -144.5t-138 -47.5z
M365 495q-26 0 -53.5 -12.5t-54 -34.5t-49.5 -52.5t-41 -67.5h54q44 0 80 10t62 26.5t40.5 39t14.5 46.5q0 45 -53 45z" />
    <glyph glyph-name="uni0436" unicode="&#x436;" horiz-adv-x="911" 
d="M307 -11l98 255l-99 -13q-19 -46 -46.5 -89.5t-59.5 -78t-68.5 -55.5t-73.5 -21q-34 0 -53 20t-19 51q0 44 25 66.5t68 15.5q-19 -66 -19.5 -98t23.5 -32q26 0 54.5 33t52.5 83.5t40 111t16 116.5q0 51 -9.5 82.5t-35.5 31.5q-30 0 -58 -36t-60 -111l-21 8
q17 42 36.5 76.5t42.5 59t49.5 38.5t57.5 14q42 0 68.5 -34t26.5 -99q0 -57 -26 -126l98 13l86 223l103 22l-87 -231l102 13q20 42 46.5 81.5t57 70t64.5 49t69 18.5q34 0 53 -20t19 -51q0 -44 -25 -66.5t-68 -15.5q19 66 19.5 98t-23.5 32q-26 0 -54.5 -33t-52.5 -83.5
t-40 -111t-16 -116.5q0 -51 9.5 -82.5t35.5 -31.5q30 0 58 36t60 111l21 -8q-17 -42 -36.5 -76.5t-42.5 -59t-49.5 -38.5t-57.5 -14q-42 0 -68.5 34t-26.5 99q0 32 9 71t26 79l-100 -13l-93 -248z" />
    <glyph glyph-name="uni0436" unicode="&#x497;" horiz-adv-x="911" 
d="M307 -11l98 255l-99 -13q-19 -46 -46.5 -89.5t-59.5 -78t-68.5 -55.5t-73.5 -21q-34 0 -53 20t-19 51q0 44 25 66.5t68 15.5q-19 -66 -19.5 -98t23.5 -32q26 0 54.5 33t52.5 83.5t40 111t16 116.5q0 51 -9.5 82.5t-35.5 31.5q-30 0 -58 -36t-60 -111l-21 8
q17 42 36.5 76.5t42.5 59t49.5 38.5t57.5 14q42 0 68.5 -34t26.5 -99q0 -57 -26 -126l98 13l86 223l103 22l-87 -231l102 13q20 42 46.5 81.5t57 70t64.5 49t69 18.5q34 0 53 -20t19 -51q0 -44 -25 -66.5t-68 -15.5q19 66 19.5 98t-23.5 32q-26 0 -54.5 -33t-52.5 -83.5
t-40 -111t-16 -116.5q0 -51 9.5 -82.5t35.5 -31.5q30 0 58 36t60 111l21 -8q-17 -42 -36.5 -76.5t-42.5 -59t-49.5 -38.5t-57.5 -14q-42 0 -68.5 34t-26.5 99q0 32 9 71t26 79l-100 -13l-93 -248z" />
    <glyph glyph-name="uni0437" unicode="&#x437;" horiz-adv-x="466" 
d="M174 -12q-80 0 -114 26t-34 70q0 35 25 55.5t69 13.5q-26 -66 -10 -104t70 -38q46 0 78.5 34t32.5 97q0 68 -32.5 89t-86.5 7l-15 -4l7 21l43 13q72 22 109 61.5t37 87.5q0 44 -45 44q-44 0 -93.5 -26.5t-93.5 -89.5l-20 10q101 162 250 162q56 0 80.5 -24.5t24.5 -62.5
q0 -27 -14 -51t-39.5 -45t-61 -38.5t-78.5 -30.5q67 -2 99 -30t32 -75q0 -45 -19 -77.5t-50 -53.5t-70.5 -31t-80.5 -10z" />
    <glyph glyph-name="uni0438" unicode="&#x438;" horiz-adv-x="606" 
d="M169 189q-34 -80 -40 -116.5t23 -36.5t64.5 36t77.5 92q25 34 52 75t52.5 85t48 88t39.5 85l99 15l-162 -421q-15 -38 -13.5 -51.5t16.5 -13.5q24 0 62.5 31.5t78.5 106.5l21 -9q-42 -80 -93.5 -123.5t-120.5 -43.5q-49 0 -57.5 25.5t10.5 73.5l98 248h-1
q-29 -58 -63.5 -112t-63.5 -93q-53 -72 -98 -107t-97 -35q-62 0 -68 48.5t38 151.5l116 273l-92 4l8 21l206 32z" />
    <glyph glyph-name="uni0438" unicode="&#x4e3;" horiz-adv-x="606" 
d="M169 189q-34 -80 -40 -116.5t23 -36.5t64.5 36t77.5 92q25 34 52 75t52.5 85t48 88t39.5 85l99 15l-162 -421q-15 -38 -13.5 -51.5t16.5 -13.5q24 0 62.5 31.5t78.5 106.5l21 -9q-42 -80 -93.5 -123.5t-120.5 -43.5q-49 0 -57.5 25.5t10.5 73.5l98 248h-1
q-29 -58 -63.5 -112t-63.5 -93q-53 -72 -98 -107t-97 -35q-62 0 -68 48.5t38 151.5l116 273l-92 4l8 21l206 32z" />
    <glyph glyph-name="uni0438" unicode="&#x439;" horiz-adv-x="606" 
d="M169 189q-34 -80 -40 -116.5t23 -36.5t64.5 36t77.5 92q25 34 52 75t52.5 85t48 88t39.5 85l99 15l-162 -421q-15 -38 -13.5 -51.5t16.5 -13.5q24 0 62.5 31.5t78.5 106.5l21 -9q-42 -80 -93.5 -123.5t-120.5 -43.5q-49 0 -57.5 25.5t10.5 73.5l98 248h-1
q-29 -58 -63.5 -112t-63.5 -93q-53 -72 -98 -107t-97 -35q-62 0 -68 48.5t38 151.5l116 273l-92 4l8 21l206 32z" />
    <glyph glyph-name="uni043A" unicode="&#x43a;" horiz-adv-x="599" 
d="M6 -10l181 471l-91 4l8 21l199 32l-100 -261l142 135q35 33 60.5 56.5t45.5 39t37 22.5t34 7q32 0 49.5 -18.5t17.5 -41.5q0 -30 -20.5 -53t-56.5 -25q-5 50 -11.5 71t-19.5 21q-20 0 -49 -27.5t-72 -68.5l-74 -70l112 -256q14 -32 23 -43t20 -11q6 0 13.5 4.5t16.5 16
t19 32t21 52.5l21 -6q-13 -40 -26.5 -65.5t-29 -40.5t-33.5 -20.5t-40 -5.5q-37 0 -66 26t-58 92l-77 173l-94 -244z" />
    <glyph glyph-name="uni043A" unicode="&#x49b;" horiz-adv-x="599" 
d="M6 -10l181 471l-91 4l8 21l199 32l-100 -261l142 135q35 33 60.5 56.5t45.5 39t37 22.5t34 7q32 0 49.5 -18.5t17.5 -41.5q0 -30 -20.5 -53t-56.5 -25q-5 50 -11.5 71t-19.5 21q-20 0 -49 -27.5t-72 -68.5l-74 -70l112 -256q14 -32 23 -43t20 -11q6 0 13.5 4.5t16.5 16
t19 32t21 52.5l21 -6q-13 -40 -26.5 -65.5t-29 -40.5t-33.5 -20.5t-40 -5.5q-37 0 -66 26t-58 92l-77 173l-94 -244z" />
    <glyph glyph-name="uni043A" unicode="&#x45c;" horiz-adv-x="599" 
d="M6 -10l181 471l-91 4l8 21l199 32l-100 -261l142 135q35 33 60.5 56.5t45.5 39t37 22.5t34 7q32 0 49.5 -18.5t17.5 -41.5q0 -30 -20.5 -53t-56.5 -25q-5 50 -11.5 71t-19.5 21q-20 0 -49 -27.5t-72 -68.5l-74 -70l112 -256q14 -32 23 -43t20 -11q6 0 13.5 4.5t16.5 16
t19 32t21 52.5l21 -6q-13 -40 -26.5 -65.5t-29 -40.5t-33.5 -20.5t-40 -5.5q-37 0 -66 26t-58 92l-77 173l-94 -244z" />
    <glyph glyph-name="uni043B" unicode="&#x43b;" horiz-adv-x="578" 
d="M145 91q-33 -54 -61 -78.5t-59 -24.5q-22 0 -35.5 13.5t-13.5 30.5q0 11 2 22t10 19l127 18q38 61 78.5 150.5t92.5 218.5h-79l18 42h328l-158 -411q-15 -38 -13.5 -51.5t16.5 -13.5q24 0 62.5 31.5t78.5 106.5l21 -9q-42 -80 -93.5 -123.5t-120.5 -43.5q-49 0 -57 26
t10 73l145 373h-129q-54 -130 -94.5 -221t-75.5 -148z" />
    <glyph glyph-name="uni043C" unicode="&#x43c;" horiz-adv-x="787" 
d="M-2 -7q-16 0 -27 12t-11 32q0 23 12 35l111 19l194 370l-92 4l8 20l171 33l-14 -396l299 372l117 18l-162 -421q-15 -38 -13.5 -51.5t16.5 -13.5q24 0 62.5 31.5t78.5 106.5l21 -9q-42 -80 -93.5 -123.5t-120.5 -43.5q-49 0 -57 26t10 73l142 368l-369 -463h-22l16 408
l-158 -303q-12 -23 -23.5 -42.5t-25 -33t-30.5 -21t-40 -7.5z" />
    <glyph glyph-name="uni043D" unicode="&#x43d;" horiz-adv-x="596" 
d="M6 -10l181 471l-91 4l8 21l199 32l-102 -267l191 29l84 217l99 15l-162 -421q-15 -38 -13.5 -51.5t16.5 -13.5q24 0 62.5 31.5t78.5 106.5l21 -9q-42 -80 -93.5 -123.5t-120.5 -43.5q-49 0 -57 26t10 73l64 165l-191 -29l-82 -214z" />
    <glyph glyph-name="uni043D" unicode="&#x4a3;" horiz-adv-x="596" 
d="M6 -10l181 471l-91 4l8 21l199 32l-102 -267l191 29l84 217l99 15l-162 -421q-15 -38 -13.5 -51.5t16.5 -13.5q24 0 62.5 31.5t78.5 106.5l21 -9q-42 -80 -93.5 -123.5t-120.5 -43.5q-49 0 -57 26t10 73l64 165l-191 -29l-82 -214z" />
    <glyph glyph-name="uni043E" unicode="&#x43e;" horiz-adv-x="543" 
d="M183 -12q-36 0 -64.5 11.5t-49 32.5t-31 49.5t-10.5 62.5q0 67 28 134t74.5 120t106.5 86t125 33q36 0 64.5 -11.5t49 -32t31 -49t10.5 -62.5q0 -68 -27.5 -135t-74 -120t-107 -86t-125.5 -33zM215 16q34 0 69.5 26t64 72.5t46.5 110t18 137.5q0 65 -21.5 96t-59.5 31
q-35 0 -70.5 -26t-64 -72t-46.5 -109.5t-18 -137.5q0 -66 22 -97t60 -31z" />
    <glyph glyph-name="uni043F" unicode="&#x43f;" horiz-adv-x="607" 
d="M367 -12q-49 0 -60.5 26.5t10.5 72.5l108 230q37 78 42.5 115t-26.5 37q-29 0 -64 -35t-77 -90q-26 -35 -53.5 -76.5t-53.5 -86t-48 -89t-37 -83.5l-102 -19l181 471l-91 4l8 21l199 32l-142 -358h1q32 63 67.5 119t65.5 97q54 73 99.5 107t96.5 34q63 0 69 -51.5
t-39 -147.5l-106 -227q-17 -38 -14 -51.5t18 -13.5q24 0 62.5 31.5t79.5 106.5l20 -9q-42 -80 -93.5 -123.5t-120.5 -43.5z" />
    <glyph glyph-name="uni0440" unicode="&#x440;" horiz-adv-x="569" 
d="M183 461l-92 4l8 21l198 32l-28 -81q32 37 75.5 58.5t85.5 21.5q59 0 92.5 -33.5t33.5 -93.5q0 -47 -16.5 -96.5t-45.5 -95t-70 -85t-90 -68t-104.5 -43.5t-114.5 -12l-82 -238h-94zM368 463q-27 0 -55 -12t-51 -35l-139 -404q44 -3 86 12t78.5 42t67 63.5t52 76
t33.5 80.5t12 77q0 54 -23 77t-61 23z" />
    <glyph glyph-name="uni0441" unicode="&#x441;" horiz-adv-x="451" 
d="M160 -12q-63 0 -98.5 38.5t-35.5 110.5q0 69 28.5 137t75.5 122t107 87.5t122 33.5q50 0 75 -22.5t25 -58.5q0 -37 -25 -58t-69 -14q8 27 11.5 51t1 41.5t-11.5 27.5t-25 10q-36 0 -73.5 -29t-68 -76t-50.5 -107.5t-20 -124.5q0 -32 7 -55.5t19 -38.5t28 -22t33 -7
q41 0 79 34t76 115l20 -8q-44 -100 -100 -143.5t-131 -43.5z" />
    <glyph glyph-name="uni0442" unicode="&#x442;" horiz-adv-x="895" 
d="M655 -12q-49 0 -60.5 26.5t10.5 72.5l108 230q37 78 43 115t-26 37q-30 0 -65 -35.5t-77 -91.5q-26 -34 -53.5 -75.5t-53.5 -85.5t-48 -88.5t-37 -83.5l-99 -19l127 327q31 79 39.5 115.5t-22.5 36.5q-29 0 -64 -35t-77 -90q-26 -35 -53.5 -76.5t-53.5 -86t-48 -89
t-37 -83.5l-102 -19l181 471l-91 4l8 21l199 32l-142 -358h1q32 63 67.5 119t65.5 97q54 73 99.5 107t96.5 34q31 0 46 -13t16.5 -38.5t-9 -62.5t-30.5 -85l-65 -158h1q32 63 68 119t66 97q54 73 99.5 107t96.5 34q63 0 68.5 -51.5t-39.5 -147.5l-106 -227
q-17 -38 -14 -51.5t18 -13.5q25 0 63.5 31.5t78.5 106.5l20 -9q-42 -80 -93.5 -123.5t-120.5 -43.5z" />
    <glyph glyph-name="uni0443" unicode="&#x443;" horiz-adv-x="575" 
d="M-92 -260q-74 0 -74 54q0 14 7.5 27t22.5 23q19 -17 37.5 -25t44.5 -8q19 0 40.5 6.5t47.5 25t57.5 51.5t71.5 85l-5 478h-88l1 21l181 40l2 -419l180 237q38 51 65 85.5t47 55.5t36 30.5t33 9.5q18 0 30.5 -12t12.5 -32q0 -12 -3.5 -22.5t-10.5 -15.5q-30 -9 -55.5 -19
t-49.5 -25.5t-48.5 -39.5t-53.5 -61l-241 -313q-36 -47 -74 -90t-75 -75.5t-72.5 -52t-66.5 -19.5z" />
    <glyph glyph-name="uni0443" unicode="&#x4ef;" horiz-adv-x="575" 
d="M-92 -260q-74 0 -74 54q0 14 7.5 27t22.5 23q19 -17 37.5 -25t44.5 -8q19 0 40.5 6.5t47.5 25t57.5 51.5t71.5 85l-5 478h-88l1 21l181 40l2 -419l180 237q38 51 65 85.5t47 55.5t36 30.5t33 9.5q18 0 30.5 -12t12.5 -32q0 -12 -3.5 -22.5t-10.5 -15.5q-30 -9 -55.5 -19
t-49.5 -25.5t-48.5 -39.5t-53.5 -61l-241 -313q-36 -47 -74 -90t-75 -75.5t-72.5 -52t-66.5 -19.5z" />
    <glyph glyph-name="uni0443" unicode="&#x45e;" horiz-adv-x="575" 
d="M-92 -260q-74 0 -74 54q0 14 7.5 27t22.5 23q19 -17 37.5 -25t44.5 -8q19 0 40.5 6.5t47.5 25t57.5 51.5t71.5 85l-5 478h-88l1 21l181 40l2 -419l180 237q38 51 65 85.5t47 55.5t36 30.5t33 9.5q18 0 30.5 -12t12.5 -32q0 -12 -3.5 -22.5t-10.5 -15.5q-30 -9 -55.5 -19
t-49.5 -25.5t-48.5 -39.5t-53.5 -61l-241 -313q-36 -47 -74 -90t-75 -75.5t-72.5 -52t-66.5 -19.5z" />
    <glyph glyph-name="uni0444" unicode="&#x444;" horiz-adv-x="738" 
d="M507 515q106 -3 155.5 -51.5t49.5 -129.5q0 -56 -26.5 -115t-76 -109t-121 -83.5t-160.5 -36.5l-81 -238h-97l82 238q-105 3 -154.5 51.5t-49.5 129.5q0 55 26.5 114.5t76 109.5t121 83.5t160.5 36.5l62 181l-78 39l3 6l200 44zM613 328q0 33 -7 62t-21.5 51t-36 35.5
t-49.5 15.5l-162 -477q69 4 120.5 35t86 76.5t52 98.5t17.5 103zM127 177q0 -33 7 -62t21.5 -51t35.5 -35.5t49 -15.5l163 477q-69 -5 -120.5 -35.5t-86 -76t-52 -99t-17.5 -102.5z" />
    <glyph glyph-name="uni0445" unicode="&#x445;" horiz-adv-x="586" 
d="M39 -12q-32 0 -49.5 18.5t-17.5 41.5q0 30 20.5 53t56.5 25q5 -50 11.5 -71t19.5 -21q16 0 35.5 14.5t42 40t47 59.5t48.5 73l-24 181q-5 33 -11 53.5t-23 20.5q-23 0 -55 -32t-64 -85l-18 13q41 66 83 105.5t94 39.5q15 0 28 -3.5t24 -15t19.5 -33.5t13.5 -59l11 -86
q34 54 64.5 92t57.5 61t51.5 33.5t47.5 10.5q32 0 49.5 -18.5t17.5 -41.5q0 -30 -20.5 -53t-56.5 -25q-5 50 -11.5 71t-19.5 21q-16 0 -36 -15t-42.5 -40.5t-47 -60.5t-49.5 -74l23 -177q5 -33 11.5 -53.5t23.5 -20.5q23 0 55 31.5t65 84.5l17 -12q-41 -66 -83.5 -106
t-93.5 -40q-15 0 -28 3.5t-24 15.5t-19.5 34t-13.5 58l-11 83q-34 -54 -64 -91t-57 -60t-51 -33t-47 -10z" />
    <glyph glyph-name="uni0445" unicode="&#x4b3;" horiz-adv-x="586" 
d="M39 -12q-32 0 -49.5 18.5t-17.5 41.5q0 30 20.5 53t56.5 25q5 -50 11.5 -71t19.5 -21q16 0 35.5 14.5t42 40t47 59.5t48.5 73l-24 181q-5 33 -11 53.5t-23 20.5q-23 0 -55 -32t-64 -85l-18 13q41 66 83 105.5t94 39.5q15 0 28 -3.5t24 -15t19.5 -33.5t13.5 -59l11 -86
q34 54 64.5 92t57.5 61t51.5 33.5t47.5 10.5q32 0 49.5 -18.5t17.5 -41.5q0 -30 -20.5 -53t-56.5 -25q-5 50 -11.5 71t-19.5 21q-16 0 -36 -15t-42.5 -40.5t-47 -60.5t-49.5 -74l23 -177q5 -33 11.5 -53.5t23.5 -20.5q23 0 55 31.5t65 84.5l17 -12q-41 -66 -83.5 -106
t-93.5 -40q-15 0 -28 3.5t-24 15.5t-19.5 34t-13.5 58l-11 83q-34 -54 -64 -91t-57 -60t-51 -33t-47 -10z" />
    <glyph glyph-name="uni0446" unicode="&#x446;" horiz-adv-x="616" 
d="M169 189q-34 -80 -40 -116.5t23 -36.5t64.5 36t77.5 92q25 34 52 75t52.5 85t48 88t39.5 85l99 15l-162 -421q-15 -38 -13.5 -51.5t16.5 -13.5q24 0 62.5 31.5t78.5 106.5l21 -9q-2 -4 -4 -7.5t-4 -6.5q-14 -28 -20.5 -48t-9 -35.5t-1.5 -29.5t2.5 -29.5t2 -34.5
t-1.5 -45q-5 -48 -37.5 -74.5t-105.5 -31.5l7 24q31 3 44 22t15 45q4 51 14.5 84t30.5 68q-63 -68 -146 -68q-49 0 -57.5 25.5t10.5 73.5l98 248h-1q-29 -58 -63.5 -112t-63.5 -93q-53 -72 -98 -107t-97 -35q-62 0 -68 48.5t38 151.5l116 273l-92 4l8 21l206 32z" />
    <glyph glyph-name="uni0447" unicode="&#x447;" horiz-adv-x="586" 
d="M243 363q-33 -77 -39.5 -115t22.5 -38q23 0 56 27t67.5 69t65.5 92.5t51 98.5l99 15l-162 -421q-15 -38 -13.5 -51.5t16.5 -13.5q24 0 62.5 31.5t78.5 106.5l21 -9q-42 -80 -93.5 -123.5t-120.5 -43.5q-49 0 -57.5 25.5t10.5 73.5l109 279h-1q-28 -45 -57.5 -82.5
t-60 -64.5t-61 -42t-60.5 -15q-62 0 -67.5 49.5t37.5 150.5l42 99l-92 4l8 21l206 32z" />
    <glyph glyph-name="uni0447" unicode="&#x4b7;" horiz-adv-x="586" 
d="M243 363q-33 -77 -39.5 -115t22.5 -38q23 0 56 27t67.5 69t65.5 92.5t51 98.5l99 15l-162 -421q-15 -38 -13.5 -51.5t16.5 -13.5q24 0 62.5 31.5t78.5 106.5l21 -9q-42 -80 -93.5 -123.5t-120.5 -43.5q-49 0 -57.5 25.5t10.5 73.5l109 279h-1q-28 -45 -57.5 -82.5
t-60 -64.5t-61 -42t-60.5 -15q-62 0 -67.5 49.5t37.5 150.5l42 99l-92 4l8 21l206 32z" />
    <glyph glyph-name="uni0448" unicode="&#x448;" horiz-adv-x="899" 
d="M425 335h-1q-29 -58 -63.5 -112t-63.5 -93q-53 -72 -98 -107t-97 -35q-62 0 -68 48.5t38 151.5l116 273l-92 4l8 21l206 32l-141 -329q-34 -80 -40 -116.5t23 -36.5t64.5 36t77.5 92q25 34 52 75t52.5 85t48 88t39.5 85l99 15l-124 -323q-31 -81 -38 -117t22 -36t64.5 36
t77.5 92q25 34 52 75t52.5 85t48 88t39.5 85l99 15l-162 -421q-15 -38 -13.5 -51.5t16.5 -13.5q24 0 62.5 31.5t78.5 106.5l21 -9q-42 -80 -93.5 -123.5t-120.5 -43.5q-49 0 -57.5 25.5t10.5 73.5l98 248h-1q-29 -58 -63.5 -112t-63.5 -93q-53 -72 -98 -107t-97 -35
q-62 0 -67 48.5t37 151.5z" />
    <glyph glyph-name="uni0448" unicode="&#x449;" horiz-adv-x="899" 
d="M425 335h-1q-29 -58 -63.5 -112t-63.5 -93q-53 -72 -98 -107t-97 -35q-62 0 -68 48.5t38 151.5l116 273l-92 4l8 21l206 32l-141 -329q-34 -80 -40 -116.5t23 -36.5t64.5 36t77.5 92q25 34 52 75t52.5 85t48 88t39.5 85l99 15l-124 -323q-31 -81 -38 -117t22 -36t64.5 36
t77.5 92q25 34 52 75t52.5 85t48 88t39.5 85l99 15l-162 -421q-15 -38 -13.5 -51.5t16.5 -13.5q24 0 62.5 31.5t78.5 106.5l21 -9q-42 -80 -93.5 -123.5t-120.5 -43.5q-49 0 -57.5 25.5t10.5 73.5l98 248h-1q-29 -58 -63.5 -112t-63.5 -93q-53 -72 -98 -107t-97 -35
q-62 0 -67 48.5t37 151.5z" />
    <glyph glyph-name="uni044A" unicode="&#x44a;" horiz-adv-x="503" 
d="M207 -13q-79 0 -113 33.5t-34 87.5q0 35 17.5 72.5t49 76.5t76.5 79.5t99 81.5h-200l-47 -81h-22l74 165h311q-61 -51 -114 -108t-88 -121q34 18 62.5 27t55.5 9q51 0 80 -29.5t29 -80.5q0 -37 -18.5 -74.5t-50.5 -68t-75 -50t-92 -19.5zM164 84q0 -35 14.5 -54t39.5 -19
q24 0 45.5 14.5t38 39.5t26.5 57.5t10 67.5q0 37 -14 59t-45 22q-41 0 -74 -21q-20 -40 -30.5 -81t-10.5 -85z" />
    <glyph glyph-name="uni044B" unicode="&#x44b;" horiz-adv-x="736" 
d="M715 512l-162 -421q-15 -38 -13.5 -51.5t16.5 -13.5q24 0 62.5 31.5t78.5 106.5l21 -9q-42 -80 -93.5 -123.5t-120.5 -43.5q-49 0 -57 26t10 73l159 410zM427 209q0 -39 -19.5 -78.5t-53.5 -71.5t-79.5 -52t-97.5 -20q-41 0 -70 13.5t-43.5 39.5t-13 63t21.5 85l116 273
l-92 4l8 21l206 32l-98 -229q58 30 106 30q51 0 80 -29.5t29 -80.5zM154 152q-12 -29 -18 -55t-2.5 -45t16.5 -30t38 -11q27 0 51.5 15.5t42.5 42t29 60.5t11 71t-14 59t-45 22t-60 -13z" />
    <glyph glyph-name="uni044C" unicode="&#x44c;" horiz-adv-x="487" 
d="M427 209q0 -39 -19.5 -78.5t-53.5 -71.5t-79.5 -52t-97.5 -20q-41 0 -70 13.5t-43.5 39.5t-13 63t21.5 85l116 273l-92 4l8 21l206 32l-98 -229q58 30 106 30q51 0 80 -29.5t29 -80.5zM154 152q-12 -29 -18 -55t-2.5 -45t16.5 -30t38 -11q27 0 51.5 15.5t42.5 42t29 60.5
t11 71t-14 59t-45 22t-60 -13z" />
    <glyph glyph-name="uni044D" unicode="&#x44d;" horiz-adv-x="485" 
d="M325 517q63 0 98.5 -38.5t35.5 -110.5q0 -69 -28.5 -137t-75.5 -122t-107 -87.5t-122 -33.5q-50 0 -75 22.5t-25 58.5q0 37 25 58t69 14q-8 -27 -11.5 -51t-1 -41.5t11 -27.5t25.5 -10q29 0 60 20t59 53.5t50 79t33 96.5l-186 -28l11 28l180 27q2 15 3.5 30.5t1.5 30.5
q0 32 -7 55.5t-19 38.5t-28 22t-33 7q-38 0 -73 -28.5t-70 -97.5l-20 10q42 87 95 124.5t124 37.5z" />
    <glyph glyph-name="uni044E" unicode="&#x44e;" horiz-adv-x="763" 
d="M6 -10l181 471l-91 4l8 21l199 32l-101 -265l89 14q18 51 49 96t71 79.5t86 54.5t95 20q68 0 106.5 -43.5t38.5 -111.5t-27 -135t-72 -120t-103.5 -86t-121.5 -33q-34 0 -61 11.5t-45.5 32.5t-28.5 49.5t-10 62.5q0 46 14 94l-91 -13l-83 -216zM445 16q33 0 66.5 26
t60.5 72.5t44 110t17 137.5q0 65 -19 96t-52 31t-67 -26t-61 -72t-44 -109.5t-17 -137.5q0 -66 19 -97t53 -31z" />
    <glyph glyph-name="uni044F" unicode="&#x44f;" horiz-adv-x="540" 
d="M506 513l-149 -422q-14 -38 -13 -51.5t16 -13.5q24 0 62.5 31.5t78.5 106.5l21 -9q-42 -80 -93.5 -123.5t-120.5 -43.5q-49 0 -57 26t10 73l71 186h-2l-185 -189q-22 -22 -38.5 -39t-31.5 -28.5t-29 -17.5t-30 -6q-21 0 -31.5 14t-10.5 32q0 11 5 22.5t15 19.5l120 9
l147 146q-13 -7 -36 -15t-50 -8q-36 0 -56.5 17.5t-20.5 53.5q0 37 22.5 78.5t57 76t76.5 57t80 22.5q26 0 45 -11t24 -32h2l13 38h88zM195 304q0 -23 10 -36t33 -13q41 0 72.5 26.5t51.5 80.5l14 38q17 45 4.5 70t-47.5 25q-29 0 -54.5 -19.5t-44 -48.5t-29 -62.5
t-10.5 -60.5z" />
    <glyph glyph-name="uni0452" unicode="&#x452;" horiz-adv-x="554" 
d="M204 588h-81l13 36h80l25 71l-74 40l3 6l196 44l-56 -161h117l-13 -36h-116l-59 -169l-93 -259h1q32 63 67.5 119t65.5 97q54 73 99.5 107t96.5 34q63 0 68.5 -51t-38.5 -148l-136 -301q-18 -41 -32 -69.5t-30 -49.5t-38 -38t-57 -35l-166 -85l-9 17q49 31 82.5 55.5
t60 53.5t49.5 67.5t50 97.5l130 286q36 79 42 115.5t-26 36.5q-29 0 -64 -35t-77 -90q-26 -35 -53.5 -77t-53.5 -86.5t-48 -89t-37 -84.5l-96 -17z" />
    <glyph glyph-name="uni0454" unicode="&#x454;" horiz-adv-x="452" 
d="M160 -12q-63 0 -98.5 38.5t-35.5 110.5q0 69 28.5 137t75.5 122t107 87.5t122 33.5q50 0 75 -22.5t25 -58.5q0 -37 -25 -58t-69 -14q8 27 11.5 51t1 41.5t-11.5 27.5t-25 10q-29 0 -59 -19t-57.5 -51.5t-49.5 -76t-34 -92.5l185 28l-11 -28l-180 -27q-6 -36 -6 -71
q0 -32 7 -55.5t19 -38.5t28 -22t33 -7q41 0 79 34t76 115l20 -8q-44 -100 -100 -143.5t-131 -43.5z" />
    <glyph glyph-name="uni0455" unicode="&#x455;" horiz-adv-x="391" 
d="M112 -12q-58 0 -89.5 26t-31.5 61q0 28 25 43.5t57 12.5q12 -44 19 -68t12 -35t9.5 -13t10.5 -2q12 0 29.5 4.5t33.5 15t27 27.5t11 41t-9.5 43.5t-28.5 45.5l-44 59q-21 28 -31.5 55t-10.5 51q0 34 17 63.5t44.5 51.5t63 34.5t73.5 12.5q45 0 72 -20t27 -52
q0 -26 -19 -43.5t-59 -15.5q-9 39 -14 60t-9.5 31t-8.5 12t-11 2q-15 0 -33 -5t-34 -14.5t-26.5 -23t-10.5 -31.5q0 -38 38 -89l44 -59q20 -28 32.5 -56t12.5 -56q0 -39 -17.5 -70.5t-45 -53t-61 -33.5t-64.5 -12z" />
    <glyph glyph-name="uni0456" unicode="&#x456;" horiz-adv-x="324" 
d="M257 722q0 25 19 44t45 19t45 -19t19 -44q0 -26 -19 -45.5t-45 -19.5t-45 19.5t-19 45.5zM91 -12q-48 0 -56 25.5t10 73.5l144 374l-92 4l8 21l200 32l-165 -427q-15 -38 -13.5 -51.5t17.5 -13.5q24 0 62.5 31.5t78.5 106.5l20 -9q-42 -80 -93.5 -123.5t-120.5 -43.5z
" />
    <glyph glyph-name="uni0456" unicode="&#x457;" horiz-adv-x="324" 
d="M257 722q0 25 19 44t45 19t45 -19t19 -44q0 -26 -19 -45.5t-45 -19.5t-45 19.5t-19 45.5zM91 -12q-48 0 -56 25.5t10 73.5l144 374l-92 4l8 21l200 32l-165 -427q-15 -38 -13.5 -51.5t17.5 -13.5q24 0 62.5 31.5t78.5 106.5l20 -9q-42 -80 -93.5 -123.5t-120.5 -43.5z
" />
    <glyph glyph-name="uni0458" unicode="&#x458;" horiz-adv-x="312" 
d="M-227 -243q49 31 83.5 55.5t61.5 53t50 67t47 98.5l174 430l-91 4l8 21l200 32l-203 -502q-17 -41 -30 -69t-29.5 -49t-39 -38t-57.5 -35l-166 -85zM266 722q0 25 19 44t45 19t45 -19t19 -44q0 -26 -19 -45.5t-45 -19.5t-45 19.5t-19 45.5z" />
    <glyph glyph-name="uni0459" unicode="&#x459;" horiz-adv-x="752" 
d="M315 460q-54 -130 -94.5 -221t-75.5 -148q-33 -54 -61 -78.5t-59 -24.5q-22 0 -35.5 13.5t-13.5 30.5q0 11 2 22t10 19l127 18q38 61 78.5 150.5t92.5 218.5h-79l18 42h328l-83 -217q62 34 113 34t80 -29.5t29 -80.5q0 -39 -19.5 -78.5t-53.5 -71.5t-79.5 -52t-97.5 -20
q-41 0 -69.5 13.5t-42.5 39t-13 63t20 85.5l107 272h-129zM419 152q-11 -30 -16.5 -55.5t-2.5 -44.5t15.5 -30t37.5 -11q27 0 51.5 15.5t42.5 42t29 60.5t11 71t-14 59t-45 22q-34 0 -66 -16z" />
    <glyph glyph-name="uni045A" unicode="&#x45a;" horiz-adv-x="760" 
d="M6 -10l181 471l-91 4l8 21l199 32l-102 -267l179 27l86 219l99 15l-87 -227q62 34 113 34t80 -29.5t29 -80.5q0 -39 -19.5 -78.5t-53.5 -71.5t-79.5 -52t-97.5 -20q-41 0 -69.5 13.5t-42.5 39t-13 63t20 85.5l24 62l-179 -27l-82 -214zM427 152q-11 -30 -16.5 -55.5
t-2.5 -44.5t15.5 -30t37.5 -11q27 0 51.5 15.5t42.5 42t29 60.5t11 71t-14 59t-45 22q-34 0 -66 -16z" />
    <glyph glyph-name="uni045B" unicode="&#x45b;" horiz-adv-x="592" 
d="M147 160q32 63 67.5 119t65.5 97q54 73 99.5 107t96.5 34q63 0 69 -51.5t-39 -147.5l-106 -227q-17 -38 -14 -51.5t18 -13.5q24 0 62.5 31.5t79.5 106.5l20 -9q-42 -80 -93.5 -123.5t-120.5 -43.5q-49 0 -60.5 26.5t10.5 72.5l108 230q37 78 42.5 115t-26.5 37
q-29 0 -64 -35t-77 -90q-26 -35 -53.5 -77t-53.5 -86.5t-48 -89t-37 -84.5l-96 -17l207 598h-81l13 36h80l25 71l-74 40l3 6l196 44l-56 -161h117l-13 -36h-116l-59 -169l-93 -259h1z" />
    <glyph glyph-name="uni045F" unicode="&#x45f;" horiz-adv-x="606" 
d="M270 0q-23 -45 -33 -76.5t-10 -58.5q0 -17 7.5 -24t24.5 -9l-6 -19q-59 0 -83.5 13.5t-24.5 41.5q0 18 9 35t23.5 33.5t33.5 32t39 31.5h20zM169 189q-34 -80 -40 -116.5t23 -36.5t64.5 36t77.5 92q25 34 52 75t52.5 85t48 88t39.5 85l99 15l-162 -421
q-15 -38 -13.5 -51.5t16.5 -13.5q24 0 62.5 31.5t78.5 106.5l21 -9q-42 -80 -93.5 -123.5t-120.5 -43.5q-49 0 -57.5 25.5t10.5 73.5l98 248h-1q-29 -58 -63.5 -112t-63.5 -93q-53 -72 -98 -107t-97 -35q-62 0 -68 48.5t38 151.5l116 273l-92 4l8 21l206 32z" />
    <glyph glyph-name="uni0491" unicode="&#x491;" horiz-adv-x="474" 
d="M284 473l-183 -473h-94l171 444q8 20 3.5 25.5t-28.5 7.5l-34 2l9 23h272q9 0 14 2.5t12 10.5l100 124h15l-49 -166h-208z" />
    <glyph glyph-name="uni0463" unicode="&#x463;" horiz-adv-x="779" 
d="M6 -10l181 471l-91 4l8 21l199 32l-142 -358h1q32 63 67.5 119t65.5 97q54 73 99.5 107t96.5 34q63 0 68.5 -51t-38.5 -148l-12 -27q55 28 101 28q51 0 80 -29.5t29 -80.5q0 -39 -19.5 -78.5t-53.5 -71.5t-79.5 -52t-97.5 -20q-41 0 -71 14t-45 40t-13 63t24 84l61 129
q38 78 43 115t-27 37q-29 0 -64 -35t-77 -90q-26 -35 -53.5 -76.5t-53.5 -86t-48 -89t-37 -83.5zM445 152q-13 -29 -19 -54.5t-2.5 -45t17 -30.5t39.5 -11q27 0 51.5 15.5t42.5 42t29 60.5t11 71t-14 59t-45 22q-29 0 -56 -12z" />
    <glyph glyph-name="uni0473" unicode="&#x473;" horiz-adv-x="543" 
d="M183 -12q-36 0 -64.5 11.5t-49 32.5t-31 49.5t-10.5 62.5q0 67 28 134t74.5 120t106.5 86t125 33q36 0 64.5 -11.5t49 -32t31 -49t10.5 -62.5q0 -68 -27.5 -135t-74 -120t-107 -86t-125.5 -33zM146 264q45 20 76 25.5t53.5 2.5t38.5 -11.5t29.5 -16t27 -11t31.5 2.5
q11 52 11 106q0 65 -21.5 96t-59.5 31q-28 0 -56 -16t-53 -45.5t-45 -71t-32 -92.5zM215 16q26 0 53 15.5t51.5 44t45 68.5t32.5 88q-37 -21 -64 -26.5t-47.5 -2.5t-36 12t-31.5 17t-34.5 11t-42.5 -4q-4 -23 -6 -46.5t-2 -48.5q0 -66 22 -97t60 -31z" />
    <glyph glyph-name="uni0475" unicode="&#x475;" horiz-adv-x="587" 
d="M489 421q38 48 64 72t57 24q35 0 35 -33q0 -38 -37.5 -64t-116.5 -40l-312 -391h-27l-4 468h-88l1 21l181 40l2 -408z" />
    <glyph glyph-name="uni04AF" unicode="&#x4af;" horiz-adv-x="575" 
d="M46 -248l97 250l15 455h-88l1 21l181 40l-20 -473l202 291q36 52 62.5 87t47.5 56t37.5 29.5t33.5 8.5q18 0 30.5 -12t12.5 -32q0 -12 -3.5 -22.5t-10.5 -15.5q-30 -9 -56 -18.5t-51 -25t-49 -39.5t-51 -62l-201 -289l-96 -249h-94z" />
    <glyph glyph-name="uni04AF" unicode="&#x4b1;" horiz-adv-x="575" 
d="M46 -248l97 250l15 455h-88l1 21l181 40l-20 -473l202 291q36 52 62.5 87t47.5 56t37.5 29.5t33.5 8.5q18 0 30.5 -12t12.5 -32q0 -12 -3.5 -22.5t-10.5 -15.5q-30 -9 -56 -18.5t-51 -25t-49 -39.5t-51 -62l-201 -289l-96 -249h-94z" />
    <glyph glyph-name="uni04BB" unicode="&#x4bb;" horiz-adv-x="592" 
d="M147 160q32 63 67.5 119t65.5 97q54 73 99.5 107t96.5 34q63 0 69 -51.5t-39 -147.5l-106 -227q-17 -38 -14 -51.5t18 -13.5q24 0 62.5 31.5t79.5 106.5l20 -9q-42 -80 -93.5 -123.5t-120.5 -43.5q-49 0 -60.5 26.5t10.5 72.5l108 230q37 78 42.5 115t-26.5 37
q-29 0 -64 -35t-77 -90q-26 -35 -53.5 -77t-53.5 -86.5t-48 -89t-37 -84.5l-96 -17l244 705l-74 40l3 6l196 44l-127 -366l-93 -259h1z" />
    <glyph glyph-name="uni04CF" unicode="&#x4cf;" horiz-adv-x="334" 
d="M290 700q8 20 3.5 25.5t-28.5 7.5l-34 2l8 23h240l-8 -23l-35 -2q-13 -1 -21.5 -2.5t-13.5 -5t-9 -9.5t-8 -16l-248 -642q-8 -20 -3.5 -26t30.5 -7l33 -2l-9 -23h-240l9 23l36 2q25 1 33.5 7t16.5 26z" />
    <glyph glyph-name="uni04D9" unicode="&#x4d9;" horiz-adv-x="472" 
d="M311.98 517.969q62.9971 0 98.4941 -38.498q35.498 -38.498 35.498 -110.493q0 -71.9961 -32.998 -139.991q-32.998 -67.9961 -83.4951 -121.493q-50.4961 -53.4961 -111.493 -85.9941q-60.9961 -32.498 -116.992 -32.498q-56.9971 0 -81.4951 25.498
q-24.499 25.499 -24.499 64.4961q0 30.998 19.999 63.4961t57.9961 52.4971l237.986 2q14.999 34.998 23.498 72.9951q8.5 37.998 8.5 78.9951q0 64.9961 -25.499 93.9941q-25.498 28.998 -59.4961 28.998q-41.998 0 -83.9951 -37.4971q-41.9971 -37.498 -81.9951 -115.493
l-20.998 7q46.9971 96.9941 102.993 144.491q55.9971 47.4971 137.991 47.4971zM104.993 10.999q25.999 0 53.4971 12.5q27.498 12.499 53.9971 34.4971q26.498 21.999 49.4971 52.4971q22.998 30.498 40.9971 67.4961h-53.9971q-43.9971 0 -79.9951 -9.99902
q-35.9971 -10 -61.9961 -26.499q-25.998 -16.499 -40.4971 -38.9971q-14.499 -22.499 -14.499 -46.498q0 -44.9971 52.9961 -44.9971z" />
    <glyph glyph-name="uni04E9" unicode="&#x4e9;" horiz-adv-x="543" 
d="M183 -12q-36 0 -64.5 11.5t-49 32.5t-31 49.5t-10.5 62.5q0 67 28 134t74.5 120t106.5 86t125 33q36 0 64.5 -11.5t49 -32t31 -49t10.5 -62.5q0 -68 -27.5 -135t-74 -120t-107 -86t-125.5 -33zM215 16q27 0 55.5 17t53.5 48t45.5 74t31.5 95l-261 -15q-7 -41 -7 -91
q0 -66 22 -97t60 -31zM332 489q-27 0 -55 -16t-53 -44.5t-45 -69.5t-32 -90l260 16q6 36 6 77q0 65 -21.5 96t-59.5 31z" />
    <glyph glyph-name="quoteright" unicode="&#x2019;" horiz-adv-x="259" 
d="M128 496q66 41 101.5 85t35.5 79q0 44 -55 57q6 35 28 51t48 16q28 0 47.5 -18t19.5 -51q0 -23 -12.5 -52t-38.5 -61t-66.5 -65.5t-96.5 -63.5z" />
    <glyph glyph-name="bullet" unicode="&#x2022;" horiz-adv-x="414" 
d="M244 258q-26 0 -49 10t-40 27t-27 40.5t-10 49.5t10 49t27 40t40 27t49 10t49 -10t40.5 -27t27.5 -40t10 -49t-10 -49.5t-27.5 -40.5t-40.5 -27t-49 -10z" />
    <glyph glyph-name="glyph166" horiz-adv-x="664" 
d="M467 451h-227l-49 -222q-25 -112 -52.5 -191.5t-56.5 -133.5t-57.5 -86t-55 -48.5t-50 -21.5t-41.5 -5q-26 0 -41 13.5t-15 33.5t12.5 32.5t31.5 13.5q23 -14 46 -24t45 -10q14 0 25.5 8.5t22.5 31.5t23 65t27 109l95 435h-78l8 23q27 2 45 4t33 13t30.5 34.5t38.5 69.5
q22 46 49 77t54.5 50t54.5 27t50 8q35 0 48.5 -15.5t13.5 -35.5q0 -16 -9.5 -31t-26.5 -23q-26 13 -48.5 18.5t-42.5 5.5q-29 0 -52 -10.5t-39 -27.5t-24.5 -39t-8.5 -44t7.5 -37.5t33.5 -15.5h154q21 0 35.5 9.5t25.5 25t21 36.5t21 44q22 46 49 77t54.5 50t54.5 27t50 8
q35 0 48.5 -15.5t13.5 -35.5q0 -16 -9.5 -31t-26.5 -23q-26 13 -48.5 18.5t-42.5 5.5q-29 0 -52 -10.5t-39 -29t-24.5 -43.5t-8.5 -53q0 -11 1.5 -21.5t6 -19t12.5 -14t21 -5.5h145l-31 -51h-161l-38 -173q-25 -112 -52.5 -192t-56.5 -134t-57.5 -86t-55 -48.5t-50 -21
t-41.5 -4.5q-26 0 -41 13.5t-15 33.5t12.5 32.5t31.5 13.5q23 -14 46 -24t45 -10q14 0 25.5 8.5t22.5 31.5t23 65t27 109z" />
    <glyph glyph-name="glyph168" horiz-adv-x="601" 
d="M534 722q0 25 19 44t44 19q26 0 45.5 -19t19.5 -44q0 -26 -19.5 -45.5t-45.5 -19.5q-25 0 -44 19.5t-19 45.5zM-122 -257q-26 0 -41 13.5t-15 33.5t12.5 32.5t31.5 13.5q23 -14 46 -24t45 -10q14 0 25.5 8.5t22.5 31.5t23 65t27 109l95 435h-78l8 23q27 2 45 7.5t33 20.5
t30.5 42t38.5 73q22 46 49 77t54.5 50t54.5 27t50 8q35 0 48.5 -15.5t13.5 -35.5q0 -16 -9.5 -31t-26.5 -23q-26 13 -48.5 18.5t-42.5 5.5q-29 0 -52 -10.5t-39 -29t-24.5 -43.5t-8.5 -53q0 -11 1.5 -21.5t6 -19t12.5 -14t21 -5.5h288l-158 -411q-15 -38 -13.5 -51.5
t16.5 -13.5q12 0 29 7.5t37 24t41 42.5t41 64l21 -9q-42 -80 -97 -123.5t-124 -43.5q-49 0 -57 25.5t10 73.5l140 364h-221l-49 -222q-25 -112 -52.5 -191.5t-56.5 -133.5t-57.5 -86t-55 -48.5t-50 -21.5t-41.5 -5z" />
    <glyph glyph-name="glyph170" horiz-adv-x="918" 
d="M852 722q0 25 19 44t44 19q26 0 45 -19t19 -44q0 -26 -19 -45.5t-45 -19.5q-25 0 -44 19.5t-19 45.5zM-122 -257q-26 0 -41 13.5t-15 33.5t12.5 32.5t31.5 13.5q23 -14 46 -24t45 -10q14 0 25.5 8.5t22.5 31.5t23 65t27 109l95 435h-78l8 23q27 2 45 4t33 13t30.5 34.5
t38.5 69.5q22 46 49 77t54.5 50t54.5 27t50 8q35 0 48.5 -15.5t13.5 -35.5q0 -16 -9.5 -31t-26.5 -23q-26 13 -48.5 18.5t-42.5 5.5q-29 0 -52 -10.5t-39 -27.5t-24.5 -39t-8.5 -44t7.5 -37.5t33.5 -15.5h154q21 0 35.5 9.5t25.5 25t21 36.5t21 44q22 46 49 77t54.5 50
t54.5 27t50 8q35 0 48.5 -15.5t13.5 -35.5q0 -16 -9.5 -31t-26.5 -23q-26 13 -48.5 18.5t-42.5 5.5q-29 0 -52 -10.5t-39 -29t-24.5 -43.5t-8.5 -53q0 -11 1.5 -21.5t6 -19t12.5 -14t21 -5.5h289l-159 -411q-15 -38 -13.5 -51.5t17.5 -13.5q12 0 29 7.5t37 24t41 42.5t41 64
l20 -9q-42 -80 -97 -123.5t-124 -43.5q-48 0 -56 25.5t10 73.5l140 364h-222l-38 -173q-25 -112 -52.5 -192t-56.5 -134t-57.5 -86t-55 -48.5t-50 -21t-41.5 -4.5q-26 0 -41 13.5t-15 33.5t12.5 32.5t31.5 13.5q23 -14 46 -24t45 -10q14 0 25.5 8.5t22.5 31.5t23 65t27 109
l84 386h-227l-49 -222q-25 -112 -52.5 -191.5t-56.5 -133.5t-57.5 -86t-55 -48.5t-50 -21.5t-41.5 -5z" />
    <glyph glyph-name="glyph172" horiz-adv-x="617" 
d="M-122 -257q-26 0 -41 13.5t-15 33.5t12.5 32.5t31.5 13.5q23 -14 46 -24t45 -10q14 0 25.5 8.5t22.5 31.5t23 65t27 109l95 435h-78l8 23q27 2 45 7.5t33 20.5t30.5 42t38.5 73q22 46 49 77t54.5 50t54.5 27t50 8q28 0 41.5 -10t18.5 -24l182 40l-238 -694
q-14 -39 -13 -52t16 -13q12 0 29 7.5t37 24t41 42.5t41 64l21 -9q-42 -80 -97 -123.5t-124 -43.5q-24 0 -37.5 6.5t-18.5 19t-2 31t11 42.5l209 609l-55 27q-2 -15 -11 -28.5t-25 -20.5q-26 13 -48.5 18.5t-42.5 5.5q-29 0 -52 -10.5t-39 -29t-24.5 -43.5t-8.5 -53
q0 -11 1.5 -21.5t6 -19t12.5 -14t21 -5.5h145l-31 -51h-161l-49 -222q-25 -112 -52.5 -191.5t-56.5 -133.5t-57.5 -86t-55 -48.5t-50 -21.5t-41.5 -5z" />
    <glyph glyph-name="glyph174" horiz-adv-x="934" 
d="M-122 -257q-26 0 -41 13.5t-15 33.5t12.5 32.5t31.5 13.5q23 -14 46 -24t45 -10q14 0 25.5 8.5t22.5 31.5t23 65t27 109l95 435h-78l8 23q27 2 45 4t33 13t30.5 34.5t38.5 69.5q22 46 49 77t54.5 50t54.5 27t50 8q35 0 48.5 -15.5t13.5 -35.5q0 -16 -9.5 -31t-26.5 -23
q-26 13 -48.5 18.5t-42.5 5.5q-29 0 -52 -10.5t-39 -27.5t-24.5 -39t-8.5 -44t7.5 -37.5t33.5 -15.5h154q21 0 35.5 9.5t25.5 25t21 36.5t21 44q22 46 49 77t54.5 50t54.5 27t50 8q28 0 41.5 -10t18.5 -24l182 40l-238 -694q-14 -39 -13 -52t16 -13q12 0 29 7.5t37 24
t41 42.5t41 64l21 -9q-42 -80 -97 -123.5t-124 -43.5q-24 0 -37.5 6.5t-18.5 19t-2 31t11 42.5l209 609l-55 27q-2 -15 -11 -28.5t-25 -20.5q-26 13 -48.5 18.5t-42.5 5.5q-29 0 -52 -10.5t-39 -29t-24.5 -43.5t-8.5 -53q0 -11 1.5 -21.5t6 -19t12.5 -14t21 -5.5h145
l-31 -51h-161l-38 -173q-25 -112 -52.5 -192t-56.5 -134t-57.5 -86t-55 -48.5t-50 -21t-41.5 -4.5q-26 0 -41 13.5t-15 33.5t12.5 32.5t31.5 13.5q23 -14 46 -24t45 -10q14 0 25.5 8.5t22.5 31.5t23 65t27 109l84 386h-227l-49 -222q-25 -112 -52.5 -191.5t-56.5 -133.5
t-57.5 -86t-55 -48.5t-50 -21.5t-41.5 -5z" />
    <glyph glyph-name="glyph176" horiz-adv-x="0" 
d="M-64 722q0 25 19 44t45 19t45 -19t19 -44q0 -26 -19 -45.5t-45 -19.5t-45 19.5t-19 45.5z" />
    </font>
</defs>
</svg>
